G04 #@! TF.GenerationSoftware,KiCad,Pcbnew,8.0.8-unknown-202502120121~a17639b16e~ubuntu24.04.1*
G04 #@! TF.CreationDate,2025-02-14T12:45:32-05:00*
G04 #@! TF.ProjectId,diode-matrix-rom-dip,64696f64-652d-46d6-9174-7269782d726f,v00*
G04 #@! TF.SameCoordinates,Original*
G04 #@! TF.FileFunction,Legend,Top*
G04 #@! TF.FilePolarity,Positive*
%FSLAX46Y46*%
G04 Gerber Fmt 4.6, Leading zero omitted, Abs format (unit mm)*
G04 Created by KiCad (PCBNEW 8.0.8-unknown-202502120121~a17639b16e~ubuntu24.04.1) date 2025-02-14 12:45:32*
%MOMM*%
%LPD*%
G01*
G04 APERTURE LIST*
G04 Aperture macros list*
%AMRoundRect*
0 Rectangle with rounded corners*
0 $1 Rounding radius*
0 $2 $3 $4 $5 $6 $7 $8 $9 X,Y pos of 4 corners*
0 Add a 4 corners polygon primitive as box body*
4,1,4,$2,$3,$4,$5,$6,$7,$8,$9,$2,$3,0*
0 Add four circle primitives for the rounded corners*
1,1,$1+$1,$2,$3*
1,1,$1+$1,$4,$5*
1,1,$1+$1,$6,$7*
1,1,$1+$1,$8,$9*
0 Add four rect primitives between the rounded corners*
20,1,$1+$1,$2,$3,$4,$5,0*
20,1,$1+$1,$4,$5,$6,$7,0*
20,1,$1+$1,$6,$7,$8,$9,0*
20,1,$1+$1,$8,$9,$2,$3,0*%
G04 Aperture macros list end*
%ADD10C,0.150000*%
%ADD11C,0.120000*%
%ADD12R,1.700000X1.700000*%
%ADD13O,1.700000X1.700000*%
%ADD14RoundRect,0.100000X-0.100000X0.130000X-0.100000X-0.130000X0.100000X-0.130000X0.100000X0.130000X0*%
%ADD15RoundRect,0.250000X-0.650000X0.412500X-0.650000X-0.412500X0.650000X-0.412500X0.650000X0.412500X0*%
%ADD16RoundRect,0.250000X0.650000X-0.412500X0.650000X0.412500X-0.650000X0.412500X-0.650000X-0.412500X0*%
%ADD17R,1.600000X1.600000*%
%ADD18O,1.600000X1.600000*%
G04 APERTURE END LIST*
D10*
X121880333Y-134058819D02*
X121547000Y-133582628D01*
X121308905Y-134058819D02*
X121308905Y-133058819D01*
X121308905Y-133058819D02*
X121689857Y-133058819D01*
X121689857Y-133058819D02*
X121785095Y-133106438D01*
X121785095Y-133106438D02*
X121832714Y-133154057D01*
X121832714Y-133154057D02*
X121880333Y-133249295D01*
X121880333Y-133249295D02*
X121880333Y-133392152D01*
X121880333Y-133392152D02*
X121832714Y-133487390D01*
X121832714Y-133487390D02*
X121785095Y-133535009D01*
X121785095Y-133535009D02*
X121689857Y-133582628D01*
X121689857Y-133582628D02*
X121308905Y-133582628D01*
X122261286Y-133154057D02*
X122308905Y-133106438D01*
X122308905Y-133106438D02*
X122404143Y-133058819D01*
X122404143Y-133058819D02*
X122642238Y-133058819D01*
X122642238Y-133058819D02*
X122737476Y-133106438D01*
X122737476Y-133106438D02*
X122785095Y-133154057D01*
X122785095Y-133154057D02*
X122832714Y-133249295D01*
X122832714Y-133249295D02*
X122832714Y-133344533D01*
X122832714Y-133344533D02*
X122785095Y-133487390D01*
X122785095Y-133487390D02*
X122213667Y-134058819D01*
X122213667Y-134058819D02*
X122832714Y-134058819D01*
X136993333Y-134058819D02*
X136660000Y-133582628D01*
X136421905Y-134058819D02*
X136421905Y-133058819D01*
X136421905Y-133058819D02*
X136802857Y-133058819D01*
X136802857Y-133058819D02*
X136898095Y-133106438D01*
X136898095Y-133106438D02*
X136945714Y-133154057D01*
X136945714Y-133154057D02*
X136993333Y-133249295D01*
X136993333Y-133249295D02*
X136993333Y-133392152D01*
X136993333Y-133392152D02*
X136945714Y-133487390D01*
X136945714Y-133487390D02*
X136898095Y-133535009D01*
X136898095Y-133535009D02*
X136802857Y-133582628D01*
X136802857Y-133582628D02*
X136421905Y-133582628D01*
X137564762Y-133487390D02*
X137469524Y-133439771D01*
X137469524Y-133439771D02*
X137421905Y-133392152D01*
X137421905Y-133392152D02*
X137374286Y-133296914D01*
X137374286Y-133296914D02*
X137374286Y-133249295D01*
X137374286Y-133249295D02*
X137421905Y-133154057D01*
X137421905Y-133154057D02*
X137469524Y-133106438D01*
X137469524Y-133106438D02*
X137564762Y-133058819D01*
X137564762Y-133058819D02*
X137755238Y-133058819D01*
X137755238Y-133058819D02*
X137850476Y-133106438D01*
X137850476Y-133106438D02*
X137898095Y-133154057D01*
X137898095Y-133154057D02*
X137945714Y-133249295D01*
X137945714Y-133249295D02*
X137945714Y-133296914D01*
X137945714Y-133296914D02*
X137898095Y-133392152D01*
X137898095Y-133392152D02*
X137850476Y-133439771D01*
X137850476Y-133439771D02*
X137755238Y-133487390D01*
X137755238Y-133487390D02*
X137564762Y-133487390D01*
X137564762Y-133487390D02*
X137469524Y-133535009D01*
X137469524Y-133535009D02*
X137421905Y-133582628D01*
X137421905Y-133582628D02*
X137374286Y-133677866D01*
X137374286Y-133677866D02*
X137374286Y-133868342D01*
X137374286Y-133868342D02*
X137421905Y-133963580D01*
X137421905Y-133963580D02*
X137469524Y-134011200D01*
X137469524Y-134011200D02*
X137564762Y-134058819D01*
X137564762Y-134058819D02*
X137755238Y-134058819D01*
X137755238Y-134058819D02*
X137850476Y-134011200D01*
X137850476Y-134011200D02*
X137898095Y-133963580D01*
X137898095Y-133963580D02*
X137945714Y-133868342D01*
X137945714Y-133868342D02*
X137945714Y-133677866D01*
X137945714Y-133677866D02*
X137898095Y-133582628D01*
X137898095Y-133582628D02*
X137850476Y-133535009D01*
X137850476Y-133535009D02*
X137755238Y-133487390D01*
X119467333Y-134058819D02*
X119134000Y-133582628D01*
X118895905Y-134058819D02*
X118895905Y-133058819D01*
X118895905Y-133058819D02*
X119276857Y-133058819D01*
X119276857Y-133058819D02*
X119372095Y-133106438D01*
X119372095Y-133106438D02*
X119419714Y-133154057D01*
X119419714Y-133154057D02*
X119467333Y-133249295D01*
X119467333Y-133249295D02*
X119467333Y-133392152D01*
X119467333Y-133392152D02*
X119419714Y-133487390D01*
X119419714Y-133487390D02*
X119372095Y-133535009D01*
X119372095Y-133535009D02*
X119276857Y-133582628D01*
X119276857Y-133582628D02*
X118895905Y-133582628D01*
X120419714Y-134058819D02*
X119848286Y-134058819D01*
X120134000Y-134058819D02*
X120134000Y-133058819D01*
X120134000Y-133058819D02*
X120038762Y-133201676D01*
X120038762Y-133201676D02*
X119943524Y-133296914D01*
X119943524Y-133296914D02*
X119848286Y-133344533D01*
X116038333Y-89259580D02*
X115990714Y-89307200D01*
X115990714Y-89307200D02*
X115847857Y-89354819D01*
X115847857Y-89354819D02*
X115752619Y-89354819D01*
X115752619Y-89354819D02*
X115609762Y-89307200D01*
X115609762Y-89307200D02*
X115514524Y-89211961D01*
X115514524Y-89211961D02*
X115466905Y-89116723D01*
X115466905Y-89116723D02*
X115419286Y-88926247D01*
X115419286Y-88926247D02*
X115419286Y-88783390D01*
X115419286Y-88783390D02*
X115466905Y-88592914D01*
X115466905Y-88592914D02*
X115514524Y-88497676D01*
X115514524Y-88497676D02*
X115609762Y-88402438D01*
X115609762Y-88402438D02*
X115752619Y-88354819D01*
X115752619Y-88354819D02*
X115847857Y-88354819D01*
X115847857Y-88354819D02*
X115990714Y-88402438D01*
X115990714Y-88402438D02*
X116038333Y-88450057D01*
X116419286Y-88450057D02*
X116466905Y-88402438D01*
X116466905Y-88402438D02*
X116562143Y-88354819D01*
X116562143Y-88354819D02*
X116800238Y-88354819D01*
X116800238Y-88354819D02*
X116895476Y-88402438D01*
X116895476Y-88402438D02*
X116943095Y-88450057D01*
X116943095Y-88450057D02*
X116990714Y-88545295D01*
X116990714Y-88545295D02*
X116990714Y-88640533D01*
X116990714Y-88640533D02*
X116943095Y-88783390D01*
X116943095Y-88783390D02*
X116371667Y-89354819D01*
X116371667Y-89354819D02*
X116990714Y-89354819D01*
X116292333Y-77321580D02*
X116244714Y-77369200D01*
X116244714Y-77369200D02*
X116101857Y-77416819D01*
X116101857Y-77416819D02*
X116006619Y-77416819D01*
X116006619Y-77416819D02*
X115863762Y-77369200D01*
X115863762Y-77369200D02*
X115768524Y-77273961D01*
X115768524Y-77273961D02*
X115720905Y-77178723D01*
X115720905Y-77178723D02*
X115673286Y-76988247D01*
X115673286Y-76988247D02*
X115673286Y-76845390D01*
X115673286Y-76845390D02*
X115720905Y-76654914D01*
X115720905Y-76654914D02*
X115768524Y-76559676D01*
X115768524Y-76559676D02*
X115863762Y-76464438D01*
X115863762Y-76464438D02*
X116006619Y-76416819D01*
X116006619Y-76416819D02*
X116101857Y-76416819D01*
X116101857Y-76416819D02*
X116244714Y-76464438D01*
X116244714Y-76464438D02*
X116292333Y-76512057D01*
X117244714Y-77416819D02*
X116673286Y-77416819D01*
X116959000Y-77416819D02*
X116959000Y-76416819D01*
X116959000Y-76416819D02*
X116863762Y-76559676D01*
X116863762Y-76559676D02*
X116768524Y-76654914D01*
X116768524Y-76654914D02*
X116673286Y-76702533D01*
X131913333Y-134058819D02*
X131580000Y-133582628D01*
X131341905Y-134058819D02*
X131341905Y-133058819D01*
X131341905Y-133058819D02*
X131722857Y-133058819D01*
X131722857Y-133058819D02*
X131818095Y-133106438D01*
X131818095Y-133106438D02*
X131865714Y-133154057D01*
X131865714Y-133154057D02*
X131913333Y-133249295D01*
X131913333Y-133249295D02*
X131913333Y-133392152D01*
X131913333Y-133392152D02*
X131865714Y-133487390D01*
X131865714Y-133487390D02*
X131818095Y-133535009D01*
X131818095Y-133535009D02*
X131722857Y-133582628D01*
X131722857Y-133582628D02*
X131341905Y-133582628D01*
X132770476Y-133058819D02*
X132580000Y-133058819D01*
X132580000Y-133058819D02*
X132484762Y-133106438D01*
X132484762Y-133106438D02*
X132437143Y-133154057D01*
X132437143Y-133154057D02*
X132341905Y-133296914D01*
X132341905Y-133296914D02*
X132294286Y-133487390D01*
X132294286Y-133487390D02*
X132294286Y-133868342D01*
X132294286Y-133868342D02*
X132341905Y-133963580D01*
X132341905Y-133963580D02*
X132389524Y-134011200D01*
X132389524Y-134011200D02*
X132484762Y-134058819D01*
X132484762Y-134058819D02*
X132675238Y-134058819D01*
X132675238Y-134058819D02*
X132770476Y-134011200D01*
X132770476Y-134011200D02*
X132818095Y-133963580D01*
X132818095Y-133963580D02*
X132865714Y-133868342D01*
X132865714Y-133868342D02*
X132865714Y-133630247D01*
X132865714Y-133630247D02*
X132818095Y-133535009D01*
X132818095Y-133535009D02*
X132770476Y-133487390D01*
X132770476Y-133487390D02*
X132675238Y-133439771D01*
X132675238Y-133439771D02*
X132484762Y-133439771D01*
X132484762Y-133439771D02*
X132389524Y-133487390D01*
X132389524Y-133487390D02*
X132341905Y-133535009D01*
X132341905Y-133535009D02*
X132294286Y-133630247D01*
X134453333Y-134058819D02*
X134120000Y-133582628D01*
X133881905Y-134058819D02*
X133881905Y-133058819D01*
X133881905Y-133058819D02*
X134262857Y-133058819D01*
X134262857Y-133058819D02*
X134358095Y-133106438D01*
X134358095Y-133106438D02*
X134405714Y-133154057D01*
X134405714Y-133154057D02*
X134453333Y-133249295D01*
X134453333Y-133249295D02*
X134453333Y-133392152D01*
X134453333Y-133392152D02*
X134405714Y-133487390D01*
X134405714Y-133487390D02*
X134358095Y-133535009D01*
X134358095Y-133535009D02*
X134262857Y-133582628D01*
X134262857Y-133582628D02*
X133881905Y-133582628D01*
X134786667Y-133058819D02*
X135453333Y-133058819D01*
X135453333Y-133058819D02*
X135024762Y-134058819D01*
X139154819Y-83311904D02*
X139964342Y-83311904D01*
X139964342Y-83311904D02*
X140059580Y-83264285D01*
X140059580Y-83264285D02*
X140107200Y-83216666D01*
X140107200Y-83216666D02*
X140154819Y-83121428D01*
X140154819Y-83121428D02*
X140154819Y-82930952D01*
X140154819Y-82930952D02*
X140107200Y-82835714D01*
X140107200Y-82835714D02*
X140059580Y-82788095D01*
X140059580Y-82788095D02*
X139964342Y-82740476D01*
X139964342Y-82740476D02*
X139154819Y-82740476D01*
X139250057Y-82311904D02*
X139202438Y-82264285D01*
X139202438Y-82264285D02*
X139154819Y-82169047D01*
X139154819Y-82169047D02*
X139154819Y-81930952D01*
X139154819Y-81930952D02*
X139202438Y-81835714D01*
X139202438Y-81835714D02*
X139250057Y-81788095D01*
X139250057Y-81788095D02*
X139345295Y-81740476D01*
X139345295Y-81740476D02*
X139440533Y-81740476D01*
X139440533Y-81740476D02*
X139583390Y-81788095D01*
X139583390Y-81788095D02*
X140154819Y-82359523D01*
X140154819Y-82359523D02*
X140154819Y-81740476D01*
X126960333Y-134058819D02*
X126627000Y-133582628D01*
X126388905Y-134058819D02*
X126388905Y-133058819D01*
X126388905Y-133058819D02*
X126769857Y-133058819D01*
X126769857Y-133058819D02*
X126865095Y-133106438D01*
X126865095Y-133106438D02*
X126912714Y-133154057D01*
X126912714Y-133154057D02*
X126960333Y-133249295D01*
X126960333Y-133249295D02*
X126960333Y-133392152D01*
X126960333Y-133392152D02*
X126912714Y-133487390D01*
X126912714Y-133487390D02*
X126865095Y-133535009D01*
X126865095Y-133535009D02*
X126769857Y-133582628D01*
X126769857Y-133582628D02*
X126388905Y-133582628D01*
X127817476Y-133392152D02*
X127817476Y-134058819D01*
X127579381Y-133011200D02*
X127341286Y-133725485D01*
X127341286Y-133725485D02*
X127960333Y-133725485D01*
X129500333Y-134058819D02*
X129167000Y-133582628D01*
X128928905Y-134058819D02*
X128928905Y-133058819D01*
X128928905Y-133058819D02*
X129309857Y-133058819D01*
X129309857Y-133058819D02*
X129405095Y-133106438D01*
X129405095Y-133106438D02*
X129452714Y-133154057D01*
X129452714Y-133154057D02*
X129500333Y-133249295D01*
X129500333Y-133249295D02*
X129500333Y-133392152D01*
X129500333Y-133392152D02*
X129452714Y-133487390D01*
X129452714Y-133487390D02*
X129405095Y-133535009D01*
X129405095Y-133535009D02*
X129309857Y-133582628D01*
X129309857Y-133582628D02*
X128928905Y-133582628D01*
X130405095Y-133058819D02*
X129928905Y-133058819D01*
X129928905Y-133058819D02*
X129881286Y-133535009D01*
X129881286Y-133535009D02*
X129928905Y-133487390D01*
X129928905Y-133487390D02*
X130024143Y-133439771D01*
X130024143Y-133439771D02*
X130262238Y-133439771D01*
X130262238Y-133439771D02*
X130357476Y-133487390D01*
X130357476Y-133487390D02*
X130405095Y-133535009D01*
X130405095Y-133535009D02*
X130452714Y-133630247D01*
X130452714Y-133630247D02*
X130452714Y-133868342D01*
X130452714Y-133868342D02*
X130405095Y-133963580D01*
X130405095Y-133963580D02*
X130357476Y-134011200D01*
X130357476Y-134011200D02*
X130262238Y-134058819D01*
X130262238Y-134058819D02*
X130024143Y-134058819D01*
X130024143Y-134058819D02*
X129928905Y-134011200D01*
X129928905Y-134011200D02*
X129881286Y-133963580D01*
X124420333Y-134058819D02*
X124087000Y-133582628D01*
X123848905Y-134058819D02*
X123848905Y-133058819D01*
X123848905Y-133058819D02*
X124229857Y-133058819D01*
X124229857Y-133058819D02*
X124325095Y-133106438D01*
X124325095Y-133106438D02*
X124372714Y-133154057D01*
X124372714Y-133154057D02*
X124420333Y-133249295D01*
X124420333Y-133249295D02*
X124420333Y-133392152D01*
X124420333Y-133392152D02*
X124372714Y-133487390D01*
X124372714Y-133487390D02*
X124325095Y-133535009D01*
X124325095Y-133535009D02*
X124229857Y-133582628D01*
X124229857Y-133582628D02*
X123848905Y-133582628D01*
X124753667Y-133058819D02*
X125372714Y-133058819D01*
X125372714Y-133058819D02*
X125039381Y-133439771D01*
X125039381Y-133439771D02*
X125182238Y-133439771D01*
X125182238Y-133439771D02*
X125277476Y-133487390D01*
X125277476Y-133487390D02*
X125325095Y-133535009D01*
X125325095Y-133535009D02*
X125372714Y-133630247D01*
X125372714Y-133630247D02*
X125372714Y-133868342D01*
X125372714Y-133868342D02*
X125325095Y-133963580D01*
X125325095Y-133963580D02*
X125277476Y-134011200D01*
X125277476Y-134011200D02*
X125182238Y-134058819D01*
X125182238Y-134058819D02*
X124896524Y-134058819D01*
X124896524Y-134058819D02*
X124801286Y-134011200D01*
X124801286Y-134011200D02*
X124753667Y-133963580D01*
D11*
X118050000Y-112970000D02*
X118050000Y-115630000D01*
X135890000Y-112970000D02*
X118050000Y-112970000D01*
X135890000Y-112970000D02*
X135890000Y-115630000D01*
X135890000Y-115630000D02*
X118050000Y-115630000D01*
X138490000Y-114300000D02*
X138490000Y-115630000D01*
X138490000Y-115630000D02*
X137160000Y-115630000D01*
X115295000Y-85013748D02*
X115295000Y-86436252D01*
X117115000Y-85013748D02*
X117115000Y-86436252D01*
X115295000Y-80721252D02*
X115295000Y-79298748D01*
X117115000Y-80721252D02*
X117115000Y-79298748D01*
X118050000Y-118050000D02*
X118050000Y-120710000D01*
X135890000Y-118050000D02*
X118050000Y-118050000D01*
X135890000Y-118050000D02*
X135890000Y-120710000D01*
X135890000Y-120710000D02*
X118050000Y-120710000D01*
X138490000Y-119380000D02*
X138490000Y-120710000D01*
X138490000Y-120710000D02*
X137160000Y-120710000D01*
X118050000Y-100270000D02*
X118050000Y-102930000D01*
X135890000Y-100270000D02*
X118050000Y-100270000D01*
X135890000Y-100270000D02*
X135890000Y-102930000D01*
X135890000Y-102930000D02*
X118050000Y-102930000D01*
X138490000Y-101600000D02*
X138490000Y-102930000D01*
X138490000Y-102930000D02*
X137160000Y-102930000D01*
X118050000Y-95190000D02*
X118050000Y-97850000D01*
X135890000Y-95190000D02*
X118050000Y-95190000D01*
X135890000Y-95190000D02*
X135890000Y-97850000D01*
X135890000Y-97850000D02*
X118050000Y-97850000D01*
X138490000Y-96520000D02*
X138490000Y-97850000D01*
X138490000Y-97850000D02*
X137160000Y-97850000D01*
X118050000Y-105350000D02*
X118050000Y-108010000D01*
X135890000Y-105350000D02*
X118050000Y-105350000D01*
X135890000Y-105350000D02*
X135890000Y-108010000D01*
X135890000Y-108010000D02*
X118050000Y-108010000D01*
X138490000Y-106680000D02*
X138490000Y-108010000D01*
X138490000Y-108010000D02*
X137160000Y-108010000D01*
X118050000Y-102810000D02*
X118050000Y-105470000D01*
X135890000Y-102810000D02*
X118050000Y-102810000D01*
X135890000Y-102810000D02*
X135890000Y-105470000D01*
X135890000Y-105470000D02*
X118050000Y-105470000D01*
X138490000Y-104140000D02*
X138490000Y-105470000D01*
X138490000Y-105470000D02*
X137160000Y-105470000D01*
X118050000Y-79900000D02*
X118050000Y-81550000D01*
X118050000Y-83550000D02*
X118050000Y-85200000D01*
X118050000Y-85200000D02*
X138490000Y-85200000D01*
X138490000Y-79900000D02*
X118050000Y-79900000D01*
X138490000Y-85200000D02*
X138490000Y-79900000D01*
X118050000Y-81550000D02*
G75*
G02*
X118050000Y-83550000I0J-1000000D01*
G01*
X118050000Y-123130000D02*
X118050000Y-125790000D01*
X135890000Y-123130000D02*
X118050000Y-123130000D01*
X135890000Y-123130000D02*
X135890000Y-125790000D01*
X135890000Y-125790000D02*
X118050000Y-125790000D01*
X138490000Y-124460000D02*
X138490000Y-125790000D01*
X138490000Y-125790000D02*
X137160000Y-125790000D01*
X118050000Y-120590000D02*
X118050000Y-123250000D01*
X135890000Y-120590000D02*
X118050000Y-120590000D01*
X135890000Y-120590000D02*
X135890000Y-123250000D01*
X135890000Y-123250000D02*
X118050000Y-123250000D01*
X138490000Y-121920000D02*
X138490000Y-123250000D01*
X138490000Y-123250000D02*
X137160000Y-123250000D01*
X118050000Y-92650000D02*
X118050000Y-95310000D01*
X135890000Y-92650000D02*
X118050000Y-92650000D01*
X135890000Y-92650000D02*
X135890000Y-95310000D01*
X135890000Y-95310000D02*
X118050000Y-95310000D01*
X138490000Y-93980000D02*
X138490000Y-95310000D01*
X138490000Y-95310000D02*
X137160000Y-95310000D01*
X118050000Y-90110000D02*
X118050000Y-92770000D01*
X135890000Y-90110000D02*
X118050000Y-90110000D01*
X135890000Y-90110000D02*
X135890000Y-92770000D01*
X135890000Y-92770000D02*
X118050000Y-92770000D01*
X138490000Y-91440000D02*
X138490000Y-92770000D01*
X138490000Y-92770000D02*
X137160000Y-92770000D01*
X118050000Y-115510000D02*
X118050000Y-118170000D01*
X135890000Y-115510000D02*
X118050000Y-115510000D01*
X135890000Y-115510000D02*
X135890000Y-118170000D01*
X135890000Y-118170000D02*
X118050000Y-118170000D01*
X138490000Y-116840000D02*
X138490000Y-118170000D01*
X138490000Y-118170000D02*
X137160000Y-118170000D01*
X118050000Y-107890000D02*
X118050000Y-110550000D01*
X135890000Y-107890000D02*
X118050000Y-107890000D01*
X135890000Y-107890000D02*
X135890000Y-110550000D01*
X135890000Y-110550000D02*
X118050000Y-110550000D01*
X138490000Y-109220000D02*
X138490000Y-110550000D01*
X138490000Y-110550000D02*
X137160000Y-110550000D01*
X118050000Y-125670000D02*
X118050000Y-128330000D01*
X135890000Y-125670000D02*
X118050000Y-125670000D01*
X135890000Y-125670000D02*
X135890000Y-128330000D01*
X135890000Y-128330000D02*
X118050000Y-128330000D01*
X138490000Y-127000000D02*
X138490000Y-128330000D01*
X138490000Y-128330000D02*
X137160000Y-128330000D01*
X118050000Y-97730000D02*
X118050000Y-100390000D01*
X135890000Y-97730000D02*
X118050000Y-97730000D01*
X135890000Y-97730000D02*
X135890000Y-100390000D01*
X135890000Y-100390000D02*
X118050000Y-100390000D01*
X138490000Y-99060000D02*
X138490000Y-100390000D01*
X138490000Y-100390000D02*
X137160000Y-100390000D01*
X118050000Y-128210000D02*
X118050000Y-130870000D01*
X135890000Y-128210000D02*
X118050000Y-128210000D01*
X135890000Y-128210000D02*
X135890000Y-130870000D01*
X135890000Y-130870000D02*
X118050000Y-130870000D01*
X138490000Y-129540000D02*
X138490000Y-130870000D01*
X138490000Y-130870000D02*
X137160000Y-130870000D01*
X118050000Y-110430000D02*
X118050000Y-113090000D01*
X135890000Y-110430000D02*
X118050000Y-110430000D01*
X135890000Y-110430000D02*
X135890000Y-113090000D01*
X135890000Y-113090000D02*
X118050000Y-113090000D01*
X138490000Y-111760000D02*
X138490000Y-113090000D01*
X138490000Y-113090000D02*
X137160000Y-113090000D01*
%LPC*%
D12*
X137160000Y-114300000D03*
D13*
X134620000Y-114300000D03*
X132080000Y-114300000D03*
X129540000Y-114300000D03*
X127000000Y-114300000D03*
X124460000Y-114300000D03*
X121920000Y-114300000D03*
X119380000Y-114300000D03*
D14*
X121920000Y-131760000D03*
X121920000Y-132400000D03*
X137160000Y-131760000D03*
X137160000Y-132400000D03*
X119380000Y-131760000D03*
X119380000Y-132400000D03*
D15*
X116205000Y-84162500D03*
X116205000Y-87287500D03*
D16*
X116205000Y-81572500D03*
X116205000Y-78447500D03*
D14*
X132080000Y-131760000D03*
X132080000Y-132400000D03*
X134620000Y-131760000D03*
X134620000Y-132400000D03*
D12*
X137160000Y-119380000D03*
D13*
X134620000Y-119380000D03*
X132080000Y-119380000D03*
X129540000Y-119380000D03*
X127000000Y-119380000D03*
X124460000Y-119380000D03*
X121920000Y-119380000D03*
X119380000Y-119380000D03*
D12*
X137160000Y-101600000D03*
D13*
X134620000Y-101600000D03*
X132080000Y-101600000D03*
X129540000Y-101600000D03*
X127000000Y-101600000D03*
X124460000Y-101600000D03*
X121920000Y-101600000D03*
X119380000Y-101600000D03*
D12*
X137160000Y-96520000D03*
D13*
X134620000Y-96520000D03*
X132080000Y-96520000D03*
X129540000Y-96520000D03*
X127000000Y-96520000D03*
X124460000Y-96520000D03*
X121920000Y-96520000D03*
X119380000Y-96520000D03*
D12*
X137160000Y-106680000D03*
D13*
X134620000Y-106680000D03*
X132080000Y-106680000D03*
X129540000Y-106680000D03*
X127000000Y-106680000D03*
X124460000Y-106680000D03*
X121920000Y-106680000D03*
X119380000Y-106680000D03*
D12*
X137160000Y-104140000D03*
D13*
X134620000Y-104140000D03*
X132080000Y-104140000D03*
X129540000Y-104140000D03*
X127000000Y-104140000D03*
X124460000Y-104140000D03*
X121920000Y-104140000D03*
X119380000Y-104140000D03*
D17*
X119380000Y-86360000D03*
D18*
X121920000Y-86360000D03*
X124460000Y-86360000D03*
X127000000Y-86360000D03*
X129540000Y-86360000D03*
X132080000Y-86360000D03*
X134620000Y-86360000D03*
X137160000Y-86360000D03*
X137160000Y-78740000D03*
X134620000Y-78740000D03*
X132080000Y-78740000D03*
X129540000Y-78740000D03*
X127000000Y-78740000D03*
X124460000Y-78740000D03*
X121920000Y-78740000D03*
X119380000Y-78740000D03*
D14*
X127000000Y-131760000D03*
X127000000Y-132400000D03*
D12*
X137160000Y-124460000D03*
D13*
X134620000Y-124460000D03*
X132080000Y-124460000D03*
X129540000Y-124460000D03*
X127000000Y-124460000D03*
X124460000Y-124460000D03*
X121920000Y-124460000D03*
X119380000Y-124460000D03*
D14*
X129540000Y-131760000D03*
X129540000Y-132400000D03*
X124460000Y-131760000D03*
X124460000Y-132400000D03*
D12*
X137160000Y-121920000D03*
D13*
X134620000Y-121920000D03*
X132080000Y-121920000D03*
X129540000Y-121920000D03*
X127000000Y-121920000D03*
X124460000Y-121920000D03*
X121920000Y-121920000D03*
X119380000Y-121920000D03*
D12*
X137160000Y-93980000D03*
D13*
X134620000Y-93980000D03*
X132080000Y-93980000D03*
X129540000Y-93980000D03*
X127000000Y-93980000D03*
X124460000Y-93980000D03*
X121920000Y-93980000D03*
X119380000Y-93980000D03*
D12*
X137160000Y-91440000D03*
D13*
X134620000Y-91440000D03*
X132080000Y-91440000D03*
X129540000Y-91440000D03*
X127000000Y-91440000D03*
X124460000Y-91440000D03*
X121920000Y-91440000D03*
X119380000Y-91440000D03*
D12*
X137160000Y-116840000D03*
D13*
X134620000Y-116840000D03*
X132080000Y-116840000D03*
X129540000Y-116840000D03*
X127000000Y-116840000D03*
X124460000Y-116840000D03*
X121920000Y-116840000D03*
X119380000Y-116840000D03*
D12*
X137160000Y-109220000D03*
D13*
X134620000Y-109220000D03*
X132080000Y-109220000D03*
X129540000Y-109220000D03*
X127000000Y-109220000D03*
X124460000Y-109220000D03*
X121920000Y-109220000D03*
X119380000Y-109220000D03*
D12*
X137160000Y-127000000D03*
D13*
X134620000Y-127000000D03*
X132080000Y-127000000D03*
X129540000Y-127000000D03*
X127000000Y-127000000D03*
X124460000Y-127000000D03*
X121920000Y-127000000D03*
X119380000Y-127000000D03*
D12*
X137160000Y-99060000D03*
D13*
X134620000Y-99060000D03*
X132080000Y-99060000D03*
X129540000Y-99060000D03*
X127000000Y-99060000D03*
X124460000Y-99060000D03*
X121920000Y-99060000D03*
X119380000Y-99060000D03*
D12*
X137160000Y-129540000D03*
D13*
X134620000Y-129540000D03*
X132080000Y-129540000D03*
X129540000Y-129540000D03*
X127000000Y-129540000D03*
X124460000Y-129540000D03*
X121920000Y-129540000D03*
X119380000Y-129540000D03*
D12*
X137160000Y-111760000D03*
D13*
X134620000Y-111760000D03*
X132080000Y-111760000D03*
X129540000Y-111760000D03*
X127000000Y-111760000D03*
X124460000Y-111760000D03*
X121920000Y-111760000D03*
X119380000Y-111760000D03*
D12*
X116840000Y-91440000D03*
D13*
X116840000Y-93980000D03*
X116840000Y-96520000D03*
X116840000Y-99060000D03*
X116840000Y-101600000D03*
X116840000Y-104140000D03*
X116840000Y-106680000D03*
X116840000Y-109220000D03*
X116840000Y-111760000D03*
X116840000Y-114300000D03*
X116840000Y-116840000D03*
X116840000Y-119380000D03*
X116840000Y-121920000D03*
X116840000Y-124460000D03*
X116840000Y-127000000D03*
X116840000Y-129540000D03*
X116840000Y-132080000D03*
D12*
X139700000Y-91440000D03*
D13*
X139700000Y-93980000D03*
X139700000Y-96520000D03*
X139700000Y-99060000D03*
X139700000Y-101600000D03*
X139700000Y-104140000D03*
X139700000Y-106680000D03*
X139700000Y-109220000D03*
X139700000Y-111760000D03*
X139700000Y-114300000D03*
X139700000Y-116840000D03*
X139700000Y-119380000D03*
X139700000Y-121920000D03*
X139700000Y-124460000D03*
X139700000Y-127000000D03*
X139700000Y-129540000D03*
X139700000Y-132080000D03*
%LPD*%
M02*
