%TF.GenerationSoftware,KiCad,Pcbnew,8.0.8-unknown-202502120121~a17639b16e~ubuntu24.04.1*%
%TF.CreationDate,2025-02-14T12:47:05-05:00*%
%TF.ProjectId,diode-matrix-rom-dip,64696f64-652d-46d6-9174-7269782d726f,v00*%
%TF.SameCoordinates,Original*%
%TF.FileFunction,Drillmap*%
%TF.FilePolarity,Positive*%
%FSLAX45Y45*%
G04 Gerber Fmt 4.5, Leading zero omitted, Abs format (unit mm)*
G04 Created by KiCad (PCBNEW 8.0.8-unknown-202502120121~a17639b16e~ubuntu24.04.1) date 2025-02-14 12:47:05*
%MOMM*%
%LPD*%
G01*
G04 APERTURE LIST*
%ADD10C,0.050000*%
%ADD11C,0.200000*%
%ADD12C,0.100000*%
G04 APERTURE END LIST*
D10*
X11430000Y-7620000D02*
X14224000Y-7620000D01*
X14224000Y-13462000D01*
X11430000Y-13462000D01*
X11430000Y-7620000D01*
D11*
D12*
X11605500Y-8875000D02*
X11635500Y-8905000D01*
X11635500Y-8875000D02*
X11605500Y-8905000D01*
X11796000Y-7732000D02*
X11826000Y-7762000D01*
X11826000Y-7732000D02*
X11796000Y-7762000D01*
X12050000Y-13225000D02*
X12080000Y-13255000D01*
X12080000Y-13225000D02*
X12050000Y-13255000D01*
X12304000Y-13225000D02*
X12334000Y-13255000D01*
X12334000Y-13225000D02*
X12304000Y-13255000D01*
X12558000Y-13225000D02*
X12588000Y-13255000D01*
X12588000Y-13225000D02*
X12558000Y-13255000D01*
X12812000Y-13225000D02*
X12842000Y-13255000D01*
X12842000Y-13225000D02*
X12812000Y-13255000D01*
X13066000Y-13225000D02*
X13096000Y-13255000D01*
X13096000Y-13225000D02*
X13066000Y-13255000D01*
X13320000Y-13225000D02*
X13350000Y-13255000D01*
X13350000Y-13225000D02*
X13320000Y-13255000D01*
X13574000Y-13225000D02*
X13604000Y-13255000D01*
X13604000Y-13225000D02*
X13574000Y-13255000D01*
X11978000Y-7874000D02*
G75*
G02*
X11898000Y-7874000I-40000J0D01*
G01*
X11898000Y-7874000D02*
G75*
G02*
X11978000Y-7874000I40000J0D01*
G01*
X11978000Y-8636000D02*
G75*
G02*
X11898000Y-8636000I-40000J0D01*
G01*
X11898000Y-8636000D02*
G75*
G02*
X11978000Y-8636000I40000J0D01*
G01*
X12232000Y-7874000D02*
G75*
G02*
X12152000Y-7874000I-40000J0D01*
G01*
X12152000Y-7874000D02*
G75*
G02*
X12232000Y-7874000I40000J0D01*
G01*
X12232000Y-8636000D02*
G75*
G02*
X12152000Y-8636000I-40000J0D01*
G01*
X12152000Y-8636000D02*
G75*
G02*
X12232000Y-8636000I40000J0D01*
G01*
X12486000Y-7874000D02*
G75*
G02*
X12406000Y-7874000I-40000J0D01*
G01*
X12406000Y-7874000D02*
G75*
G02*
X12486000Y-7874000I40000J0D01*
G01*
X12486000Y-8636000D02*
G75*
G02*
X12406000Y-8636000I-40000J0D01*
G01*
X12406000Y-8636000D02*
G75*
G02*
X12486000Y-8636000I40000J0D01*
G01*
X12740000Y-7874000D02*
G75*
G02*
X12660000Y-7874000I-40000J0D01*
G01*
X12660000Y-7874000D02*
G75*
G02*
X12740000Y-7874000I40000J0D01*
G01*
X12740000Y-8636000D02*
G75*
G02*
X12660000Y-8636000I-40000J0D01*
G01*
X12660000Y-8636000D02*
G75*
G02*
X12740000Y-8636000I40000J0D01*
G01*
X12994000Y-7874000D02*
G75*
G02*
X12914000Y-7874000I-40000J0D01*
G01*
X12914000Y-7874000D02*
G75*
G02*
X12994000Y-7874000I40000J0D01*
G01*
X12994000Y-8636000D02*
G75*
G02*
X12914000Y-8636000I-40000J0D01*
G01*
X12914000Y-8636000D02*
G75*
G02*
X12994000Y-8636000I40000J0D01*
G01*
X13248000Y-7874000D02*
G75*
G02*
X13168000Y-7874000I-40000J0D01*
G01*
X13168000Y-7874000D02*
G75*
G02*
X13248000Y-7874000I40000J0D01*
G01*
X13248000Y-8636000D02*
G75*
G02*
X13168000Y-8636000I-40000J0D01*
G01*
X13168000Y-8636000D02*
G75*
G02*
X13248000Y-8636000I40000J0D01*
G01*
X13502000Y-7874000D02*
G75*
G02*
X13422000Y-7874000I-40000J0D01*
G01*
X13422000Y-7874000D02*
G75*
G02*
X13502000Y-7874000I40000J0D01*
G01*
X13502000Y-8636000D02*
G75*
G02*
X13422000Y-8636000I-40000J0D01*
G01*
X13422000Y-8636000D02*
G75*
G02*
X13502000Y-8636000I40000J0D01*
G01*
X13756000Y-7874000D02*
G75*
G02*
X13676000Y-7874000I-40000J0D01*
G01*
X13676000Y-7874000D02*
G75*
G02*
X13756000Y-7874000I40000J0D01*
G01*
X13756000Y-8636000D02*
G75*
G02*
X13676000Y-8636000I-40000J0D01*
G01*
X13676000Y-8636000D02*
G75*
G02*
X13756000Y-8636000I40000J0D01*
G01*
X11684000Y-9094000D02*
X11684000Y-9194000D01*
X11634000Y-9144000D02*
X11734000Y-9144000D01*
X11684000Y-9348000D02*
X11684000Y-9448000D01*
X11634000Y-9398000D02*
X11734000Y-9398000D01*
X11684000Y-9602000D02*
X11684000Y-9702000D01*
X11634000Y-9652000D02*
X11734000Y-9652000D01*
X11684000Y-9856000D02*
X11684000Y-9956000D01*
X11634000Y-9906000D02*
X11734000Y-9906000D01*
X11684000Y-10110000D02*
X11684000Y-10210000D01*
X11634000Y-10160000D02*
X11734000Y-10160000D01*
X11684000Y-10364000D02*
X11684000Y-10464000D01*
X11634000Y-10414000D02*
X11734000Y-10414000D01*
X11684000Y-10618000D02*
X11684000Y-10718000D01*
X11634000Y-10668000D02*
X11734000Y-10668000D01*
X11684000Y-10872000D02*
X11684000Y-10972000D01*
X11634000Y-10922000D02*
X11734000Y-10922000D01*
X11684000Y-11126000D02*
X11684000Y-11226000D01*
X11634000Y-11176000D02*
X11734000Y-11176000D01*
X11684000Y-11380000D02*
X11684000Y-11480000D01*
X11634000Y-11430000D02*
X11734000Y-11430000D01*
X11684000Y-11634000D02*
X11684000Y-11734000D01*
X11634000Y-11684000D02*
X11734000Y-11684000D01*
X11684000Y-11888000D02*
X11684000Y-11988000D01*
X11634000Y-11938000D02*
X11734000Y-11938000D01*
X11684000Y-12142000D02*
X11684000Y-12242000D01*
X11634000Y-12192000D02*
X11734000Y-12192000D01*
X11684000Y-12396000D02*
X11684000Y-12496000D01*
X11634000Y-12446000D02*
X11734000Y-12446000D01*
X11684000Y-12650000D02*
X11684000Y-12750000D01*
X11634000Y-12700000D02*
X11734000Y-12700000D01*
X11684000Y-12904000D02*
X11684000Y-13004000D01*
X11634000Y-12954000D02*
X11734000Y-12954000D01*
X11684000Y-13158000D02*
X11684000Y-13258000D01*
X11634000Y-13208000D02*
X11734000Y-13208000D01*
X11938000Y-9094000D02*
X11938000Y-9194000D01*
X11888000Y-9144000D02*
X11988000Y-9144000D01*
X11938000Y-9348000D02*
X11938000Y-9448000D01*
X11888000Y-9398000D02*
X11988000Y-9398000D01*
X11938000Y-9602000D02*
X11938000Y-9702000D01*
X11888000Y-9652000D02*
X11988000Y-9652000D01*
X11938000Y-9856000D02*
X11938000Y-9956000D01*
X11888000Y-9906000D02*
X11988000Y-9906000D01*
X11938000Y-10110000D02*
X11938000Y-10210000D01*
X11888000Y-10160000D02*
X11988000Y-10160000D01*
X11938000Y-10364000D02*
X11938000Y-10464000D01*
X11888000Y-10414000D02*
X11988000Y-10414000D01*
X11938000Y-10618000D02*
X11938000Y-10718000D01*
X11888000Y-10668000D02*
X11988000Y-10668000D01*
X11938000Y-10872000D02*
X11938000Y-10972000D01*
X11888000Y-10922000D02*
X11988000Y-10922000D01*
X11938000Y-11126000D02*
X11938000Y-11226000D01*
X11888000Y-11176000D02*
X11988000Y-11176000D01*
X11938000Y-11380000D02*
X11938000Y-11480000D01*
X11888000Y-11430000D02*
X11988000Y-11430000D01*
X11938000Y-11634000D02*
X11938000Y-11734000D01*
X11888000Y-11684000D02*
X11988000Y-11684000D01*
X11938000Y-11888000D02*
X11938000Y-11988000D01*
X11888000Y-11938000D02*
X11988000Y-11938000D01*
X11938000Y-12142000D02*
X11938000Y-12242000D01*
X11888000Y-12192000D02*
X11988000Y-12192000D01*
X11938000Y-12396000D02*
X11938000Y-12496000D01*
X11888000Y-12446000D02*
X11988000Y-12446000D01*
X11938000Y-12650000D02*
X11938000Y-12750000D01*
X11888000Y-12700000D02*
X11988000Y-12700000D01*
X11938000Y-12904000D02*
X11938000Y-13004000D01*
X11888000Y-12954000D02*
X11988000Y-12954000D01*
X12192000Y-9094000D02*
X12192000Y-9194000D01*
X12142000Y-9144000D02*
X12242000Y-9144000D01*
X12192000Y-9348000D02*
X12192000Y-9448000D01*
X12142000Y-9398000D02*
X12242000Y-9398000D01*
X12192000Y-9602000D02*
X12192000Y-9702000D01*
X12142000Y-9652000D02*
X12242000Y-9652000D01*
X12192000Y-9856000D02*
X12192000Y-9956000D01*
X12142000Y-9906000D02*
X12242000Y-9906000D01*
X12192000Y-10110000D02*
X12192000Y-10210000D01*
X12142000Y-10160000D02*
X12242000Y-10160000D01*
X12192000Y-10364000D02*
X12192000Y-10464000D01*
X12142000Y-10414000D02*
X12242000Y-10414000D01*
X12192000Y-10618000D02*
X12192000Y-10718000D01*
X12142000Y-10668000D02*
X12242000Y-10668000D01*
X12192000Y-10872000D02*
X12192000Y-10972000D01*
X12142000Y-10922000D02*
X12242000Y-10922000D01*
X12192000Y-11126000D02*
X12192000Y-11226000D01*
X12142000Y-11176000D02*
X12242000Y-11176000D01*
X12192000Y-11380000D02*
X12192000Y-11480000D01*
X12142000Y-11430000D02*
X12242000Y-11430000D01*
X12192000Y-11634000D02*
X12192000Y-11734000D01*
X12142000Y-11684000D02*
X12242000Y-11684000D01*
X12192000Y-11888000D02*
X12192000Y-11988000D01*
X12142000Y-11938000D02*
X12242000Y-11938000D01*
X12192000Y-12142000D02*
X12192000Y-12242000D01*
X12142000Y-12192000D02*
X12242000Y-12192000D01*
X12192000Y-12396000D02*
X12192000Y-12496000D01*
X12142000Y-12446000D02*
X12242000Y-12446000D01*
X12192000Y-12650000D02*
X12192000Y-12750000D01*
X12142000Y-12700000D02*
X12242000Y-12700000D01*
X12192000Y-12904000D02*
X12192000Y-13004000D01*
X12142000Y-12954000D02*
X12242000Y-12954000D01*
X12446000Y-9094000D02*
X12446000Y-9194000D01*
X12396000Y-9144000D02*
X12496000Y-9144000D01*
X12446000Y-9348000D02*
X12446000Y-9448000D01*
X12396000Y-9398000D02*
X12496000Y-9398000D01*
X12446000Y-9602000D02*
X12446000Y-9702000D01*
X12396000Y-9652000D02*
X12496000Y-9652000D01*
X12446000Y-9856000D02*
X12446000Y-9956000D01*
X12396000Y-9906000D02*
X12496000Y-9906000D01*
X12446000Y-10110000D02*
X12446000Y-10210000D01*
X12396000Y-10160000D02*
X12496000Y-10160000D01*
X12446000Y-10364000D02*
X12446000Y-10464000D01*
X12396000Y-10414000D02*
X12496000Y-10414000D01*
X12446000Y-10618000D02*
X12446000Y-10718000D01*
X12396000Y-10668000D02*
X12496000Y-10668000D01*
X12446000Y-10872000D02*
X12446000Y-10972000D01*
X12396000Y-10922000D02*
X12496000Y-10922000D01*
X12446000Y-11126000D02*
X12446000Y-11226000D01*
X12396000Y-11176000D02*
X12496000Y-11176000D01*
X12446000Y-11380000D02*
X12446000Y-11480000D01*
X12396000Y-11430000D02*
X12496000Y-11430000D01*
X12446000Y-11634000D02*
X12446000Y-11734000D01*
X12396000Y-11684000D02*
X12496000Y-11684000D01*
X12446000Y-11888000D02*
X12446000Y-11988000D01*
X12396000Y-11938000D02*
X12496000Y-11938000D01*
X12446000Y-12142000D02*
X12446000Y-12242000D01*
X12396000Y-12192000D02*
X12496000Y-12192000D01*
X12446000Y-12396000D02*
X12446000Y-12496000D01*
X12396000Y-12446000D02*
X12496000Y-12446000D01*
X12446000Y-12650000D02*
X12446000Y-12750000D01*
X12396000Y-12700000D02*
X12496000Y-12700000D01*
X12446000Y-12904000D02*
X12446000Y-13004000D01*
X12396000Y-12954000D02*
X12496000Y-12954000D01*
X12700000Y-9094000D02*
X12700000Y-9194000D01*
X12650000Y-9144000D02*
X12750000Y-9144000D01*
X12700000Y-9348000D02*
X12700000Y-9448000D01*
X12650000Y-9398000D02*
X12750000Y-9398000D01*
X12700000Y-9602000D02*
X12700000Y-9702000D01*
X12650000Y-9652000D02*
X12750000Y-9652000D01*
X12700000Y-9856000D02*
X12700000Y-9956000D01*
X12650000Y-9906000D02*
X12750000Y-9906000D01*
X12700000Y-10110000D02*
X12700000Y-10210000D01*
X12650000Y-10160000D02*
X12750000Y-10160000D01*
X12700000Y-10364000D02*
X12700000Y-10464000D01*
X12650000Y-10414000D02*
X12750000Y-10414000D01*
X12700000Y-10618000D02*
X12700000Y-10718000D01*
X12650000Y-10668000D02*
X12750000Y-10668000D01*
X12700000Y-10872000D02*
X12700000Y-10972000D01*
X12650000Y-10922000D02*
X12750000Y-10922000D01*
X12700000Y-11126000D02*
X12700000Y-11226000D01*
X12650000Y-11176000D02*
X12750000Y-11176000D01*
X12700000Y-11380000D02*
X12700000Y-11480000D01*
X12650000Y-11430000D02*
X12750000Y-11430000D01*
X12700000Y-11634000D02*
X12700000Y-11734000D01*
X12650000Y-11684000D02*
X12750000Y-11684000D01*
X12700000Y-11888000D02*
X12700000Y-11988000D01*
X12650000Y-11938000D02*
X12750000Y-11938000D01*
X12700000Y-12142000D02*
X12700000Y-12242000D01*
X12650000Y-12192000D02*
X12750000Y-12192000D01*
X12700000Y-12396000D02*
X12700000Y-12496000D01*
X12650000Y-12446000D02*
X12750000Y-12446000D01*
X12700000Y-12650000D02*
X12700000Y-12750000D01*
X12650000Y-12700000D02*
X12750000Y-12700000D01*
X12700000Y-12904000D02*
X12700000Y-13004000D01*
X12650000Y-12954000D02*
X12750000Y-12954000D01*
X12954000Y-9094000D02*
X12954000Y-9194000D01*
X12904000Y-9144000D02*
X13004000Y-9144000D01*
X12954000Y-9348000D02*
X12954000Y-9448000D01*
X12904000Y-9398000D02*
X13004000Y-9398000D01*
X12954000Y-9602000D02*
X12954000Y-9702000D01*
X12904000Y-9652000D02*
X13004000Y-9652000D01*
X12954000Y-9856000D02*
X12954000Y-9956000D01*
X12904000Y-9906000D02*
X13004000Y-9906000D01*
X12954000Y-10110000D02*
X12954000Y-10210000D01*
X12904000Y-10160000D02*
X13004000Y-10160000D01*
X12954000Y-10364000D02*
X12954000Y-10464000D01*
X12904000Y-10414000D02*
X13004000Y-10414000D01*
X12954000Y-10618000D02*
X12954000Y-10718000D01*
X12904000Y-10668000D02*
X13004000Y-10668000D01*
X12954000Y-10872000D02*
X12954000Y-10972000D01*
X12904000Y-10922000D02*
X13004000Y-10922000D01*
X12954000Y-11126000D02*
X12954000Y-11226000D01*
X12904000Y-11176000D02*
X13004000Y-11176000D01*
X12954000Y-11380000D02*
X12954000Y-11480000D01*
X12904000Y-11430000D02*
X13004000Y-11430000D01*
X12954000Y-11634000D02*
X12954000Y-11734000D01*
X12904000Y-11684000D02*
X13004000Y-11684000D01*
X12954000Y-11888000D02*
X12954000Y-11988000D01*
X12904000Y-11938000D02*
X13004000Y-11938000D01*
X12954000Y-12142000D02*
X12954000Y-12242000D01*
X12904000Y-12192000D02*
X13004000Y-12192000D01*
X12954000Y-12396000D02*
X12954000Y-12496000D01*
X12904000Y-12446000D02*
X13004000Y-12446000D01*
X12954000Y-12650000D02*
X12954000Y-12750000D01*
X12904000Y-12700000D02*
X13004000Y-12700000D01*
X12954000Y-12904000D02*
X12954000Y-13004000D01*
X12904000Y-12954000D02*
X13004000Y-12954000D01*
X13208000Y-9094000D02*
X13208000Y-9194000D01*
X13158000Y-9144000D02*
X13258000Y-9144000D01*
X13208000Y-9348000D02*
X13208000Y-9448000D01*
X13158000Y-9398000D02*
X13258000Y-9398000D01*
X13208000Y-9602000D02*
X13208000Y-9702000D01*
X13158000Y-9652000D02*
X13258000Y-9652000D01*
X13208000Y-9856000D02*
X13208000Y-9956000D01*
X13158000Y-9906000D02*
X13258000Y-9906000D01*
X13208000Y-10110000D02*
X13208000Y-10210000D01*
X13158000Y-10160000D02*
X13258000Y-10160000D01*
X13208000Y-10364000D02*
X13208000Y-10464000D01*
X13158000Y-10414000D02*
X13258000Y-10414000D01*
X13208000Y-10618000D02*
X13208000Y-10718000D01*
X13158000Y-10668000D02*
X13258000Y-10668000D01*
X13208000Y-10872000D02*
X13208000Y-10972000D01*
X13158000Y-10922000D02*
X13258000Y-10922000D01*
X13208000Y-11126000D02*
X13208000Y-11226000D01*
X13158000Y-11176000D02*
X13258000Y-11176000D01*
X13208000Y-11380000D02*
X13208000Y-11480000D01*
X13158000Y-11430000D02*
X13258000Y-11430000D01*
X13208000Y-11634000D02*
X13208000Y-11734000D01*
X13158000Y-11684000D02*
X13258000Y-11684000D01*
X13208000Y-11888000D02*
X13208000Y-11988000D01*
X13158000Y-11938000D02*
X13258000Y-11938000D01*
X13208000Y-12142000D02*
X13208000Y-12242000D01*
X13158000Y-12192000D02*
X13258000Y-12192000D01*
X13208000Y-12396000D02*
X13208000Y-12496000D01*
X13158000Y-12446000D02*
X13258000Y-12446000D01*
X13208000Y-12650000D02*
X13208000Y-12750000D01*
X13158000Y-12700000D02*
X13258000Y-12700000D01*
X13208000Y-12904000D02*
X13208000Y-13004000D01*
X13158000Y-12954000D02*
X13258000Y-12954000D01*
X13462000Y-9094000D02*
X13462000Y-9194000D01*
X13412000Y-9144000D02*
X13512000Y-9144000D01*
X13462000Y-9348000D02*
X13462000Y-9448000D01*
X13412000Y-9398000D02*
X13512000Y-9398000D01*
X13462000Y-9602000D02*
X13462000Y-9702000D01*
X13412000Y-9652000D02*
X13512000Y-9652000D01*
X13462000Y-9856000D02*
X13462000Y-9956000D01*
X13412000Y-9906000D02*
X13512000Y-9906000D01*
X13462000Y-10110000D02*
X13462000Y-10210000D01*
X13412000Y-10160000D02*
X13512000Y-10160000D01*
X13462000Y-10364000D02*
X13462000Y-10464000D01*
X13412000Y-10414000D02*
X13512000Y-10414000D01*
X13462000Y-10618000D02*
X13462000Y-10718000D01*
X13412000Y-10668000D02*
X13512000Y-10668000D01*
X13462000Y-10872000D02*
X13462000Y-10972000D01*
X13412000Y-10922000D02*
X13512000Y-10922000D01*
X13462000Y-11126000D02*
X13462000Y-11226000D01*
X13412000Y-11176000D02*
X13512000Y-11176000D01*
X13462000Y-11380000D02*
X13462000Y-11480000D01*
X13412000Y-11430000D02*
X13512000Y-11430000D01*
X13462000Y-11634000D02*
X13462000Y-11734000D01*
X13412000Y-11684000D02*
X13512000Y-11684000D01*
X13462000Y-11888000D02*
X13462000Y-11988000D01*
X13412000Y-11938000D02*
X13512000Y-11938000D01*
X13462000Y-12142000D02*
X13462000Y-12242000D01*
X13412000Y-12192000D02*
X13512000Y-12192000D01*
X13462000Y-12396000D02*
X13462000Y-12496000D01*
X13412000Y-12446000D02*
X13512000Y-12446000D01*
X13462000Y-12650000D02*
X13462000Y-12750000D01*
X13412000Y-12700000D02*
X13512000Y-12700000D01*
X13462000Y-12904000D02*
X13462000Y-13004000D01*
X13412000Y-12954000D02*
X13512000Y-12954000D01*
X13716000Y-9094000D02*
X13716000Y-9194000D01*
X13666000Y-9144000D02*
X13766000Y-9144000D01*
X13716000Y-9348000D02*
X13716000Y-9448000D01*
X13666000Y-9398000D02*
X13766000Y-9398000D01*
X13716000Y-9602000D02*
X13716000Y-9702000D01*
X13666000Y-9652000D02*
X13766000Y-9652000D01*
X13716000Y-9856000D02*
X13716000Y-9956000D01*
X13666000Y-9906000D02*
X13766000Y-9906000D01*
X13716000Y-10110000D02*
X13716000Y-10210000D01*
X13666000Y-10160000D02*
X13766000Y-10160000D01*
X13716000Y-10364000D02*
X13716000Y-10464000D01*
X13666000Y-10414000D02*
X13766000Y-10414000D01*
X13716000Y-10618000D02*
X13716000Y-10718000D01*
X13666000Y-10668000D02*
X13766000Y-10668000D01*
X13716000Y-10872000D02*
X13716000Y-10972000D01*
X13666000Y-10922000D02*
X13766000Y-10922000D01*
X13716000Y-11126000D02*
X13716000Y-11226000D01*
X13666000Y-11176000D02*
X13766000Y-11176000D01*
X13716000Y-11380000D02*
X13716000Y-11480000D01*
X13666000Y-11430000D02*
X13766000Y-11430000D01*
X13716000Y-11634000D02*
X13716000Y-11734000D01*
X13666000Y-11684000D02*
X13766000Y-11684000D01*
X13716000Y-11888000D02*
X13716000Y-11988000D01*
X13666000Y-11938000D02*
X13766000Y-11938000D01*
X13716000Y-12142000D02*
X13716000Y-12242000D01*
X13666000Y-12192000D02*
X13766000Y-12192000D01*
X13716000Y-12396000D02*
X13716000Y-12496000D01*
X13666000Y-12446000D02*
X13766000Y-12446000D01*
X13716000Y-12650000D02*
X13716000Y-12750000D01*
X13666000Y-12700000D02*
X13766000Y-12700000D01*
X13716000Y-12904000D02*
X13716000Y-13004000D01*
X13666000Y-12954000D02*
X13766000Y-12954000D01*
X13970000Y-9094000D02*
X13970000Y-9194000D01*
X13920000Y-9144000D02*
X14020000Y-9144000D01*
X13970000Y-9348000D02*
X13970000Y-9448000D01*
X13920000Y-9398000D02*
X14020000Y-9398000D01*
X13970000Y-9602000D02*
X13970000Y-9702000D01*
X13920000Y-9652000D02*
X14020000Y-9652000D01*
X13970000Y-9856000D02*
X13970000Y-9956000D01*
X13920000Y-9906000D02*
X14020000Y-9906000D01*
X13970000Y-10110000D02*
X13970000Y-10210000D01*
X13920000Y-10160000D02*
X14020000Y-10160000D01*
X13970000Y-10364000D02*
X13970000Y-10464000D01*
X13920000Y-10414000D02*
X14020000Y-10414000D01*
X13970000Y-10618000D02*
X13970000Y-10718000D01*
X13920000Y-10668000D02*
X14020000Y-10668000D01*
X13970000Y-10872000D02*
X13970000Y-10972000D01*
X13920000Y-10922000D02*
X14020000Y-10922000D01*
X13970000Y-11126000D02*
X13970000Y-11226000D01*
X13920000Y-11176000D02*
X14020000Y-11176000D01*
X13970000Y-11380000D02*
X13970000Y-11480000D01*
X13920000Y-11430000D02*
X14020000Y-11430000D01*
X13970000Y-11634000D02*
X13970000Y-11734000D01*
X13920000Y-11684000D02*
X14020000Y-11684000D01*
X13970000Y-11888000D02*
X13970000Y-11988000D01*
X13920000Y-11938000D02*
X14020000Y-11938000D01*
X13970000Y-12142000D02*
X13970000Y-12242000D01*
X13920000Y-12192000D02*
X14020000Y-12192000D01*
X13970000Y-12396000D02*
X13970000Y-12496000D01*
X13920000Y-12446000D02*
X14020000Y-12446000D01*
X13970000Y-12650000D02*
X13970000Y-12750000D01*
X13920000Y-12700000D02*
X14020000Y-12700000D01*
X13970000Y-12904000D02*
X13970000Y-13004000D01*
X13920000Y-12954000D02*
X14020000Y-12954000D01*
X13970000Y-13158000D02*
X13970000Y-13258000D01*
X13920000Y-13208000D02*
X14020000Y-13208000D01*
D11*
X11688277Y-13775984D02*
X11688277Y-13575984D01*
X11688277Y-13575984D02*
X11735896Y-13575984D01*
X11735896Y-13575984D02*
X11764467Y-13585508D01*
X11764467Y-13585508D02*
X11783515Y-13604555D01*
X11783515Y-13604555D02*
X11793039Y-13623603D01*
X11793039Y-13623603D02*
X11802562Y-13661698D01*
X11802562Y-13661698D02*
X11802562Y-13690269D01*
X11802562Y-13690269D02*
X11793039Y-13728365D01*
X11793039Y-13728365D02*
X11783515Y-13747412D01*
X11783515Y-13747412D02*
X11764467Y-13766460D01*
X11764467Y-13766460D02*
X11735896Y-13775984D01*
X11735896Y-13775984D02*
X11688277Y-13775984D01*
X11888277Y-13775984D02*
X11888277Y-13642650D01*
X11888277Y-13680746D02*
X11897801Y-13661698D01*
X11897801Y-13661698D02*
X11907324Y-13652174D01*
X11907324Y-13652174D02*
X11926372Y-13642650D01*
X11926372Y-13642650D02*
X11945420Y-13642650D01*
X12012086Y-13775984D02*
X12012086Y-13642650D01*
X12012086Y-13575984D02*
X12002562Y-13585508D01*
X12002562Y-13585508D02*
X12012086Y-13595031D01*
X12012086Y-13595031D02*
X12021610Y-13585508D01*
X12021610Y-13585508D02*
X12012086Y-13575984D01*
X12012086Y-13575984D02*
X12012086Y-13595031D01*
X12135896Y-13775984D02*
X12116848Y-13766460D01*
X12116848Y-13766460D02*
X12107324Y-13747412D01*
X12107324Y-13747412D02*
X12107324Y-13575984D01*
X12240658Y-13775984D02*
X12221610Y-13766460D01*
X12221610Y-13766460D02*
X12212086Y-13747412D01*
X12212086Y-13747412D02*
X12212086Y-13575984D01*
X12469229Y-13775984D02*
X12469229Y-13575984D01*
X12469229Y-13575984D02*
X12535896Y-13718841D01*
X12535896Y-13718841D02*
X12602562Y-13575984D01*
X12602562Y-13575984D02*
X12602562Y-13775984D01*
X12783515Y-13775984D02*
X12783515Y-13671222D01*
X12783515Y-13671222D02*
X12773991Y-13652174D01*
X12773991Y-13652174D02*
X12754943Y-13642650D01*
X12754943Y-13642650D02*
X12716848Y-13642650D01*
X12716848Y-13642650D02*
X12697801Y-13652174D01*
X12783515Y-13766460D02*
X12764467Y-13775984D01*
X12764467Y-13775984D02*
X12716848Y-13775984D01*
X12716848Y-13775984D02*
X12697801Y-13766460D01*
X12697801Y-13766460D02*
X12688277Y-13747412D01*
X12688277Y-13747412D02*
X12688277Y-13728365D01*
X12688277Y-13728365D02*
X12697801Y-13709317D01*
X12697801Y-13709317D02*
X12716848Y-13699793D01*
X12716848Y-13699793D02*
X12764467Y-13699793D01*
X12764467Y-13699793D02*
X12783515Y-13690269D01*
X12878753Y-13642650D02*
X12878753Y-13842650D01*
X12878753Y-13652174D02*
X12897801Y-13642650D01*
X12897801Y-13642650D02*
X12935896Y-13642650D01*
X12935896Y-13642650D02*
X12954943Y-13652174D01*
X12954943Y-13652174D02*
X12964467Y-13661698D01*
X12964467Y-13661698D02*
X12973991Y-13680746D01*
X12973991Y-13680746D02*
X12973991Y-13737888D01*
X12973991Y-13737888D02*
X12964467Y-13756936D01*
X12964467Y-13756936D02*
X12954943Y-13766460D01*
X12954943Y-13766460D02*
X12935896Y-13775984D01*
X12935896Y-13775984D02*
X12897801Y-13775984D01*
X12897801Y-13775984D02*
X12878753Y-13766460D01*
X13059705Y-13756936D02*
X13069229Y-13766460D01*
X13069229Y-13766460D02*
X13059705Y-13775984D01*
X13059705Y-13775984D02*
X13050182Y-13766460D01*
X13050182Y-13766460D02*
X13059705Y-13756936D01*
X13059705Y-13756936D02*
X13059705Y-13775984D01*
X13059705Y-13652174D02*
X13069229Y-13661698D01*
X13069229Y-13661698D02*
X13059705Y-13671222D01*
X13059705Y-13671222D02*
X13050182Y-13661698D01*
X13050182Y-13661698D02*
X13059705Y-13652174D01*
X13059705Y-13652174D02*
X13059705Y-13671222D01*
D12*
X11397500Y-14089500D02*
X11427500Y-14119500D01*
X11427500Y-14089500D02*
X11397500Y-14119500D01*
D11*
X11726372Y-13995984D02*
X11745420Y-13995984D01*
X11745420Y-13995984D02*
X11764467Y-14005508D01*
X11764467Y-14005508D02*
X11773991Y-14015031D01*
X11773991Y-14015031D02*
X11783515Y-14034079D01*
X11783515Y-14034079D02*
X11793039Y-14072174D01*
X11793039Y-14072174D02*
X11793039Y-14119793D01*
X11793039Y-14119793D02*
X11783515Y-14157888D01*
X11783515Y-14157888D02*
X11773991Y-14176936D01*
X11773991Y-14176936D02*
X11764467Y-14186460D01*
X11764467Y-14186460D02*
X11745420Y-14195984D01*
X11745420Y-14195984D02*
X11726372Y-14195984D01*
X11726372Y-14195984D02*
X11707324Y-14186460D01*
X11707324Y-14186460D02*
X11697801Y-14176936D01*
X11697801Y-14176936D02*
X11688277Y-14157888D01*
X11688277Y-14157888D02*
X11678753Y-14119793D01*
X11678753Y-14119793D02*
X11678753Y-14072174D01*
X11678753Y-14072174D02*
X11688277Y-14034079D01*
X11688277Y-14034079D02*
X11697801Y-14015031D01*
X11697801Y-14015031D02*
X11707324Y-14005508D01*
X11707324Y-14005508D02*
X11726372Y-13995984D01*
X11878753Y-14176936D02*
X11888277Y-14186460D01*
X11888277Y-14186460D02*
X11878753Y-14195984D01*
X11878753Y-14195984D02*
X11869229Y-14186460D01*
X11869229Y-14186460D02*
X11878753Y-14176936D01*
X11878753Y-14176936D02*
X11878753Y-14195984D01*
X11954943Y-13995984D02*
X12078753Y-13995984D01*
X12078753Y-13995984D02*
X12012086Y-14072174D01*
X12012086Y-14072174D02*
X12040658Y-14072174D01*
X12040658Y-14072174D02*
X12059705Y-14081698D01*
X12059705Y-14081698D02*
X12069229Y-14091222D01*
X12069229Y-14091222D02*
X12078753Y-14110269D01*
X12078753Y-14110269D02*
X12078753Y-14157888D01*
X12078753Y-14157888D02*
X12069229Y-14176936D01*
X12069229Y-14176936D02*
X12059705Y-14186460D01*
X12059705Y-14186460D02*
X12040658Y-14195984D01*
X12040658Y-14195984D02*
X11983515Y-14195984D01*
X11983515Y-14195984D02*
X11964467Y-14186460D01*
X11964467Y-14186460D02*
X11954943Y-14176936D01*
X12202562Y-13995984D02*
X12221610Y-13995984D01*
X12221610Y-13995984D02*
X12240658Y-14005508D01*
X12240658Y-14005508D02*
X12250182Y-14015031D01*
X12250182Y-14015031D02*
X12259705Y-14034079D01*
X12259705Y-14034079D02*
X12269229Y-14072174D01*
X12269229Y-14072174D02*
X12269229Y-14119793D01*
X12269229Y-14119793D02*
X12259705Y-14157888D01*
X12259705Y-14157888D02*
X12250182Y-14176936D01*
X12250182Y-14176936D02*
X12240658Y-14186460D01*
X12240658Y-14186460D02*
X12221610Y-14195984D01*
X12221610Y-14195984D02*
X12202562Y-14195984D01*
X12202562Y-14195984D02*
X12183515Y-14186460D01*
X12183515Y-14186460D02*
X12173991Y-14176936D01*
X12173991Y-14176936D02*
X12164467Y-14157888D01*
X12164467Y-14157888D02*
X12154943Y-14119793D01*
X12154943Y-14119793D02*
X12154943Y-14072174D01*
X12154943Y-14072174D02*
X12164467Y-14034079D01*
X12164467Y-14034079D02*
X12173991Y-14015031D01*
X12173991Y-14015031D02*
X12183515Y-14005508D01*
X12183515Y-14005508D02*
X12202562Y-13995984D01*
X12393039Y-13995984D02*
X12412086Y-13995984D01*
X12412086Y-13995984D02*
X12431134Y-14005508D01*
X12431134Y-14005508D02*
X12440658Y-14015031D01*
X12440658Y-14015031D02*
X12450182Y-14034079D01*
X12450182Y-14034079D02*
X12459705Y-14072174D01*
X12459705Y-14072174D02*
X12459705Y-14119793D01*
X12459705Y-14119793D02*
X12450182Y-14157888D01*
X12450182Y-14157888D02*
X12440658Y-14176936D01*
X12440658Y-14176936D02*
X12431134Y-14186460D01*
X12431134Y-14186460D02*
X12412086Y-14195984D01*
X12412086Y-14195984D02*
X12393039Y-14195984D01*
X12393039Y-14195984D02*
X12373991Y-14186460D01*
X12373991Y-14186460D02*
X12364467Y-14176936D01*
X12364467Y-14176936D02*
X12354943Y-14157888D01*
X12354943Y-14157888D02*
X12345420Y-14119793D01*
X12345420Y-14119793D02*
X12345420Y-14072174D01*
X12345420Y-14072174D02*
X12354943Y-14034079D01*
X12354943Y-14034079D02*
X12364467Y-14015031D01*
X12364467Y-14015031D02*
X12373991Y-14005508D01*
X12373991Y-14005508D02*
X12393039Y-13995984D01*
X12545420Y-14195984D02*
X12545420Y-14062650D01*
X12545420Y-14081698D02*
X12554943Y-14072174D01*
X12554943Y-14072174D02*
X12573991Y-14062650D01*
X12573991Y-14062650D02*
X12602563Y-14062650D01*
X12602563Y-14062650D02*
X12621610Y-14072174D01*
X12621610Y-14072174D02*
X12631134Y-14091222D01*
X12631134Y-14091222D02*
X12631134Y-14195984D01*
X12631134Y-14091222D02*
X12640658Y-14072174D01*
X12640658Y-14072174D02*
X12659705Y-14062650D01*
X12659705Y-14062650D02*
X12688277Y-14062650D01*
X12688277Y-14062650D02*
X12707324Y-14072174D01*
X12707324Y-14072174D02*
X12716848Y-14091222D01*
X12716848Y-14091222D02*
X12716848Y-14195984D01*
X12812086Y-14195984D02*
X12812086Y-14062650D01*
X12812086Y-14081698D02*
X12821610Y-14072174D01*
X12821610Y-14072174D02*
X12840658Y-14062650D01*
X12840658Y-14062650D02*
X12869229Y-14062650D01*
X12869229Y-14062650D02*
X12888277Y-14072174D01*
X12888277Y-14072174D02*
X12897801Y-14091222D01*
X12897801Y-14091222D02*
X12897801Y-14195984D01*
X12897801Y-14091222D02*
X12907324Y-14072174D01*
X12907324Y-14072174D02*
X12926372Y-14062650D01*
X12926372Y-14062650D02*
X12954943Y-14062650D01*
X12954943Y-14062650D02*
X12973991Y-14072174D01*
X12973991Y-14072174D02*
X12983515Y-14091222D01*
X12983515Y-14091222D02*
X12983515Y-14195984D01*
X13373991Y-13986460D02*
X13202563Y-14243603D01*
X13631134Y-13995984D02*
X13650182Y-13995984D01*
X13650182Y-13995984D02*
X13669229Y-14005508D01*
X13669229Y-14005508D02*
X13678753Y-14015031D01*
X13678753Y-14015031D02*
X13688277Y-14034079D01*
X13688277Y-14034079D02*
X13697801Y-14072174D01*
X13697801Y-14072174D02*
X13697801Y-14119793D01*
X13697801Y-14119793D02*
X13688277Y-14157888D01*
X13688277Y-14157888D02*
X13678753Y-14176936D01*
X13678753Y-14176936D02*
X13669229Y-14186460D01*
X13669229Y-14186460D02*
X13650182Y-14195984D01*
X13650182Y-14195984D02*
X13631134Y-14195984D01*
X13631134Y-14195984D02*
X13612086Y-14186460D01*
X13612086Y-14186460D02*
X13602563Y-14176936D01*
X13602563Y-14176936D02*
X13593039Y-14157888D01*
X13593039Y-14157888D02*
X13583515Y-14119793D01*
X13583515Y-14119793D02*
X13583515Y-14072174D01*
X13583515Y-14072174D02*
X13593039Y-14034079D01*
X13593039Y-14034079D02*
X13602563Y-14015031D01*
X13602563Y-14015031D02*
X13612086Y-14005508D01*
X13612086Y-14005508D02*
X13631134Y-13995984D01*
X13783515Y-14176936D02*
X13793039Y-14186460D01*
X13793039Y-14186460D02*
X13783515Y-14195984D01*
X13783515Y-14195984D02*
X13773991Y-14186460D01*
X13773991Y-14186460D02*
X13783515Y-14176936D01*
X13783515Y-14176936D02*
X13783515Y-14195984D01*
X13916848Y-13995984D02*
X13935896Y-13995984D01*
X13935896Y-13995984D02*
X13954944Y-14005508D01*
X13954944Y-14005508D02*
X13964467Y-14015031D01*
X13964467Y-14015031D02*
X13973991Y-14034079D01*
X13973991Y-14034079D02*
X13983515Y-14072174D01*
X13983515Y-14072174D02*
X13983515Y-14119793D01*
X13983515Y-14119793D02*
X13973991Y-14157888D01*
X13973991Y-14157888D02*
X13964467Y-14176936D01*
X13964467Y-14176936D02*
X13954944Y-14186460D01*
X13954944Y-14186460D02*
X13935896Y-14195984D01*
X13935896Y-14195984D02*
X13916848Y-14195984D01*
X13916848Y-14195984D02*
X13897801Y-14186460D01*
X13897801Y-14186460D02*
X13888277Y-14176936D01*
X13888277Y-14176936D02*
X13878753Y-14157888D01*
X13878753Y-14157888D02*
X13869229Y-14119793D01*
X13869229Y-14119793D02*
X13869229Y-14072174D01*
X13869229Y-14072174D02*
X13878753Y-14034079D01*
X13878753Y-14034079D02*
X13888277Y-14015031D01*
X13888277Y-14015031D02*
X13897801Y-14005508D01*
X13897801Y-14005508D02*
X13916848Y-13995984D01*
X14173991Y-14195984D02*
X14059706Y-14195984D01*
X14116848Y-14195984D02*
X14116848Y-13995984D01*
X14116848Y-13995984D02*
X14097801Y-14024555D01*
X14097801Y-14024555D02*
X14078753Y-14043603D01*
X14078753Y-14043603D02*
X14059706Y-14053127D01*
X14364467Y-14195984D02*
X14250182Y-14195984D01*
X14307325Y-14195984D02*
X14307325Y-13995984D01*
X14307325Y-13995984D02*
X14288277Y-14024555D01*
X14288277Y-14024555D02*
X14269229Y-14043603D01*
X14269229Y-14043603D02*
X14250182Y-14053127D01*
X14478753Y-14081698D02*
X14459706Y-14072174D01*
X14459706Y-14072174D02*
X14450182Y-14062650D01*
X14450182Y-14062650D02*
X14440658Y-14043603D01*
X14440658Y-14043603D02*
X14440658Y-14034079D01*
X14440658Y-14034079D02*
X14450182Y-14015031D01*
X14450182Y-14015031D02*
X14459706Y-14005508D01*
X14459706Y-14005508D02*
X14478753Y-13995984D01*
X14478753Y-13995984D02*
X14516848Y-13995984D01*
X14516848Y-13995984D02*
X14535896Y-14005508D01*
X14535896Y-14005508D02*
X14545420Y-14015031D01*
X14545420Y-14015031D02*
X14554944Y-14034079D01*
X14554944Y-14034079D02*
X14554944Y-14043603D01*
X14554944Y-14043603D02*
X14545420Y-14062650D01*
X14545420Y-14062650D02*
X14535896Y-14072174D01*
X14535896Y-14072174D02*
X14516848Y-14081698D01*
X14516848Y-14081698D02*
X14478753Y-14081698D01*
X14478753Y-14081698D02*
X14459706Y-14091222D01*
X14459706Y-14091222D02*
X14450182Y-14100746D01*
X14450182Y-14100746D02*
X14440658Y-14119793D01*
X14440658Y-14119793D02*
X14440658Y-14157888D01*
X14440658Y-14157888D02*
X14450182Y-14176936D01*
X14450182Y-14176936D02*
X14459706Y-14186460D01*
X14459706Y-14186460D02*
X14478753Y-14195984D01*
X14478753Y-14195984D02*
X14516848Y-14195984D01*
X14516848Y-14195984D02*
X14535896Y-14186460D01*
X14535896Y-14186460D02*
X14545420Y-14176936D01*
X14545420Y-14176936D02*
X14554944Y-14157888D01*
X14554944Y-14157888D02*
X14554944Y-14119793D01*
X14554944Y-14119793D02*
X14545420Y-14100746D01*
X14545420Y-14100746D02*
X14535896Y-14091222D01*
X14535896Y-14091222D02*
X14516848Y-14081698D01*
X14631134Y-13995984D02*
X14631134Y-14034079D01*
X14707325Y-13995984D02*
X14707325Y-14034079D01*
X15002563Y-14272174D02*
X14993039Y-14262650D01*
X14993039Y-14262650D02*
X14973991Y-14234079D01*
X14973991Y-14234079D02*
X14964468Y-14215031D01*
X14964468Y-14215031D02*
X14954944Y-14186460D01*
X14954944Y-14186460D02*
X14945420Y-14138841D01*
X14945420Y-14138841D02*
X14945420Y-14100746D01*
X14945420Y-14100746D02*
X14954944Y-14053127D01*
X14954944Y-14053127D02*
X14964468Y-14024555D01*
X14964468Y-14024555D02*
X14973991Y-14005508D01*
X14973991Y-14005508D02*
X14993039Y-13976936D01*
X14993039Y-13976936D02*
X15002563Y-13967412D01*
X15088277Y-14195984D02*
X15126372Y-14195984D01*
X15126372Y-14195984D02*
X15145420Y-14186460D01*
X15145420Y-14186460D02*
X15154944Y-14176936D01*
X15154944Y-14176936D02*
X15173991Y-14148365D01*
X15173991Y-14148365D02*
X15183515Y-14110269D01*
X15183515Y-14110269D02*
X15183515Y-14034079D01*
X15183515Y-14034079D02*
X15173991Y-14015031D01*
X15173991Y-14015031D02*
X15164468Y-14005508D01*
X15164468Y-14005508D02*
X15145420Y-13995984D01*
X15145420Y-13995984D02*
X15107325Y-13995984D01*
X15107325Y-13995984D02*
X15088277Y-14005508D01*
X15088277Y-14005508D02*
X15078753Y-14015031D01*
X15078753Y-14015031D02*
X15069229Y-14034079D01*
X15069229Y-14034079D02*
X15069229Y-14081698D01*
X15069229Y-14081698D02*
X15078753Y-14100746D01*
X15078753Y-14100746D02*
X15088277Y-14110269D01*
X15088277Y-14110269D02*
X15107325Y-14119793D01*
X15107325Y-14119793D02*
X15145420Y-14119793D01*
X15145420Y-14119793D02*
X15164468Y-14110269D01*
X15164468Y-14110269D02*
X15173991Y-14100746D01*
X15173991Y-14100746D02*
X15183515Y-14081698D01*
X15421610Y-14195984D02*
X15421610Y-13995984D01*
X15507325Y-14195984D02*
X15507325Y-14091222D01*
X15507325Y-14091222D02*
X15497801Y-14072174D01*
X15497801Y-14072174D02*
X15478753Y-14062650D01*
X15478753Y-14062650D02*
X15450182Y-14062650D01*
X15450182Y-14062650D02*
X15431134Y-14072174D01*
X15431134Y-14072174D02*
X15421610Y-14081698D01*
X15631134Y-14195984D02*
X15612087Y-14186460D01*
X15612087Y-14186460D02*
X15602563Y-14176936D01*
X15602563Y-14176936D02*
X15593039Y-14157888D01*
X15593039Y-14157888D02*
X15593039Y-14100746D01*
X15593039Y-14100746D02*
X15602563Y-14081698D01*
X15602563Y-14081698D02*
X15612087Y-14072174D01*
X15612087Y-14072174D02*
X15631134Y-14062650D01*
X15631134Y-14062650D02*
X15659706Y-14062650D01*
X15659706Y-14062650D02*
X15678753Y-14072174D01*
X15678753Y-14072174D02*
X15688277Y-14081698D01*
X15688277Y-14081698D02*
X15697801Y-14100746D01*
X15697801Y-14100746D02*
X15697801Y-14157888D01*
X15697801Y-14157888D02*
X15688277Y-14176936D01*
X15688277Y-14176936D02*
X15678753Y-14186460D01*
X15678753Y-14186460D02*
X15659706Y-14195984D01*
X15659706Y-14195984D02*
X15631134Y-14195984D01*
X15812087Y-14195984D02*
X15793039Y-14186460D01*
X15793039Y-14186460D02*
X15783515Y-14167412D01*
X15783515Y-14167412D02*
X15783515Y-13995984D01*
X15964468Y-14186460D02*
X15945420Y-14195984D01*
X15945420Y-14195984D02*
X15907325Y-14195984D01*
X15907325Y-14195984D02*
X15888277Y-14186460D01*
X15888277Y-14186460D02*
X15878753Y-14167412D01*
X15878753Y-14167412D02*
X15878753Y-14091222D01*
X15878753Y-14091222D02*
X15888277Y-14072174D01*
X15888277Y-14072174D02*
X15907325Y-14062650D01*
X15907325Y-14062650D02*
X15945420Y-14062650D01*
X15945420Y-14062650D02*
X15964468Y-14072174D01*
X15964468Y-14072174D02*
X15973991Y-14091222D01*
X15973991Y-14091222D02*
X15973991Y-14110269D01*
X15973991Y-14110269D02*
X15878753Y-14129317D01*
X16050182Y-14186460D02*
X16069230Y-14195984D01*
X16069230Y-14195984D02*
X16107325Y-14195984D01*
X16107325Y-14195984D02*
X16126372Y-14186460D01*
X16126372Y-14186460D02*
X16135896Y-14167412D01*
X16135896Y-14167412D02*
X16135896Y-14157888D01*
X16135896Y-14157888D02*
X16126372Y-14138841D01*
X16126372Y-14138841D02*
X16107325Y-14129317D01*
X16107325Y-14129317D02*
X16078753Y-14129317D01*
X16078753Y-14129317D02*
X16059706Y-14119793D01*
X16059706Y-14119793D02*
X16050182Y-14100746D01*
X16050182Y-14100746D02*
X16050182Y-14091222D01*
X16050182Y-14091222D02*
X16059706Y-14072174D01*
X16059706Y-14072174D02*
X16078753Y-14062650D01*
X16078753Y-14062650D02*
X16107325Y-14062650D01*
X16107325Y-14062650D02*
X16126372Y-14072174D01*
X16202563Y-14272174D02*
X16212087Y-14262650D01*
X16212087Y-14262650D02*
X16231134Y-14234079D01*
X16231134Y-14234079D02*
X16240658Y-14215031D01*
X16240658Y-14215031D02*
X16250182Y-14186460D01*
X16250182Y-14186460D02*
X16259706Y-14138841D01*
X16259706Y-14138841D02*
X16259706Y-14100746D01*
X16259706Y-14100746D02*
X16250182Y-14053127D01*
X16250182Y-14053127D02*
X16240658Y-14024555D01*
X16240658Y-14024555D02*
X16231134Y-14005508D01*
X16231134Y-14005508D02*
X16212087Y-13976936D01*
X16212087Y-13976936D02*
X16202563Y-13967412D01*
D12*
X11427500Y-14368500D02*
G75*
G02*
X11347500Y-14368500I-40000J0D01*
G01*
X11347500Y-14368500D02*
G75*
G02*
X11427500Y-14368500I40000J0D01*
G01*
D11*
X11726372Y-14259984D02*
X11745420Y-14259984D01*
X11745420Y-14259984D02*
X11764467Y-14269508D01*
X11764467Y-14269508D02*
X11773991Y-14279031D01*
X11773991Y-14279031D02*
X11783515Y-14298079D01*
X11783515Y-14298079D02*
X11793039Y-14336174D01*
X11793039Y-14336174D02*
X11793039Y-14383793D01*
X11793039Y-14383793D02*
X11783515Y-14421888D01*
X11783515Y-14421888D02*
X11773991Y-14440936D01*
X11773991Y-14440936D02*
X11764467Y-14450460D01*
X11764467Y-14450460D02*
X11745420Y-14459984D01*
X11745420Y-14459984D02*
X11726372Y-14459984D01*
X11726372Y-14459984D02*
X11707324Y-14450460D01*
X11707324Y-14450460D02*
X11697801Y-14440936D01*
X11697801Y-14440936D02*
X11688277Y-14421888D01*
X11688277Y-14421888D02*
X11678753Y-14383793D01*
X11678753Y-14383793D02*
X11678753Y-14336174D01*
X11678753Y-14336174D02*
X11688277Y-14298079D01*
X11688277Y-14298079D02*
X11697801Y-14279031D01*
X11697801Y-14279031D02*
X11707324Y-14269508D01*
X11707324Y-14269508D02*
X11726372Y-14259984D01*
X11878753Y-14440936D02*
X11888277Y-14450460D01*
X11888277Y-14450460D02*
X11878753Y-14459984D01*
X11878753Y-14459984D02*
X11869229Y-14450460D01*
X11869229Y-14450460D02*
X11878753Y-14440936D01*
X11878753Y-14440936D02*
X11878753Y-14459984D01*
X12002562Y-14345698D02*
X11983515Y-14336174D01*
X11983515Y-14336174D02*
X11973991Y-14326650D01*
X11973991Y-14326650D02*
X11964467Y-14307603D01*
X11964467Y-14307603D02*
X11964467Y-14298079D01*
X11964467Y-14298079D02*
X11973991Y-14279031D01*
X11973991Y-14279031D02*
X11983515Y-14269508D01*
X11983515Y-14269508D02*
X12002562Y-14259984D01*
X12002562Y-14259984D02*
X12040658Y-14259984D01*
X12040658Y-14259984D02*
X12059705Y-14269508D01*
X12059705Y-14269508D02*
X12069229Y-14279031D01*
X12069229Y-14279031D02*
X12078753Y-14298079D01*
X12078753Y-14298079D02*
X12078753Y-14307603D01*
X12078753Y-14307603D02*
X12069229Y-14326650D01*
X12069229Y-14326650D02*
X12059705Y-14336174D01*
X12059705Y-14336174D02*
X12040658Y-14345698D01*
X12040658Y-14345698D02*
X12002562Y-14345698D01*
X12002562Y-14345698D02*
X11983515Y-14355222D01*
X11983515Y-14355222D02*
X11973991Y-14364746D01*
X11973991Y-14364746D02*
X11964467Y-14383793D01*
X11964467Y-14383793D02*
X11964467Y-14421888D01*
X11964467Y-14421888D02*
X11973991Y-14440936D01*
X11973991Y-14440936D02*
X11983515Y-14450460D01*
X11983515Y-14450460D02*
X12002562Y-14459984D01*
X12002562Y-14459984D02*
X12040658Y-14459984D01*
X12040658Y-14459984D02*
X12059705Y-14450460D01*
X12059705Y-14450460D02*
X12069229Y-14440936D01*
X12069229Y-14440936D02*
X12078753Y-14421888D01*
X12078753Y-14421888D02*
X12078753Y-14383793D01*
X12078753Y-14383793D02*
X12069229Y-14364746D01*
X12069229Y-14364746D02*
X12059705Y-14355222D01*
X12059705Y-14355222D02*
X12040658Y-14345698D01*
X12202562Y-14259984D02*
X12221610Y-14259984D01*
X12221610Y-14259984D02*
X12240658Y-14269508D01*
X12240658Y-14269508D02*
X12250182Y-14279031D01*
X12250182Y-14279031D02*
X12259705Y-14298079D01*
X12259705Y-14298079D02*
X12269229Y-14336174D01*
X12269229Y-14336174D02*
X12269229Y-14383793D01*
X12269229Y-14383793D02*
X12259705Y-14421888D01*
X12259705Y-14421888D02*
X12250182Y-14440936D01*
X12250182Y-14440936D02*
X12240658Y-14450460D01*
X12240658Y-14450460D02*
X12221610Y-14459984D01*
X12221610Y-14459984D02*
X12202562Y-14459984D01*
X12202562Y-14459984D02*
X12183515Y-14450460D01*
X12183515Y-14450460D02*
X12173991Y-14440936D01*
X12173991Y-14440936D02*
X12164467Y-14421888D01*
X12164467Y-14421888D02*
X12154943Y-14383793D01*
X12154943Y-14383793D02*
X12154943Y-14336174D01*
X12154943Y-14336174D02*
X12164467Y-14298079D01*
X12164467Y-14298079D02*
X12173991Y-14279031D01*
X12173991Y-14279031D02*
X12183515Y-14269508D01*
X12183515Y-14269508D02*
X12202562Y-14259984D01*
X12393039Y-14259984D02*
X12412086Y-14259984D01*
X12412086Y-14259984D02*
X12431134Y-14269508D01*
X12431134Y-14269508D02*
X12440658Y-14279031D01*
X12440658Y-14279031D02*
X12450182Y-14298079D01*
X12450182Y-14298079D02*
X12459705Y-14336174D01*
X12459705Y-14336174D02*
X12459705Y-14383793D01*
X12459705Y-14383793D02*
X12450182Y-14421888D01*
X12450182Y-14421888D02*
X12440658Y-14440936D01*
X12440658Y-14440936D02*
X12431134Y-14450460D01*
X12431134Y-14450460D02*
X12412086Y-14459984D01*
X12412086Y-14459984D02*
X12393039Y-14459984D01*
X12393039Y-14459984D02*
X12373991Y-14450460D01*
X12373991Y-14450460D02*
X12364467Y-14440936D01*
X12364467Y-14440936D02*
X12354943Y-14421888D01*
X12354943Y-14421888D02*
X12345420Y-14383793D01*
X12345420Y-14383793D02*
X12345420Y-14336174D01*
X12345420Y-14336174D02*
X12354943Y-14298079D01*
X12354943Y-14298079D02*
X12364467Y-14279031D01*
X12364467Y-14279031D02*
X12373991Y-14269508D01*
X12373991Y-14269508D02*
X12393039Y-14259984D01*
X12545420Y-14459984D02*
X12545420Y-14326650D01*
X12545420Y-14345698D02*
X12554943Y-14336174D01*
X12554943Y-14336174D02*
X12573991Y-14326650D01*
X12573991Y-14326650D02*
X12602563Y-14326650D01*
X12602563Y-14326650D02*
X12621610Y-14336174D01*
X12621610Y-14336174D02*
X12631134Y-14355222D01*
X12631134Y-14355222D02*
X12631134Y-14459984D01*
X12631134Y-14355222D02*
X12640658Y-14336174D01*
X12640658Y-14336174D02*
X12659705Y-14326650D01*
X12659705Y-14326650D02*
X12688277Y-14326650D01*
X12688277Y-14326650D02*
X12707324Y-14336174D01*
X12707324Y-14336174D02*
X12716848Y-14355222D01*
X12716848Y-14355222D02*
X12716848Y-14459984D01*
X12812086Y-14459984D02*
X12812086Y-14326650D01*
X12812086Y-14345698D02*
X12821610Y-14336174D01*
X12821610Y-14336174D02*
X12840658Y-14326650D01*
X12840658Y-14326650D02*
X12869229Y-14326650D01*
X12869229Y-14326650D02*
X12888277Y-14336174D01*
X12888277Y-14336174D02*
X12897801Y-14355222D01*
X12897801Y-14355222D02*
X12897801Y-14459984D01*
X12897801Y-14355222D02*
X12907324Y-14336174D01*
X12907324Y-14336174D02*
X12926372Y-14326650D01*
X12926372Y-14326650D02*
X12954943Y-14326650D01*
X12954943Y-14326650D02*
X12973991Y-14336174D01*
X12973991Y-14336174D02*
X12983515Y-14355222D01*
X12983515Y-14355222D02*
X12983515Y-14459984D01*
X13373991Y-14250460D02*
X13202563Y-14507603D01*
X13631134Y-14259984D02*
X13650182Y-14259984D01*
X13650182Y-14259984D02*
X13669229Y-14269508D01*
X13669229Y-14269508D02*
X13678753Y-14279031D01*
X13678753Y-14279031D02*
X13688277Y-14298079D01*
X13688277Y-14298079D02*
X13697801Y-14336174D01*
X13697801Y-14336174D02*
X13697801Y-14383793D01*
X13697801Y-14383793D02*
X13688277Y-14421888D01*
X13688277Y-14421888D02*
X13678753Y-14440936D01*
X13678753Y-14440936D02*
X13669229Y-14450460D01*
X13669229Y-14450460D02*
X13650182Y-14459984D01*
X13650182Y-14459984D02*
X13631134Y-14459984D01*
X13631134Y-14459984D02*
X13612086Y-14450460D01*
X13612086Y-14450460D02*
X13602563Y-14440936D01*
X13602563Y-14440936D02*
X13593039Y-14421888D01*
X13593039Y-14421888D02*
X13583515Y-14383793D01*
X13583515Y-14383793D02*
X13583515Y-14336174D01*
X13583515Y-14336174D02*
X13593039Y-14298079D01*
X13593039Y-14298079D02*
X13602563Y-14279031D01*
X13602563Y-14279031D02*
X13612086Y-14269508D01*
X13612086Y-14269508D02*
X13631134Y-14259984D01*
X13783515Y-14440936D02*
X13793039Y-14450460D01*
X13793039Y-14450460D02*
X13783515Y-14459984D01*
X13783515Y-14459984D02*
X13773991Y-14450460D01*
X13773991Y-14450460D02*
X13783515Y-14440936D01*
X13783515Y-14440936D02*
X13783515Y-14459984D01*
X13916848Y-14259984D02*
X13935896Y-14259984D01*
X13935896Y-14259984D02*
X13954944Y-14269508D01*
X13954944Y-14269508D02*
X13964467Y-14279031D01*
X13964467Y-14279031D02*
X13973991Y-14298079D01*
X13973991Y-14298079D02*
X13983515Y-14336174D01*
X13983515Y-14336174D02*
X13983515Y-14383793D01*
X13983515Y-14383793D02*
X13973991Y-14421888D01*
X13973991Y-14421888D02*
X13964467Y-14440936D01*
X13964467Y-14440936D02*
X13954944Y-14450460D01*
X13954944Y-14450460D02*
X13935896Y-14459984D01*
X13935896Y-14459984D02*
X13916848Y-14459984D01*
X13916848Y-14459984D02*
X13897801Y-14450460D01*
X13897801Y-14450460D02*
X13888277Y-14440936D01*
X13888277Y-14440936D02*
X13878753Y-14421888D01*
X13878753Y-14421888D02*
X13869229Y-14383793D01*
X13869229Y-14383793D02*
X13869229Y-14336174D01*
X13869229Y-14336174D02*
X13878753Y-14298079D01*
X13878753Y-14298079D02*
X13888277Y-14279031D01*
X13888277Y-14279031D02*
X13897801Y-14269508D01*
X13897801Y-14269508D02*
X13916848Y-14259984D01*
X14050182Y-14259984D02*
X14173991Y-14259984D01*
X14173991Y-14259984D02*
X14107325Y-14336174D01*
X14107325Y-14336174D02*
X14135896Y-14336174D01*
X14135896Y-14336174D02*
X14154944Y-14345698D01*
X14154944Y-14345698D02*
X14164467Y-14355222D01*
X14164467Y-14355222D02*
X14173991Y-14374269D01*
X14173991Y-14374269D02*
X14173991Y-14421888D01*
X14173991Y-14421888D02*
X14164467Y-14440936D01*
X14164467Y-14440936D02*
X14154944Y-14450460D01*
X14154944Y-14450460D02*
X14135896Y-14459984D01*
X14135896Y-14459984D02*
X14078753Y-14459984D01*
X14078753Y-14459984D02*
X14059706Y-14450460D01*
X14059706Y-14450460D02*
X14050182Y-14440936D01*
X14364467Y-14459984D02*
X14250182Y-14459984D01*
X14307325Y-14459984D02*
X14307325Y-14259984D01*
X14307325Y-14259984D02*
X14288277Y-14288555D01*
X14288277Y-14288555D02*
X14269229Y-14307603D01*
X14269229Y-14307603D02*
X14250182Y-14317127D01*
X14545420Y-14259984D02*
X14450182Y-14259984D01*
X14450182Y-14259984D02*
X14440658Y-14355222D01*
X14440658Y-14355222D02*
X14450182Y-14345698D01*
X14450182Y-14345698D02*
X14469229Y-14336174D01*
X14469229Y-14336174D02*
X14516848Y-14336174D01*
X14516848Y-14336174D02*
X14535896Y-14345698D01*
X14535896Y-14345698D02*
X14545420Y-14355222D01*
X14545420Y-14355222D02*
X14554944Y-14374269D01*
X14554944Y-14374269D02*
X14554944Y-14421888D01*
X14554944Y-14421888D02*
X14545420Y-14440936D01*
X14545420Y-14440936D02*
X14535896Y-14450460D01*
X14535896Y-14450460D02*
X14516848Y-14459984D01*
X14516848Y-14459984D02*
X14469229Y-14459984D01*
X14469229Y-14459984D02*
X14450182Y-14450460D01*
X14450182Y-14450460D02*
X14440658Y-14440936D01*
X14631134Y-14259984D02*
X14631134Y-14298079D01*
X14707325Y-14259984D02*
X14707325Y-14298079D01*
X15002563Y-14536174D02*
X14993039Y-14526650D01*
X14993039Y-14526650D02*
X14973991Y-14498079D01*
X14973991Y-14498079D02*
X14964468Y-14479031D01*
X14964468Y-14479031D02*
X14954944Y-14450460D01*
X14954944Y-14450460D02*
X14945420Y-14402841D01*
X14945420Y-14402841D02*
X14945420Y-14364746D01*
X14945420Y-14364746D02*
X14954944Y-14317127D01*
X14954944Y-14317127D02*
X14964468Y-14288555D01*
X14964468Y-14288555D02*
X14973991Y-14269508D01*
X14973991Y-14269508D02*
X14993039Y-14240936D01*
X14993039Y-14240936D02*
X15002563Y-14231412D01*
X15183515Y-14459984D02*
X15069229Y-14459984D01*
X15126372Y-14459984D02*
X15126372Y-14259984D01*
X15126372Y-14259984D02*
X15107325Y-14288555D01*
X15107325Y-14288555D02*
X15088277Y-14307603D01*
X15088277Y-14307603D02*
X15069229Y-14317127D01*
X15354944Y-14259984D02*
X15316848Y-14259984D01*
X15316848Y-14259984D02*
X15297801Y-14269508D01*
X15297801Y-14269508D02*
X15288277Y-14279031D01*
X15288277Y-14279031D02*
X15269229Y-14307603D01*
X15269229Y-14307603D02*
X15259706Y-14345698D01*
X15259706Y-14345698D02*
X15259706Y-14421888D01*
X15259706Y-14421888D02*
X15269229Y-14440936D01*
X15269229Y-14440936D02*
X15278753Y-14450460D01*
X15278753Y-14450460D02*
X15297801Y-14459984D01*
X15297801Y-14459984D02*
X15335896Y-14459984D01*
X15335896Y-14459984D02*
X15354944Y-14450460D01*
X15354944Y-14450460D02*
X15364468Y-14440936D01*
X15364468Y-14440936D02*
X15373991Y-14421888D01*
X15373991Y-14421888D02*
X15373991Y-14374269D01*
X15373991Y-14374269D02*
X15364468Y-14355222D01*
X15364468Y-14355222D02*
X15354944Y-14345698D01*
X15354944Y-14345698D02*
X15335896Y-14336174D01*
X15335896Y-14336174D02*
X15297801Y-14336174D01*
X15297801Y-14336174D02*
X15278753Y-14345698D01*
X15278753Y-14345698D02*
X15269229Y-14355222D01*
X15269229Y-14355222D02*
X15259706Y-14374269D01*
X15612087Y-14459984D02*
X15612087Y-14259984D01*
X15697801Y-14459984D02*
X15697801Y-14355222D01*
X15697801Y-14355222D02*
X15688277Y-14336174D01*
X15688277Y-14336174D02*
X15669230Y-14326650D01*
X15669230Y-14326650D02*
X15640658Y-14326650D01*
X15640658Y-14326650D02*
X15621610Y-14336174D01*
X15621610Y-14336174D02*
X15612087Y-14345698D01*
X15821610Y-14459984D02*
X15802563Y-14450460D01*
X15802563Y-14450460D02*
X15793039Y-14440936D01*
X15793039Y-14440936D02*
X15783515Y-14421888D01*
X15783515Y-14421888D02*
X15783515Y-14364746D01*
X15783515Y-14364746D02*
X15793039Y-14345698D01*
X15793039Y-14345698D02*
X15802563Y-14336174D01*
X15802563Y-14336174D02*
X15821610Y-14326650D01*
X15821610Y-14326650D02*
X15850182Y-14326650D01*
X15850182Y-14326650D02*
X15869230Y-14336174D01*
X15869230Y-14336174D02*
X15878753Y-14345698D01*
X15878753Y-14345698D02*
X15888277Y-14364746D01*
X15888277Y-14364746D02*
X15888277Y-14421888D01*
X15888277Y-14421888D02*
X15878753Y-14440936D01*
X15878753Y-14440936D02*
X15869230Y-14450460D01*
X15869230Y-14450460D02*
X15850182Y-14459984D01*
X15850182Y-14459984D02*
X15821610Y-14459984D01*
X16002563Y-14459984D02*
X15983515Y-14450460D01*
X15983515Y-14450460D02*
X15973991Y-14431412D01*
X15973991Y-14431412D02*
X15973991Y-14259984D01*
X16154944Y-14450460D02*
X16135896Y-14459984D01*
X16135896Y-14459984D02*
X16097801Y-14459984D01*
X16097801Y-14459984D02*
X16078753Y-14450460D01*
X16078753Y-14450460D02*
X16069230Y-14431412D01*
X16069230Y-14431412D02*
X16069230Y-14355222D01*
X16069230Y-14355222D02*
X16078753Y-14336174D01*
X16078753Y-14336174D02*
X16097801Y-14326650D01*
X16097801Y-14326650D02*
X16135896Y-14326650D01*
X16135896Y-14326650D02*
X16154944Y-14336174D01*
X16154944Y-14336174D02*
X16164468Y-14355222D01*
X16164468Y-14355222D02*
X16164468Y-14374269D01*
X16164468Y-14374269D02*
X16069230Y-14393317D01*
X16240658Y-14450460D02*
X16259706Y-14459984D01*
X16259706Y-14459984D02*
X16297801Y-14459984D01*
X16297801Y-14459984D02*
X16316849Y-14450460D01*
X16316849Y-14450460D02*
X16326372Y-14431412D01*
X16326372Y-14431412D02*
X16326372Y-14421888D01*
X16326372Y-14421888D02*
X16316849Y-14402841D01*
X16316849Y-14402841D02*
X16297801Y-14393317D01*
X16297801Y-14393317D02*
X16269230Y-14393317D01*
X16269230Y-14393317D02*
X16250182Y-14383793D01*
X16250182Y-14383793D02*
X16240658Y-14364746D01*
X16240658Y-14364746D02*
X16240658Y-14355222D01*
X16240658Y-14355222D02*
X16250182Y-14336174D01*
X16250182Y-14336174D02*
X16269230Y-14326650D01*
X16269230Y-14326650D02*
X16297801Y-14326650D01*
X16297801Y-14326650D02*
X16316849Y-14336174D01*
X16393039Y-14536174D02*
X16402563Y-14526650D01*
X16402563Y-14526650D02*
X16421611Y-14498079D01*
X16421611Y-14498079D02*
X16431134Y-14479031D01*
X16431134Y-14479031D02*
X16440658Y-14450460D01*
X16440658Y-14450460D02*
X16450182Y-14402841D01*
X16450182Y-14402841D02*
X16450182Y-14364746D01*
X16450182Y-14364746D02*
X16440658Y-14317127D01*
X16440658Y-14317127D02*
X16431134Y-14288555D01*
X16431134Y-14288555D02*
X16421611Y-14269508D01*
X16421611Y-14269508D02*
X16402563Y-14240936D01*
X16402563Y-14240936D02*
X16393039Y-14231412D01*
D12*
X11377500Y-14582500D02*
X11377500Y-14682500D01*
X11327500Y-14632500D02*
X11427500Y-14632500D01*
D11*
X11793039Y-14723984D02*
X11678753Y-14723984D01*
X11735896Y-14723984D02*
X11735896Y-14523984D01*
X11735896Y-14523984D02*
X11716848Y-14552555D01*
X11716848Y-14552555D02*
X11697801Y-14571603D01*
X11697801Y-14571603D02*
X11678753Y-14581127D01*
X11878753Y-14704936D02*
X11888277Y-14714460D01*
X11888277Y-14714460D02*
X11878753Y-14723984D01*
X11878753Y-14723984D02*
X11869229Y-14714460D01*
X11869229Y-14714460D02*
X11878753Y-14704936D01*
X11878753Y-14704936D02*
X11878753Y-14723984D01*
X12012086Y-14523984D02*
X12031134Y-14523984D01*
X12031134Y-14523984D02*
X12050182Y-14533508D01*
X12050182Y-14533508D02*
X12059705Y-14543031D01*
X12059705Y-14543031D02*
X12069229Y-14562079D01*
X12069229Y-14562079D02*
X12078753Y-14600174D01*
X12078753Y-14600174D02*
X12078753Y-14647793D01*
X12078753Y-14647793D02*
X12069229Y-14685888D01*
X12069229Y-14685888D02*
X12059705Y-14704936D01*
X12059705Y-14704936D02*
X12050182Y-14714460D01*
X12050182Y-14714460D02*
X12031134Y-14723984D01*
X12031134Y-14723984D02*
X12012086Y-14723984D01*
X12012086Y-14723984D02*
X11993039Y-14714460D01*
X11993039Y-14714460D02*
X11983515Y-14704936D01*
X11983515Y-14704936D02*
X11973991Y-14685888D01*
X11973991Y-14685888D02*
X11964467Y-14647793D01*
X11964467Y-14647793D02*
X11964467Y-14600174D01*
X11964467Y-14600174D02*
X11973991Y-14562079D01*
X11973991Y-14562079D02*
X11983515Y-14543031D01*
X11983515Y-14543031D02*
X11993039Y-14533508D01*
X11993039Y-14533508D02*
X12012086Y-14523984D01*
X12202562Y-14523984D02*
X12221610Y-14523984D01*
X12221610Y-14523984D02*
X12240658Y-14533508D01*
X12240658Y-14533508D02*
X12250182Y-14543031D01*
X12250182Y-14543031D02*
X12259705Y-14562079D01*
X12259705Y-14562079D02*
X12269229Y-14600174D01*
X12269229Y-14600174D02*
X12269229Y-14647793D01*
X12269229Y-14647793D02*
X12259705Y-14685888D01*
X12259705Y-14685888D02*
X12250182Y-14704936D01*
X12250182Y-14704936D02*
X12240658Y-14714460D01*
X12240658Y-14714460D02*
X12221610Y-14723984D01*
X12221610Y-14723984D02*
X12202562Y-14723984D01*
X12202562Y-14723984D02*
X12183515Y-14714460D01*
X12183515Y-14714460D02*
X12173991Y-14704936D01*
X12173991Y-14704936D02*
X12164467Y-14685888D01*
X12164467Y-14685888D02*
X12154943Y-14647793D01*
X12154943Y-14647793D02*
X12154943Y-14600174D01*
X12154943Y-14600174D02*
X12164467Y-14562079D01*
X12164467Y-14562079D02*
X12173991Y-14543031D01*
X12173991Y-14543031D02*
X12183515Y-14533508D01*
X12183515Y-14533508D02*
X12202562Y-14523984D01*
X12393039Y-14523984D02*
X12412086Y-14523984D01*
X12412086Y-14523984D02*
X12431134Y-14533508D01*
X12431134Y-14533508D02*
X12440658Y-14543031D01*
X12440658Y-14543031D02*
X12450182Y-14562079D01*
X12450182Y-14562079D02*
X12459705Y-14600174D01*
X12459705Y-14600174D02*
X12459705Y-14647793D01*
X12459705Y-14647793D02*
X12450182Y-14685888D01*
X12450182Y-14685888D02*
X12440658Y-14704936D01*
X12440658Y-14704936D02*
X12431134Y-14714460D01*
X12431134Y-14714460D02*
X12412086Y-14723984D01*
X12412086Y-14723984D02*
X12393039Y-14723984D01*
X12393039Y-14723984D02*
X12373991Y-14714460D01*
X12373991Y-14714460D02*
X12364467Y-14704936D01*
X12364467Y-14704936D02*
X12354943Y-14685888D01*
X12354943Y-14685888D02*
X12345420Y-14647793D01*
X12345420Y-14647793D02*
X12345420Y-14600174D01*
X12345420Y-14600174D02*
X12354943Y-14562079D01*
X12354943Y-14562079D02*
X12364467Y-14543031D01*
X12364467Y-14543031D02*
X12373991Y-14533508D01*
X12373991Y-14533508D02*
X12393039Y-14523984D01*
X12545420Y-14723984D02*
X12545420Y-14590650D01*
X12545420Y-14609698D02*
X12554943Y-14600174D01*
X12554943Y-14600174D02*
X12573991Y-14590650D01*
X12573991Y-14590650D02*
X12602563Y-14590650D01*
X12602563Y-14590650D02*
X12621610Y-14600174D01*
X12621610Y-14600174D02*
X12631134Y-14619222D01*
X12631134Y-14619222D02*
X12631134Y-14723984D01*
X12631134Y-14619222D02*
X12640658Y-14600174D01*
X12640658Y-14600174D02*
X12659705Y-14590650D01*
X12659705Y-14590650D02*
X12688277Y-14590650D01*
X12688277Y-14590650D02*
X12707324Y-14600174D01*
X12707324Y-14600174D02*
X12716848Y-14619222D01*
X12716848Y-14619222D02*
X12716848Y-14723984D01*
X12812086Y-14723984D02*
X12812086Y-14590650D01*
X12812086Y-14609698D02*
X12821610Y-14600174D01*
X12821610Y-14600174D02*
X12840658Y-14590650D01*
X12840658Y-14590650D02*
X12869229Y-14590650D01*
X12869229Y-14590650D02*
X12888277Y-14600174D01*
X12888277Y-14600174D02*
X12897801Y-14619222D01*
X12897801Y-14619222D02*
X12897801Y-14723984D01*
X12897801Y-14619222D02*
X12907324Y-14600174D01*
X12907324Y-14600174D02*
X12926372Y-14590650D01*
X12926372Y-14590650D02*
X12954943Y-14590650D01*
X12954943Y-14590650D02*
X12973991Y-14600174D01*
X12973991Y-14600174D02*
X12983515Y-14619222D01*
X12983515Y-14619222D02*
X12983515Y-14723984D01*
X13373991Y-14514460D02*
X13202563Y-14771603D01*
X13631134Y-14523984D02*
X13650182Y-14523984D01*
X13650182Y-14523984D02*
X13669229Y-14533508D01*
X13669229Y-14533508D02*
X13678753Y-14543031D01*
X13678753Y-14543031D02*
X13688277Y-14562079D01*
X13688277Y-14562079D02*
X13697801Y-14600174D01*
X13697801Y-14600174D02*
X13697801Y-14647793D01*
X13697801Y-14647793D02*
X13688277Y-14685888D01*
X13688277Y-14685888D02*
X13678753Y-14704936D01*
X13678753Y-14704936D02*
X13669229Y-14714460D01*
X13669229Y-14714460D02*
X13650182Y-14723984D01*
X13650182Y-14723984D02*
X13631134Y-14723984D01*
X13631134Y-14723984D02*
X13612086Y-14714460D01*
X13612086Y-14714460D02*
X13602563Y-14704936D01*
X13602563Y-14704936D02*
X13593039Y-14685888D01*
X13593039Y-14685888D02*
X13583515Y-14647793D01*
X13583515Y-14647793D02*
X13583515Y-14600174D01*
X13583515Y-14600174D02*
X13593039Y-14562079D01*
X13593039Y-14562079D02*
X13602563Y-14543031D01*
X13602563Y-14543031D02*
X13612086Y-14533508D01*
X13612086Y-14533508D02*
X13631134Y-14523984D01*
X13783515Y-14704936D02*
X13793039Y-14714460D01*
X13793039Y-14714460D02*
X13783515Y-14723984D01*
X13783515Y-14723984D02*
X13773991Y-14714460D01*
X13773991Y-14714460D02*
X13783515Y-14704936D01*
X13783515Y-14704936D02*
X13783515Y-14723984D01*
X13916848Y-14523984D02*
X13935896Y-14523984D01*
X13935896Y-14523984D02*
X13954944Y-14533508D01*
X13954944Y-14533508D02*
X13964467Y-14543031D01*
X13964467Y-14543031D02*
X13973991Y-14562079D01*
X13973991Y-14562079D02*
X13983515Y-14600174D01*
X13983515Y-14600174D02*
X13983515Y-14647793D01*
X13983515Y-14647793D02*
X13973991Y-14685888D01*
X13973991Y-14685888D02*
X13964467Y-14704936D01*
X13964467Y-14704936D02*
X13954944Y-14714460D01*
X13954944Y-14714460D02*
X13935896Y-14723984D01*
X13935896Y-14723984D02*
X13916848Y-14723984D01*
X13916848Y-14723984D02*
X13897801Y-14714460D01*
X13897801Y-14714460D02*
X13888277Y-14704936D01*
X13888277Y-14704936D02*
X13878753Y-14685888D01*
X13878753Y-14685888D02*
X13869229Y-14647793D01*
X13869229Y-14647793D02*
X13869229Y-14600174D01*
X13869229Y-14600174D02*
X13878753Y-14562079D01*
X13878753Y-14562079D02*
X13888277Y-14543031D01*
X13888277Y-14543031D02*
X13897801Y-14533508D01*
X13897801Y-14533508D02*
X13916848Y-14523984D01*
X14050182Y-14523984D02*
X14173991Y-14523984D01*
X14173991Y-14523984D02*
X14107325Y-14600174D01*
X14107325Y-14600174D02*
X14135896Y-14600174D01*
X14135896Y-14600174D02*
X14154944Y-14609698D01*
X14154944Y-14609698D02*
X14164467Y-14619222D01*
X14164467Y-14619222D02*
X14173991Y-14638269D01*
X14173991Y-14638269D02*
X14173991Y-14685888D01*
X14173991Y-14685888D02*
X14164467Y-14704936D01*
X14164467Y-14704936D02*
X14154944Y-14714460D01*
X14154944Y-14714460D02*
X14135896Y-14723984D01*
X14135896Y-14723984D02*
X14078753Y-14723984D01*
X14078753Y-14723984D02*
X14059706Y-14714460D01*
X14059706Y-14714460D02*
X14050182Y-14704936D01*
X14269229Y-14723984D02*
X14307325Y-14723984D01*
X14307325Y-14723984D02*
X14326372Y-14714460D01*
X14326372Y-14714460D02*
X14335896Y-14704936D01*
X14335896Y-14704936D02*
X14354944Y-14676365D01*
X14354944Y-14676365D02*
X14364467Y-14638269D01*
X14364467Y-14638269D02*
X14364467Y-14562079D01*
X14364467Y-14562079D02*
X14354944Y-14543031D01*
X14354944Y-14543031D02*
X14345420Y-14533508D01*
X14345420Y-14533508D02*
X14326372Y-14523984D01*
X14326372Y-14523984D02*
X14288277Y-14523984D01*
X14288277Y-14523984D02*
X14269229Y-14533508D01*
X14269229Y-14533508D02*
X14259706Y-14543031D01*
X14259706Y-14543031D02*
X14250182Y-14562079D01*
X14250182Y-14562079D02*
X14250182Y-14609698D01*
X14250182Y-14609698D02*
X14259706Y-14628746D01*
X14259706Y-14628746D02*
X14269229Y-14638269D01*
X14269229Y-14638269D02*
X14288277Y-14647793D01*
X14288277Y-14647793D02*
X14326372Y-14647793D01*
X14326372Y-14647793D02*
X14345420Y-14638269D01*
X14345420Y-14638269D02*
X14354944Y-14628746D01*
X14354944Y-14628746D02*
X14364467Y-14609698D01*
X14535896Y-14590650D02*
X14535896Y-14723984D01*
X14488277Y-14514460D02*
X14440658Y-14657317D01*
X14440658Y-14657317D02*
X14564467Y-14657317D01*
X14631134Y-14523984D02*
X14631134Y-14562079D01*
X14707325Y-14523984D02*
X14707325Y-14562079D01*
X15002563Y-14800174D02*
X14993039Y-14790650D01*
X14993039Y-14790650D02*
X14973991Y-14762079D01*
X14973991Y-14762079D02*
X14964468Y-14743031D01*
X14964468Y-14743031D02*
X14954944Y-14714460D01*
X14954944Y-14714460D02*
X14945420Y-14666841D01*
X14945420Y-14666841D02*
X14945420Y-14628746D01*
X14945420Y-14628746D02*
X14954944Y-14581127D01*
X14954944Y-14581127D02*
X14964468Y-14552555D01*
X14964468Y-14552555D02*
X14973991Y-14533508D01*
X14973991Y-14533508D02*
X14993039Y-14504936D01*
X14993039Y-14504936D02*
X15002563Y-14495412D01*
X15183515Y-14723984D02*
X15069229Y-14723984D01*
X15126372Y-14723984D02*
X15126372Y-14523984D01*
X15126372Y-14523984D02*
X15107325Y-14552555D01*
X15107325Y-14552555D02*
X15088277Y-14571603D01*
X15088277Y-14571603D02*
X15069229Y-14581127D01*
X15354944Y-14523984D02*
X15316848Y-14523984D01*
X15316848Y-14523984D02*
X15297801Y-14533508D01*
X15297801Y-14533508D02*
X15288277Y-14543031D01*
X15288277Y-14543031D02*
X15269229Y-14571603D01*
X15269229Y-14571603D02*
X15259706Y-14609698D01*
X15259706Y-14609698D02*
X15259706Y-14685888D01*
X15259706Y-14685888D02*
X15269229Y-14704936D01*
X15269229Y-14704936D02*
X15278753Y-14714460D01*
X15278753Y-14714460D02*
X15297801Y-14723984D01*
X15297801Y-14723984D02*
X15335896Y-14723984D01*
X15335896Y-14723984D02*
X15354944Y-14714460D01*
X15354944Y-14714460D02*
X15364468Y-14704936D01*
X15364468Y-14704936D02*
X15373991Y-14685888D01*
X15373991Y-14685888D02*
X15373991Y-14638269D01*
X15373991Y-14638269D02*
X15364468Y-14619222D01*
X15364468Y-14619222D02*
X15354944Y-14609698D01*
X15354944Y-14609698D02*
X15335896Y-14600174D01*
X15335896Y-14600174D02*
X15297801Y-14600174D01*
X15297801Y-14600174D02*
X15278753Y-14609698D01*
X15278753Y-14609698D02*
X15269229Y-14619222D01*
X15269229Y-14619222D02*
X15259706Y-14638269D01*
X15450182Y-14543031D02*
X15459706Y-14533508D01*
X15459706Y-14533508D02*
X15478753Y-14523984D01*
X15478753Y-14523984D02*
X15526372Y-14523984D01*
X15526372Y-14523984D02*
X15545420Y-14533508D01*
X15545420Y-14533508D02*
X15554944Y-14543031D01*
X15554944Y-14543031D02*
X15564468Y-14562079D01*
X15564468Y-14562079D02*
X15564468Y-14581127D01*
X15564468Y-14581127D02*
X15554944Y-14609698D01*
X15554944Y-14609698D02*
X15440658Y-14723984D01*
X15440658Y-14723984D02*
X15564468Y-14723984D01*
X15802563Y-14723984D02*
X15802563Y-14523984D01*
X15888277Y-14723984D02*
X15888277Y-14619222D01*
X15888277Y-14619222D02*
X15878753Y-14600174D01*
X15878753Y-14600174D02*
X15859706Y-14590650D01*
X15859706Y-14590650D02*
X15831134Y-14590650D01*
X15831134Y-14590650D02*
X15812087Y-14600174D01*
X15812087Y-14600174D02*
X15802563Y-14609698D01*
X16012087Y-14723984D02*
X15993039Y-14714460D01*
X15993039Y-14714460D02*
X15983515Y-14704936D01*
X15983515Y-14704936D02*
X15973991Y-14685888D01*
X15973991Y-14685888D02*
X15973991Y-14628746D01*
X15973991Y-14628746D02*
X15983515Y-14609698D01*
X15983515Y-14609698D02*
X15993039Y-14600174D01*
X15993039Y-14600174D02*
X16012087Y-14590650D01*
X16012087Y-14590650D02*
X16040658Y-14590650D01*
X16040658Y-14590650D02*
X16059706Y-14600174D01*
X16059706Y-14600174D02*
X16069230Y-14609698D01*
X16069230Y-14609698D02*
X16078753Y-14628746D01*
X16078753Y-14628746D02*
X16078753Y-14685888D01*
X16078753Y-14685888D02*
X16069230Y-14704936D01*
X16069230Y-14704936D02*
X16059706Y-14714460D01*
X16059706Y-14714460D02*
X16040658Y-14723984D01*
X16040658Y-14723984D02*
X16012087Y-14723984D01*
X16193039Y-14723984D02*
X16173991Y-14714460D01*
X16173991Y-14714460D02*
X16164468Y-14695412D01*
X16164468Y-14695412D02*
X16164468Y-14523984D01*
X16345420Y-14714460D02*
X16326372Y-14723984D01*
X16326372Y-14723984D02*
X16288277Y-14723984D01*
X16288277Y-14723984D02*
X16269230Y-14714460D01*
X16269230Y-14714460D02*
X16259706Y-14695412D01*
X16259706Y-14695412D02*
X16259706Y-14619222D01*
X16259706Y-14619222D02*
X16269230Y-14600174D01*
X16269230Y-14600174D02*
X16288277Y-14590650D01*
X16288277Y-14590650D02*
X16326372Y-14590650D01*
X16326372Y-14590650D02*
X16345420Y-14600174D01*
X16345420Y-14600174D02*
X16354944Y-14619222D01*
X16354944Y-14619222D02*
X16354944Y-14638269D01*
X16354944Y-14638269D02*
X16259706Y-14657317D01*
X16431134Y-14714460D02*
X16450182Y-14723984D01*
X16450182Y-14723984D02*
X16488277Y-14723984D01*
X16488277Y-14723984D02*
X16507325Y-14714460D01*
X16507325Y-14714460D02*
X16516849Y-14695412D01*
X16516849Y-14695412D02*
X16516849Y-14685888D01*
X16516849Y-14685888D02*
X16507325Y-14666841D01*
X16507325Y-14666841D02*
X16488277Y-14657317D01*
X16488277Y-14657317D02*
X16459706Y-14657317D01*
X16459706Y-14657317D02*
X16440658Y-14647793D01*
X16440658Y-14647793D02*
X16431134Y-14628746D01*
X16431134Y-14628746D02*
X16431134Y-14619222D01*
X16431134Y-14619222D02*
X16440658Y-14600174D01*
X16440658Y-14600174D02*
X16459706Y-14590650D01*
X16459706Y-14590650D02*
X16488277Y-14590650D01*
X16488277Y-14590650D02*
X16507325Y-14600174D01*
X16583515Y-14800174D02*
X16593039Y-14790650D01*
X16593039Y-14790650D02*
X16612087Y-14762079D01*
X16612087Y-14762079D02*
X16621611Y-14743031D01*
X16621611Y-14743031D02*
X16631134Y-14714460D01*
X16631134Y-14714460D02*
X16640658Y-14666841D01*
X16640658Y-14666841D02*
X16640658Y-14628746D01*
X16640658Y-14628746D02*
X16631134Y-14581127D01*
X16631134Y-14581127D02*
X16621611Y-14552555D01*
X16621611Y-14552555D02*
X16612087Y-14533508D01*
X16612087Y-14533508D02*
X16593039Y-14504936D01*
X16593039Y-14504936D02*
X16583515Y-14495412D01*
M02*
