M48
; DRILL file {KiCad 8.0.8-unknown-202501220024~e4ff452ffb~ubuntu24.04.1} date 2025-01-26T15:01:51-0500
; FORMAT={-:-/ absolute / inch / decimal}
; #@! TF.CreationDate,2025-01-26T15:01:51-05:00
; #@! TF.GenerationSoftware,Kicad,Pcbnew,8.0.8-unknown-202501220024~e4ff452ffb~ubuntu24.04.1
; #@! TF.FileFunction,Plated,1,2,PTH
FMAT,2
INCH
; #@! TA.AperFunction,Plated,PTH,ViaDrill
T1C0.0118
; #@! TA.AperFunction,Plated,PTH,ComponentDrill
T2C0.0315
; #@! TA.AperFunction,Plated,PTH,ComponentDrill
T3C0.0394
%
G90
G05
T1
X3.675Y-1.95
X3.675Y-2.9
X3.725Y-2.05
X3.725Y-2.925
X3.725Y-3.325
X3.725Y-3.4
X3.775Y-2.225
X3.85Y-2.7
X3.85Y-3.425
X3.9Y-2.6
X3.9Y-3.375
X3.95Y-2.675
X3.95Y-3.2
X4.0Y-2.225
X4.025Y-2.8
X4.025Y-3.275
X4.1Y-2.55
X4.1Y-3.125
X4.15Y-2.5
X4.15Y-3.075
X4.2Y-2.225
X4.2Y-2.45
X4.2Y-3.025
X4.2Y-3.175
X4.2Y-3.325
X4.2Y-3.475
X4.6Y-2.675
X4.725Y-2.0
X4.725Y-3.625
X4.775Y-2.3
X4.775Y-3.025
X4.825Y-2.2
X4.825Y-2.9
X4.825Y-2.975
X4.9Y-2.2
X4.9Y-2.8
X4.95Y-3.25
X5.075Y-2.6
X5.175Y-2.1
X5.175Y-2.35
X5.175Y-3.225
X5.2Y-2.6
X5.25Y-2.3
X5.25Y-2.55
X5.3Y-2.05
X5.3Y-2.65
X5.525Y-2.3
X5.525Y-3.025
X5.525Y-3.475
X5.575Y-2.6
X5.575Y-2.975
X5.575Y-3.425
X5.875Y-2.05
X5.875Y-2.5
X5.925Y-2.15
X5.925Y-3.175
X5.975Y-2.2
X5.975Y-3.125
X6.025Y-2.0
X6.025Y-2.15
X6.025Y-2.3
X6.025Y-2.7
X6.075Y-2.1
X6.075Y-3.575
X6.125Y-1.9
X6.125Y-3.025
X6.125Y-3.375
X6.375Y-2.725
X6.375Y-2.85
X6.4Y-1.6
X6.4Y-1.725
T2
X4.3Y-1.6
X4.3Y-1.7
X4.3Y-1.8
X4.3Y-1.9
X4.3Y-2.0
X4.3Y-2.1
X4.3Y-2.2
X4.3Y-2.3
X4.3Y-3.025
X4.3Y-3.125
X4.3Y-3.225
X4.3Y-3.325
X4.3Y-3.425
X4.3Y-3.525
X4.3Y-3.625
X4.6Y-1.6
X4.6Y-1.7
X4.6Y-1.8
X4.6Y-1.9
X4.6Y-2.0
X4.6Y-2.1
X4.6Y-2.2
X4.6Y-2.3
X4.6Y-3.025
X4.6Y-3.125
X4.6Y-3.225
X4.6Y-3.325
X4.6Y-3.425
X4.6Y-3.525
X4.6Y-3.625
X5.4Y-2.1
X5.4Y-2.2
X5.4Y-2.3
X5.4Y-2.4
X5.4Y-2.5
X5.4Y-2.6
X5.4Y-2.7
X5.4Y-2.8
X5.7Y-2.1
X5.7Y-2.2
X5.7Y-2.3
X5.7Y-2.4
X5.7Y-2.5
X5.7Y-2.6
X5.7Y-2.7
X5.7Y-2.8
X6.3Y-1.9
X6.3Y-2.0
X6.3Y-2.1
X6.3Y-2.2
X6.3Y-2.3
X6.3Y-2.4
X6.3Y-2.5
X6.3Y-3.025
X6.3Y-3.125
X6.3Y-3.225
X6.3Y-3.325
X6.3Y-3.425
X6.3Y-3.525
X6.3Y-3.625
X6.6Y-1.9
X6.6Y-2.0
X6.6Y-2.1
X6.6Y-2.2
X6.6Y-2.3
X6.6Y-2.4
X6.6Y-2.5
X6.6Y-3.025
X6.6Y-3.125
X6.6Y-3.225
X6.6Y-3.325
X6.6Y-3.425
X6.6Y-3.525
X6.6Y-3.625
T3
X3.5Y-1.6
X3.5Y-1.7
X3.5Y-1.8
X3.5Y-1.9
X3.5Y-2.0
X3.5Y-2.1
X3.5Y-2.2
X3.5Y-2.3
X3.5Y-2.4
X3.5Y-2.5
X3.5Y-2.6
X3.5Y-2.7
X3.5Y-2.8
X3.5Y-2.9
X3.5Y-3.0
X3.5Y-3.1
X3.5Y-3.2
X3.5Y-3.3
X3.5Y-3.4
X3.5Y-3.5
X3.5Y-3.6
X3.5Y-3.7
M30
