%TF.GenerationSoftware,KiCad,Pcbnew,8.0.8-unknown-202501220024~e4ff452ffb~ubuntu24.04.1*%
%TF.CreationDate,2025-01-26T15:18:26-05:00*%
%TF.ProjectId,stack module,73746163-6b20-46d6-9f64-756c652e6b69,v01*%
%TF.SameCoordinates,Original*%
%TF.FileFunction,Soldermask,Bot*%
%TF.FilePolarity,Negative*%
%FSLAX46Y46*%
G04 Gerber Fmt 4.6, Leading zero omitted, Abs format (unit mm)*
G04 Created by KiCad (PCBNEW 8.0.8-unknown-202501220024~e4ff452ffb~ubuntu24.04.1) date 2025-01-26 15:18:26*
%MOMM*%
%LPD*%
G01*
G04 APERTURE LIST*
%ADD10R,2.400000X1.600000*%
%ADD11O,2.400000X1.600000*%
%ADD12R,1.700000X1.700000*%
%ADD13O,1.700000X1.700000*%
G04 APERTURE END LIST*
D10*
%TO.C,U2*%
X160020000Y-48260000D03*
D11*
X160020000Y-50800000D03*
X160020000Y-53340000D03*
X160020000Y-55880000D03*
X160020000Y-58420000D03*
X160020000Y-60960000D03*
X160020000Y-63500000D03*
X167640000Y-63500000D03*
X167640000Y-60960000D03*
X167640000Y-58420000D03*
X167640000Y-55880000D03*
X167640000Y-53340000D03*
X167640000Y-50800000D03*
X167640000Y-48260000D03*
%TD*%
D10*
%TO.C,U1*%
X109220000Y-76835000D03*
D11*
X109220000Y-79375000D03*
X109220000Y-81915000D03*
X109220000Y-84455000D03*
X109220000Y-86995000D03*
X109220000Y-89535000D03*
X109220000Y-92075000D03*
X116840000Y-92075000D03*
X116840000Y-89535000D03*
X116840000Y-86995000D03*
X116840000Y-84455000D03*
X116840000Y-81915000D03*
X116840000Y-79375000D03*
X116840000Y-76835000D03*
%TD*%
D10*
%TO.C,U3*%
X116840000Y-58420000D03*
D11*
X116840000Y-55880000D03*
X116840000Y-53340000D03*
X116840000Y-50800000D03*
X116840000Y-48260000D03*
X116840000Y-45720000D03*
X116840000Y-43180000D03*
X116840000Y-40640000D03*
X109220000Y-40640000D03*
X109220000Y-43180000D03*
X109220000Y-45720000D03*
X109220000Y-48260000D03*
X109220000Y-50800000D03*
X109220000Y-53340000D03*
X109220000Y-55880000D03*
X109220000Y-58420000D03*
%TD*%
D10*
%TO.C,U5*%
X160020000Y-76835000D03*
D11*
X160020000Y-79375000D03*
X160020000Y-81915000D03*
X160020000Y-84455000D03*
X160020000Y-86995000D03*
X160020000Y-89535000D03*
X160020000Y-92075000D03*
X167640000Y-92075000D03*
X167640000Y-89535000D03*
X167640000Y-86995000D03*
X167640000Y-84455000D03*
X167640000Y-81915000D03*
X167640000Y-79375000D03*
X167640000Y-76835000D03*
%TD*%
D12*
%TO.C,J22*%
X88900000Y-40640000D03*
D13*
X88900000Y-43180000D03*
X88900000Y-45720000D03*
X88900000Y-48260000D03*
X88900000Y-50800000D03*
X88900000Y-53340000D03*
X88900000Y-55880000D03*
X88900000Y-58420000D03*
X88900000Y-60960000D03*
X88900000Y-63500000D03*
X88900000Y-66040000D03*
X88900000Y-68580000D03*
X88900000Y-71120000D03*
X88900000Y-73660000D03*
X88900000Y-76200000D03*
X88900000Y-78740000D03*
X88900000Y-81280000D03*
X88900000Y-83820000D03*
X88900000Y-86360000D03*
X88900000Y-88900000D03*
X88900000Y-91440000D03*
X88900000Y-93980000D03*
%TD*%
D10*
%TO.C,U4*%
X144780000Y-71120000D03*
D11*
X144780000Y-68580000D03*
X144780000Y-66040000D03*
X144780000Y-63500000D03*
X144780000Y-60960000D03*
X144780000Y-58420000D03*
X144780000Y-55880000D03*
X144780000Y-53340000D03*
X137160000Y-53340000D03*
X137160000Y-55880000D03*
X137160000Y-58420000D03*
X137160000Y-60960000D03*
X137160000Y-63500000D03*
X137160000Y-66040000D03*
X137160000Y-68580000D03*
X137160000Y-71120000D03*
%TD*%
M02*
