%TF.GenerationSoftware,KiCad,Pcbnew,8.0.8-unknown-202501220024~e4ff452ffb~ubuntu24.04.1*%
%TF.CreationDate,2025-01-26T15:18:26-05:00*%
%TF.ProjectId,stack module,73746163-6b20-46d6-9f64-756c652e6b69,v01*%
%TF.SameCoordinates,Original*%
%TF.FileFunction,Copper,L2,Bot*%
%TF.FilePolarity,Positive*%
%FSLAX46Y46*%
G04 Gerber Fmt 4.6, Leading zero omitted, Abs format (unit mm)*
G04 Created by KiCad (PCBNEW 8.0.8-unknown-202501220024~e4ff452ffb~ubuntu24.04.1) date 2025-01-26 15:18:26*
%MOMM*%
%LPD*%
G01*
G04 APERTURE LIST*
%TA.AperFunction,ComponentPad*%
%ADD10R,2.400000X1.600000*%
%TD*%
%TA.AperFunction,ComponentPad*%
%ADD11O,2.400000X1.600000*%
%TD*%
%TA.AperFunction,ComponentPad*%
%ADD12R,1.700000X1.700000*%
%TD*%
%TA.AperFunction,ComponentPad*%
%ADD13O,1.700000X1.700000*%
%TD*%
%TA.AperFunction,ViaPad*%
%ADD14C,0.600000*%
%TD*%
%TA.AperFunction,Conductor*%
%ADD15C,0.200000*%
%TD*%
%TA.AperFunction,Conductor*%
%ADD16C,0.406400*%
%TD*%
G04 APERTURE END LIST*
D10*
%TO.P,U2,1,~{R}*%
%TO.N,RESET*%
X160020000Y-48260000D03*
D11*
%TO.P,U2,2,D*%
%TO.N,DS0_IN*%
X160020000Y-50800000D03*
%TO.P,U2,3,C*%
%TO.N,DS0_CLK*%
X160020000Y-53340000D03*
%TO.P,U2,4,~{S}*%
%TO.N,VDD*%
X160020000Y-55880000D03*
%TO.P,U2,5,Q*%
%TO.N,DS0_OUT*%
X160020000Y-58420000D03*
%TO.P,U2,6,~{Q}*%
%TO.N,unconnected-(U2A-~{Q}-Pad6)*%
X160020000Y-60960000D03*
%TO.P,U2,7,GND*%
%TO.N,GND*%
X160020000Y-63500000D03*
%TO.P,U2,8,~{Q}*%
%TO.N,unconnected-(U2B-~{Q}-Pad8)*%
X167640000Y-63500000D03*
%TO.P,U2,9,Q*%
%TO.N,DS1_OUT*%
X167640000Y-60960000D03*
%TO.P,U2,10,~{S}*%
%TO.N,VDD*%
X167640000Y-58420000D03*
%TO.P,U2,11,C*%
%TO.N,DS1_CLK*%
X167640000Y-55880000D03*
%TO.P,U2,12,D*%
%TO.N,DS1_IN*%
X167640000Y-53340000D03*
%TO.P,U2,13,~{R}*%
%TO.N,RESET*%
X167640000Y-50800000D03*
%TO.P,U2,14,VCC*%
%TO.N,VDD*%
X167640000Y-48260000D03*
%TD*%
D10*
%TO.P,U1,1*%
%TO.N,CLOCKPULSE*%
X109220000Y-76835000D03*
D11*
%TO.P,U1,2*%
%TO.N,DS2CLK_EN*%
X109220000Y-79375000D03*
%TO.P,U1,3*%
%TO.N,DS2_CLK*%
X109220000Y-81915000D03*
%TO.P,U1,4*%
%TO.N,CLOCKPULSE*%
X109220000Y-84455000D03*
%TO.P,U1,5*%
%TO.N,DS0CLK_EN*%
X109220000Y-86995000D03*
%TO.P,U1,6*%
%TO.N,DS0_CLK*%
X109220000Y-89535000D03*
%TO.P,U1,7,GND*%
%TO.N,GND*%
X109220000Y-92075000D03*
%TO.P,U1,8*%
%TO.N,DS1_CLK*%
X116840000Y-92075000D03*
%TO.P,U1,9*%
%TO.N,CLOCKPULSE*%
X116840000Y-89535000D03*
%TO.P,U1,10*%
%TO.N,DS1CLK_EN*%
X116840000Y-86995000D03*
%TO.P,U1,11*%
%TO.N,DS3_CLK*%
X116840000Y-84455000D03*
%TO.P,U1,12*%
%TO.N,CLOCKPULSE*%
X116840000Y-81915000D03*
%TO.P,U1,13*%
%TO.N,DS3CLK_EN*%
X116840000Y-79375000D03*
%TO.P,U1,14,VCC*%
%TO.N,VDD*%
X116840000Y-76835000D03*
%TD*%
D10*
%TO.P,U3,1,I3*%
%TO.N,DS3_OUT*%
X116840000Y-58420000D03*
D11*
%TO.P,U3,2,I2*%
%TO.N,DS2_OUT*%
X116840000Y-55880000D03*
%TO.P,U3,3,I1*%
%TO.N,DS1_OUT*%
X116840000Y-53340000D03*
%TO.P,U3,4,I0*%
%TO.N,DS0_OUT*%
X116840000Y-50800000D03*
%TO.P,U3,5,Z*%
%TO.N,DS0_IN*%
X116840000Y-48260000D03*
%TO.P,U3,6,~{Z}*%
%TO.N,unconnected-(U3-~{Z}-Pad6)*%
X116840000Y-45720000D03*
%TO.P,U3,7,~{E}*%
%TO.N,GND*%
X116840000Y-43180000D03*
%TO.P,U3,8,GND*%
X116840000Y-40640000D03*
%TO.P,U3,9,S2*%
%TO.N,S2*%
X109220000Y-40640000D03*
%TO.P,U3,10,S1*%
%TO.N,S1*%
X109220000Y-43180000D03*
%TO.P,U3,11,S0*%
%TO.N,S0*%
X109220000Y-45720000D03*
%TO.P,U3,12,I7*%
%TO.N,INPUT3*%
X109220000Y-48260000D03*
%TO.P,U3,13,I6*%
%TO.N,INPUT2*%
X109220000Y-50800000D03*
%TO.P,U3,14,I5*%
%TO.N,INPUT1*%
X109220000Y-53340000D03*
%TO.P,U3,15,I4*%
%TO.N,INPUT0*%
X109220000Y-55880000D03*
%TO.P,U3,16,VCC*%
%TO.N,VDD*%
X109220000Y-58420000D03*
%TD*%
D10*
%TO.P,U5,1,~{R}*%
%TO.N,RESET*%
X160020000Y-76835000D03*
D11*
%TO.P,U5,2,D*%
%TO.N,DS2_IN*%
X160020000Y-79375000D03*
%TO.P,U5,3,C*%
%TO.N,DS2_CLK*%
X160020000Y-81915000D03*
%TO.P,U5,4,~{S}*%
%TO.N,VDD*%
X160020000Y-84455000D03*
%TO.P,U5,5,Q*%
%TO.N,DS2_OUT*%
X160020000Y-86995000D03*
%TO.P,U5,6,~{Q}*%
%TO.N,unconnected-(U5A-~{Q}-Pad6)*%
X160020000Y-89535000D03*
%TO.P,U5,7,GND*%
%TO.N,GND*%
X160020000Y-92075000D03*
%TO.P,U5,8,~{Q}*%
%TO.N,unconnected-(U5B-~{Q}-Pad8)*%
X167640000Y-92075000D03*
%TO.P,U5,9,Q*%
%TO.N,DS3_OUT*%
X167640000Y-89535000D03*
%TO.P,U5,10,~{S}*%
%TO.N,VDD*%
X167640000Y-86995000D03*
%TO.P,U5,11,C*%
%TO.N,DS3_CLK*%
X167640000Y-84455000D03*
%TO.P,U5,12,D*%
%TO.N,DS3_IN*%
X167640000Y-81915000D03*
%TO.P,U5,13,~{R}*%
%TO.N,RESET*%
X167640000Y-79375000D03*
%TO.P,U5,14,VCC*%
%TO.N,VDD*%
X167640000Y-76835000D03*
%TD*%
D12*
%TO.P,J22,1,Pin_1*%
%TO.N,S2*%
X88900000Y-40640000D03*
D13*
%TO.P,J22,2,Pin_2*%
%TO.N,S1*%
X88900000Y-43180000D03*
%TO.P,J22,3,Pin_3*%
%TO.N,S0*%
X88900000Y-45720000D03*
%TO.P,J22,4,Pin_4*%
%TO.N,INPUT3*%
X88900000Y-48260000D03*
%TO.P,J22,5,Pin_5*%
%TO.N,INPUT2*%
X88900000Y-50800000D03*
%TO.P,J22,6,Pin_6*%
%TO.N,INPUT1*%
X88900000Y-53340000D03*
%TO.P,J22,7,Pin_7*%
%TO.N,INPUT0*%
X88900000Y-55880000D03*
%TO.P,J22,8,Pin_8*%
%TO.N,CLOCKPULSE*%
X88900000Y-58420000D03*
%TO.P,J22,9,Pin_9*%
%TO.N,DS3CLK_EN*%
X88900000Y-60960000D03*
%TO.P,J22,10,Pin_10*%
%TO.N,DS2CLK_EN*%
X88900000Y-63500000D03*
%TO.P,J22,11,Pin_11*%
%TO.N,DS1CLK_EN*%
X88900000Y-66040000D03*
%TO.P,J22,12,Pin_12*%
%TO.N,DS0CLK_EN*%
X88900000Y-68580000D03*
%TO.P,J22,13,Pin_13*%
%TO.N,UPDOWN*%
X88900000Y-71120000D03*
%TO.P,J22,14,Pin_14*%
%TO.N,DS0_OUT*%
X88900000Y-73660000D03*
%TO.P,J22,15,Pin_15*%
%TO.N,DS1_OUT*%
X88900000Y-76200000D03*
%TO.P,J22,16,Pin_16*%
%TO.N,DS2_OUT*%
X88900000Y-78740000D03*
%TO.P,J22,17,Pin_17*%
%TO.N,DS3_OUT*%
X88900000Y-81280000D03*
%TO.P,J22,18,Pin_18*%
%TO.N,BOTTOM*%
X88900000Y-83820000D03*
%TO.P,J22,19,Pin_19*%
%TO.N,RESET*%
X88900000Y-86360000D03*
%TO.P,J22,20,Pin_20*%
%TO.N,VDD*%
X88900000Y-88900000D03*
%TO.P,J22,21,Pin_21*%
%TO.N,GND*%
X88900000Y-91440000D03*
%TO.P,J22,22,Pin_22*%
X88900000Y-93980000D03*
%TD*%
D10*
%TO.P,U4,1,S*%
%TO.N,UPDOWN*%
X144780000Y-71120000D03*
D11*
%TO.P,U4,2,I0a*%
%TO.N,DS0_OUT*%
X144780000Y-68580000D03*
%TO.P,U4,3,I1a*%
%TO.N,DS2_OUT*%
X144780000Y-66040000D03*
%TO.P,U4,4,Za*%
%TO.N,DS1_IN*%
X144780000Y-63500000D03*
%TO.P,U4,5,I0b*%
%TO.N,DS1_OUT*%
X144780000Y-60960000D03*
%TO.P,U4,6,I1b*%
%TO.N,DS3_OUT*%
X144780000Y-58420000D03*
%TO.P,U4,7,Zb*%
%TO.N,DS2_IN*%
X144780000Y-55880000D03*
%TO.P,U4,8,GND*%
%TO.N,GND*%
X144780000Y-53340000D03*
%TO.P,U4,9,Zc*%
%TO.N,DS3_IN*%
X137160000Y-53340000D03*
%TO.P,U4,10,I1c*%
%TO.N,BOTTOM*%
X137160000Y-55880000D03*
%TO.P,U4,11,I0c*%
%TO.N,DS2_OUT*%
X137160000Y-58420000D03*
%TO.P,U4,12,Zd*%
%TO.N,unconnected-(U4-Zd-Pad12)*%
X137160000Y-60960000D03*
%TO.P,U4,13,I1d*%
%TO.N,GND*%
X137160000Y-63500000D03*
%TO.P,U4,14,I0d*%
X137160000Y-66040000D03*
%TO.P,U4,15,E*%
X137160000Y-68580000D03*
%TO.P,U4,16,VCC*%
%TO.N,VDD*%
X137160000Y-71120000D03*
%TD*%
D14*
%TO.N,RESET*%
X94615000Y-86360000D03*
X155575000Y-76835000D03*
X155575000Y-85725000D03*
X94615000Y-84455000D03*
X155575000Y-48260000D03*
%TO.N,CLOCKPULSE*%
X106680000Y-62230000D03*
X106680000Y-84455000D03*
X106680000Y-80645000D03*
X106680000Y-76835000D03*
X106680000Y-88265000D03*
%TO.N,DS3CLK_EN*%
X105410000Y-78105000D03*
X105410000Y-63500000D03*
%TO.N,GND*%
X161925000Y-72390000D03*
X161925000Y-69215000D03*
X95885000Y-56515000D03*
X162560000Y-40640000D03*
X128905000Y-66040000D03*
X131445000Y-81915000D03*
X101600000Y-56515000D03*
X132080000Y-66040000D03*
X125730000Y-82550000D03*
X106680000Y-56515000D03*
X162560000Y-43815000D03*
%TO.N,DS1CLK_EN*%
X99060000Y-85725000D03*
X99060000Y-66040000D03*
%TO.N,DS0CLK_EN*%
X97790000Y-68580000D03*
X97790000Y-86995000D03*
%TO.N,DS2CLK_EN*%
X104140000Y-79375000D03*
X104140000Y-64770000D03*
%TO.N,DS3_OUT*%
X121285000Y-58420000D03*
X140335000Y-88265000D03*
X100330000Y-67945000D03*
X100330000Y-81280000D03*
X116840000Y-67945000D03*
X140335000Y-76835000D03*
X140335000Y-58420000D03*
X121285000Y-76835000D03*
%TO.N,DS2_OUT*%
X122555000Y-73660000D03*
X141605000Y-86995000D03*
X141605000Y-75565000D03*
X122555000Y-75565000D03*
X141605000Y-66040000D03*
X133350000Y-58420000D03*
X122555000Y-55880000D03*
X133350000Y-64770000D03*
%TO.N,DS1_OUT*%
X131445000Y-53340000D03*
X131445000Y-59690000D03*
X94615000Y-74295000D03*
X94615000Y-52070000D03*
%TO.N,BOTTOM*%
X124460000Y-71120000D03*
X102235000Y-71120000D03*
X102235000Y-83185000D03*
X124460000Y-55880000D03*
%TO.N,DS0_OUT*%
X93345000Y-49530000D03*
X153035000Y-68580000D03*
X134620000Y-52070000D03*
X153035000Y-58420000D03*
X134620000Y-67310000D03*
X93345000Y-73660000D03*
%TO.N,DS0_CLK*%
X154305000Y-53340000D03*
X154305000Y-90805000D03*
%TO.N,DS1_IN*%
X149225000Y-52070000D03*
X149225000Y-63500000D03*
%TO.N,DS1_CLK*%
X120015000Y-50800000D03*
X153035000Y-50800000D03*
X153035000Y-54610000D03*
X120015000Y-92075000D03*
%TO.N,DS2_IN*%
X151765000Y-79375000D03*
X151765000Y-55880000D03*
%TO.N,DS3_IN*%
X150495000Y-80645000D03*
X150495000Y-54610000D03*
%TD*%
D15*
%TO.N,RESET*%
X155575000Y-48260000D02*
X155575000Y-76835000D01*
X155575000Y-85725000D02*
X155575000Y-76835000D01*
X94615000Y-84455000D02*
X94615000Y-86360000D01*
%TO.N,CLOCKPULSE*%
X106680000Y-84455000D02*
X106680000Y-80645000D01*
X106680000Y-62230000D02*
X106680000Y-76835000D01*
X106680000Y-88265000D02*
X106680000Y-84455000D01*
X106680000Y-80645000D02*
X106680000Y-76835000D01*
%TO.N,DS3CLK_EN*%
X105410000Y-78105000D02*
X105410000Y-63500000D01*
%TO.N,DS1CLK_EN*%
X99060000Y-85725000D02*
X99060000Y-66040000D01*
%TO.N,DS0CLK_EN*%
X97790000Y-86995000D02*
X97790000Y-68580000D01*
%TO.N,DS2CLK_EN*%
X104140000Y-79375000D02*
X104140000Y-64770000D01*
%TO.N,DS3_OUT*%
X140335000Y-58420000D02*
X140335000Y-76835000D01*
X100330000Y-67945000D02*
X100330000Y-81280000D01*
X121285000Y-76835000D02*
X121285000Y-58420000D01*
X116840000Y-58420000D02*
X116840000Y-67945000D01*
X140335000Y-88265000D02*
X140335000Y-76835000D01*
%TO.N,DS2_OUT*%
X141605000Y-86995000D02*
X141605000Y-75565000D01*
X133350000Y-58420000D02*
X133350000Y-64770000D01*
X122555000Y-75565000D02*
X122555000Y-73660000D01*
X122555000Y-73660000D02*
X122555000Y-55880000D01*
X141605000Y-66040000D02*
X141605000Y-75565000D01*
%TO.N,DS1_OUT*%
X131445000Y-53340000D02*
X131445000Y-59690000D01*
X94615000Y-74295000D02*
X94615000Y-52070000D01*
%TO.N,BOTTOM*%
X124460000Y-55880000D02*
X124460000Y-71120000D01*
X102235000Y-71120000D02*
X102235000Y-83185000D01*
%TO.N,DS0_OUT*%
X153035000Y-68580000D02*
X153035000Y-58420000D01*
X93345000Y-49530000D02*
X93345000Y-73660000D01*
X134620000Y-67310000D02*
X134620000Y-52070000D01*
D16*
%TO.N,VDD*%
X104140000Y-92075000D02*
X107315000Y-95250000D01*
X167640000Y-86995000D02*
X163830000Y-86995000D01*
X137160000Y-71120000D02*
X137160000Y-95250000D01*
X107315000Y-95250000D02*
X137160000Y-95250000D01*
X160020000Y-84455000D02*
X163830000Y-84455000D01*
X113030000Y-95250000D02*
X113030000Y-59690000D01*
X163830000Y-84455000D02*
X163830000Y-76835000D01*
X163830000Y-95250000D02*
X163830000Y-86995000D01*
X113030000Y-76835000D02*
X116840000Y-76835000D01*
X88900000Y-88900000D02*
X103505000Y-88900000D01*
X103505000Y-88900000D02*
X104140000Y-89535000D01*
X163830000Y-76835000D02*
X163830000Y-58420000D01*
X163830000Y-55880000D02*
X163830000Y-49530000D01*
X160020000Y-55880000D02*
X163830000Y-55880000D01*
X113030000Y-59690000D02*
X111760000Y-58420000D01*
X111760000Y-58420000D02*
X109220000Y-58420000D01*
X165100000Y-48260000D02*
X167640000Y-48260000D01*
X137160000Y-95250000D02*
X163830000Y-95250000D01*
X163830000Y-58420000D02*
X163830000Y-55880000D01*
X163830000Y-76835000D02*
X167640000Y-76835000D01*
X163830000Y-86995000D02*
X163830000Y-84455000D01*
X163830000Y-49530000D02*
X165100000Y-48260000D01*
X167640000Y-58420000D02*
X163830000Y-58420000D01*
X104140000Y-89535000D02*
X104140000Y-92075000D01*
D15*
%TO.N,DS0_CLK*%
X154305000Y-53340000D02*
X154305000Y-90805000D01*
%TO.N,DS1_IN*%
X149225000Y-52070000D02*
X149225000Y-63500000D01*
%TO.N,DS1_CLK*%
X120015000Y-50800000D02*
X120015000Y-92075000D01*
X153035000Y-50800000D02*
X153035000Y-54610000D01*
%TO.N,DS2_IN*%
X151765000Y-79375000D02*
X151765000Y-55880000D01*
%TO.N,DS3_IN*%
X150495000Y-80645000D02*
X150495000Y-54610000D01*
%TD*%
%TA.AperFunction,Conductor*%
%TO.N,GND*%
G36*
X89150000Y-93546988D02*
G01*
X89092993Y-93514075D01*
X88965826Y-93480000D01*
X88834174Y-93480000D01*
X88707007Y-93514075D01*
X88650000Y-93546988D01*
X88650000Y-91873012D01*
X88707007Y-91905925D01*
X88834174Y-91940000D01*
X88965826Y-91940000D01*
X89092993Y-91905925D01*
X89150000Y-91873012D01*
X89150000Y-93546988D01*
G37*
%TD.AperFunction*%
%TA.AperFunction,Conductor*%
G36*
X137410000Y-68264314D02*
G01*
X137405606Y-68259920D01*
X137314394Y-68207259D01*
X137212661Y-68180000D01*
X137107339Y-68180000D01*
X137005606Y-68207259D01*
X136914394Y-68259920D01*
X136910000Y-68264314D01*
X136910000Y-66355686D01*
X136914394Y-66360080D01*
X137005606Y-66412741D01*
X137107339Y-66440000D01*
X137212661Y-66440000D01*
X137314394Y-66412741D01*
X137405606Y-66360080D01*
X137410000Y-66355686D01*
X137410000Y-68264314D01*
G37*
%TD.AperFunction*%
%TA.AperFunction,Conductor*%
G36*
X137410000Y-65724314D02*
G01*
X137405606Y-65719920D01*
X137314394Y-65667259D01*
X137212661Y-65640000D01*
X137107339Y-65640000D01*
X137005606Y-65667259D01*
X136914394Y-65719920D01*
X136910000Y-65724314D01*
X136910000Y-63815686D01*
X136914394Y-63820080D01*
X137005606Y-63872741D01*
X137107339Y-63900000D01*
X137212661Y-63900000D01*
X137314394Y-63872741D01*
X137405606Y-63820080D01*
X137410000Y-63815686D01*
X137410000Y-65724314D01*
G37*
%TD.AperFunction*%
%TA.AperFunction,Conductor*%
G36*
X117090000Y-42864314D02*
G01*
X117085606Y-42859920D01*
X116994394Y-42807259D01*
X116892661Y-42780000D01*
X116787339Y-42780000D01*
X116685606Y-42807259D01*
X116594394Y-42859920D01*
X116590000Y-42864314D01*
X116590000Y-40955686D01*
X116594394Y-40960080D01*
X116685606Y-41012741D01*
X116787339Y-41040000D01*
X116892661Y-41040000D01*
X116994394Y-41012741D01*
X117085606Y-40960080D01*
X117090000Y-40955686D01*
X117090000Y-42864314D01*
G37*
%TD.AperFunction*%
%TA.AperFunction,Conductor*%
G36*
X173115039Y-36214685D02*
G01*
X173160794Y-36267489D01*
X173172000Y-36319000D01*
X173172000Y-97666000D01*
X173152315Y-97733039D01*
X173099511Y-97778794D01*
X173048000Y-97790000D01*
X85214000Y-97790000D01*
X85146961Y-97770315D01*
X85101206Y-97717511D01*
X85090000Y-97666000D01*
X85090000Y-43179999D01*
X87544341Y-43179999D01*
X87544341Y-43180000D01*
X87564936Y-43415403D01*
X87564938Y-43415413D01*
X87626094Y-43643655D01*
X87626096Y-43643659D01*
X87626097Y-43643663D01*
X87642679Y-43679223D01*
X87725965Y-43857830D01*
X87725967Y-43857834D01*
X87861501Y-44051395D01*
X87861506Y-44051402D01*
X88028597Y-44218493D01*
X88028603Y-44218498D01*
X88214158Y-44348425D01*
X88257783Y-44403002D01*
X88264977Y-44472500D01*
X88233454Y-44534855D01*
X88214158Y-44551575D01*
X88028597Y-44681505D01*
X87861505Y-44848597D01*
X87725965Y-45042169D01*
X87725964Y-45042171D01*
X87626098Y-45256335D01*
X87626094Y-45256344D01*
X87564938Y-45484586D01*
X87564936Y-45484596D01*
X87544341Y-45719999D01*
X87544341Y-45720000D01*
X87564936Y-45955403D01*
X87564938Y-45955413D01*
X87626094Y-46183655D01*
X87626096Y-46183659D01*
X87626097Y-46183663D01*
X87642679Y-46219223D01*
X87725965Y-46397830D01*
X87725967Y-46397834D01*
X87861501Y-46591395D01*
X87861506Y-46591402D01*
X88028597Y-46758493D01*
X88028603Y-46758498D01*
X88214158Y-46888425D01*
X88257783Y-46943002D01*
X88264977Y-47012500D01*
X88233454Y-47074855D01*
X88214158Y-47091575D01*
X88028597Y-47221505D01*
X87861505Y-47388597D01*
X87725965Y-47582169D01*
X87725964Y-47582171D01*
X87626098Y-47796335D01*
X87626094Y-47796344D01*
X87564938Y-48024586D01*
X87564936Y-48024596D01*
X87544341Y-48259999D01*
X87544341Y-48260000D01*
X87564936Y-48495403D01*
X87564938Y-48495413D01*
X87626094Y-48723655D01*
X87626096Y-48723659D01*
X87626097Y-48723663D01*
X87675582Y-48829783D01*
X87725965Y-48937830D01*
X87725967Y-48937834D01*
X87861501Y-49131395D01*
X87861506Y-49131402D01*
X88028597Y-49298493D01*
X88028603Y-49298498D01*
X88214158Y-49428425D01*
X88257783Y-49483002D01*
X88264977Y-49552500D01*
X88233454Y-49614855D01*
X88214158Y-49631575D01*
X88028597Y-49761505D01*
X87861505Y-49928597D01*
X87725965Y-50122169D01*
X87725964Y-50122171D01*
X87626098Y-50336335D01*
X87626094Y-50336344D01*
X87564938Y-50564586D01*
X87564936Y-50564596D01*
X87544341Y-50799999D01*
X87544341Y-50800000D01*
X87564936Y-51035403D01*
X87564938Y-51035413D01*
X87626094Y-51263655D01*
X87626096Y-51263659D01*
X87626097Y-51263663D01*
X87675582Y-51369783D01*
X87725965Y-51477830D01*
X87725967Y-51477834D01*
X87861501Y-51671395D01*
X87861506Y-51671402D01*
X88028597Y-51838493D01*
X88028603Y-51838498D01*
X88214158Y-51968425D01*
X88257783Y-52023002D01*
X88264977Y-52092500D01*
X88233454Y-52154855D01*
X88214158Y-52171575D01*
X88028597Y-52301505D01*
X87861505Y-52468597D01*
X87725965Y-52662169D01*
X87725964Y-52662171D01*
X87626098Y-52876335D01*
X87626094Y-52876344D01*
X87564938Y-53104586D01*
X87564936Y-53104596D01*
X87544341Y-53339999D01*
X87544341Y-53340000D01*
X87564936Y-53575403D01*
X87564938Y-53575413D01*
X87626094Y-53803655D01*
X87626096Y-53803659D01*
X87626097Y-53803663D01*
X87675582Y-53909783D01*
X87725965Y-54017830D01*
X87725967Y-54017834D01*
X87861501Y-54211395D01*
X87861506Y-54211402D01*
X88028597Y-54378493D01*
X88028603Y-54378498D01*
X88214158Y-54508425D01*
X88257783Y-54563002D01*
X88264977Y-54632500D01*
X88233454Y-54694855D01*
X88214158Y-54711575D01*
X88028597Y-54841505D01*
X87861505Y-55008597D01*
X87725965Y-55202169D01*
X87725964Y-55202171D01*
X87626098Y-55416335D01*
X87626094Y-55416344D01*
X87564938Y-55644586D01*
X87564936Y-55644596D01*
X87544341Y-55879999D01*
X87544341Y-55880000D01*
X87564936Y-56115403D01*
X87564938Y-56115413D01*
X87626094Y-56343655D01*
X87626096Y-56343659D01*
X87626097Y-56343663D01*
X87675582Y-56449783D01*
X87725965Y-56557830D01*
X87725967Y-56557834D01*
X87861501Y-56751395D01*
X87861506Y-56751402D01*
X88028597Y-56918493D01*
X88028603Y-56918498D01*
X88214158Y-57048425D01*
X88257783Y-57103002D01*
X88264977Y-57172500D01*
X88233454Y-57234855D01*
X88214158Y-57251575D01*
X88028597Y-57381505D01*
X87861505Y-57548597D01*
X87725965Y-57742169D01*
X87725964Y-57742171D01*
X87626098Y-57956335D01*
X87626094Y-57956344D01*
X87564938Y-58184586D01*
X87564936Y-58184596D01*
X87544341Y-58419999D01*
X87544341Y-58420000D01*
X87564936Y-58655403D01*
X87564938Y-58655413D01*
X87626094Y-58883655D01*
X87626096Y-58883659D01*
X87626097Y-58883663D01*
X87675582Y-58989783D01*
X87725965Y-59097830D01*
X87725967Y-59097834D01*
X87861501Y-59291395D01*
X87861506Y-59291402D01*
X88028597Y-59458493D01*
X88028603Y-59458498D01*
X88214158Y-59588425D01*
X88257783Y-59643002D01*
X88264977Y-59712500D01*
X88233454Y-59774855D01*
X88214158Y-59791575D01*
X88028597Y-59921505D01*
X87861505Y-60088597D01*
X87725965Y-60282169D01*
X87725964Y-60282171D01*
X87626098Y-60496335D01*
X87626094Y-60496344D01*
X87564938Y-60724586D01*
X87564936Y-60724596D01*
X87544341Y-60959999D01*
X87544341Y-60960000D01*
X87564936Y-61195403D01*
X87564938Y-61195413D01*
X87626094Y-61423655D01*
X87626096Y-61423659D01*
X87626097Y-61423663D01*
X87708410Y-61600184D01*
X87725965Y-61637830D01*
X87725967Y-61637834D01*
X87861501Y-61831395D01*
X87861506Y-61831402D01*
X88028597Y-61998493D01*
X88028603Y-61998498D01*
X88214158Y-62128425D01*
X88257783Y-62183002D01*
X88264977Y-62252500D01*
X88233454Y-62314855D01*
X88214158Y-62331575D01*
X88028597Y-62461505D01*
X87861505Y-62628597D01*
X87725965Y-62822169D01*
X87725964Y-62822171D01*
X87626098Y-63036335D01*
X87626094Y-63036344D01*
X87564938Y-63264586D01*
X87564936Y-63264596D01*
X87544341Y-63499999D01*
X87544341Y-63500000D01*
X87564936Y-63735403D01*
X87564938Y-63735413D01*
X87626094Y-63963655D01*
X87626096Y-63963659D01*
X87626097Y-63963663D01*
X87665156Y-64047424D01*
X87725965Y-64177830D01*
X87725967Y-64177834D01*
X87861501Y-64371395D01*
X87861506Y-64371402D01*
X88028597Y-64538493D01*
X88028603Y-64538498D01*
X88214158Y-64668425D01*
X88257783Y-64723002D01*
X88264977Y-64792500D01*
X88233454Y-64854855D01*
X88214158Y-64871575D01*
X88028597Y-65001505D01*
X87861505Y-65168597D01*
X87725965Y-65362169D01*
X87725964Y-65362171D01*
X87626098Y-65576335D01*
X87626094Y-65576344D01*
X87564938Y-65804586D01*
X87564936Y-65804596D01*
X87544341Y-66039999D01*
X87544341Y-66040000D01*
X87564936Y-66275403D01*
X87564938Y-66275413D01*
X87626094Y-66503655D01*
X87626096Y-66503659D01*
X87626097Y-66503663D01*
X87675582Y-66609783D01*
X87725965Y-66717830D01*
X87725967Y-66717834D01*
X87861501Y-66911395D01*
X87861506Y-66911402D01*
X88028597Y-67078493D01*
X88028603Y-67078498D01*
X88214158Y-67208425D01*
X88257783Y-67263002D01*
X88264977Y-67332500D01*
X88233454Y-67394855D01*
X88214158Y-67411575D01*
X88028597Y-67541505D01*
X87861505Y-67708597D01*
X87725965Y-67902169D01*
X87725964Y-67902171D01*
X87626098Y-68116335D01*
X87626094Y-68116344D01*
X87564938Y-68344586D01*
X87564936Y-68344596D01*
X87544341Y-68579999D01*
X87544341Y-68580000D01*
X87564936Y-68815403D01*
X87564938Y-68815413D01*
X87626094Y-69043655D01*
X87626096Y-69043659D01*
X87626097Y-69043663D01*
X87675582Y-69149783D01*
X87725965Y-69257830D01*
X87725967Y-69257834D01*
X87861501Y-69451395D01*
X87861506Y-69451402D01*
X88028597Y-69618493D01*
X88028603Y-69618498D01*
X88214158Y-69748425D01*
X88257783Y-69803002D01*
X88264977Y-69872500D01*
X88233454Y-69934855D01*
X88214158Y-69951575D01*
X88028597Y-70081505D01*
X87861505Y-70248597D01*
X87725965Y-70442169D01*
X87725964Y-70442171D01*
X87626098Y-70656335D01*
X87626094Y-70656344D01*
X87564938Y-70884586D01*
X87564936Y-70884596D01*
X87544341Y-71119999D01*
X87544341Y-71120000D01*
X87564936Y-71355403D01*
X87564938Y-71355413D01*
X87626094Y-71583655D01*
X87626096Y-71583659D01*
X87626097Y-71583663D01*
X87675582Y-71689783D01*
X87725965Y-71797830D01*
X87725967Y-71797834D01*
X87861501Y-71991395D01*
X87861506Y-71991402D01*
X88028597Y-72158493D01*
X88028603Y-72158498D01*
X88214158Y-72288425D01*
X88257783Y-72343002D01*
X88264977Y-72412500D01*
X88233454Y-72474855D01*
X88214158Y-72491575D01*
X88028597Y-72621505D01*
X87861505Y-72788597D01*
X87725965Y-72982169D01*
X87725964Y-72982171D01*
X87626098Y-73196335D01*
X87626094Y-73196344D01*
X87564938Y-73424586D01*
X87564936Y-73424596D01*
X87544341Y-73659999D01*
X87544341Y-73660000D01*
X87564936Y-73895403D01*
X87564938Y-73895413D01*
X87626094Y-74123655D01*
X87626096Y-74123659D01*
X87626097Y-74123663D01*
X87681471Y-74242412D01*
X87725965Y-74337830D01*
X87725967Y-74337834D01*
X87861501Y-74531395D01*
X87861506Y-74531402D01*
X88028597Y-74698493D01*
X88028603Y-74698498D01*
X88214158Y-74828425D01*
X88257783Y-74883002D01*
X88264977Y-74952500D01*
X88233454Y-75014855D01*
X88214158Y-75031575D01*
X88028597Y-75161505D01*
X87861505Y-75328597D01*
X87725965Y-75522169D01*
X87725964Y-75522171D01*
X87626098Y-75736335D01*
X87626094Y-75736344D01*
X87564938Y-75964586D01*
X87564936Y-75964596D01*
X87544341Y-76199999D01*
X87544341Y-76200000D01*
X87564936Y-76435403D01*
X87564938Y-76435413D01*
X87626094Y-76663655D01*
X87626096Y-76663659D01*
X87626097Y-76663663D01*
X87673674Y-76765692D01*
X87725965Y-76877830D01*
X87725967Y-76877834D01*
X87861501Y-77071395D01*
X87861506Y-77071402D01*
X88028597Y-77238493D01*
X88028603Y-77238498D01*
X88214158Y-77368425D01*
X88257783Y-77423002D01*
X88264977Y-77492500D01*
X88233454Y-77554855D01*
X88214158Y-77571575D01*
X88028597Y-77701505D01*
X87861505Y-77868597D01*
X87725965Y-78062169D01*
X87725964Y-78062171D01*
X87626098Y-78276335D01*
X87626094Y-78276344D01*
X87564938Y-78504586D01*
X87564936Y-78504596D01*
X87544341Y-78739999D01*
X87544341Y-78740000D01*
X87564936Y-78975403D01*
X87564938Y-78975413D01*
X87626094Y-79203655D01*
X87626096Y-79203659D01*
X87626097Y-79203663D01*
X87682460Y-79324534D01*
X87725965Y-79417830D01*
X87725967Y-79417834D01*
X87861501Y-79611395D01*
X87861506Y-79611402D01*
X88028597Y-79778493D01*
X88028603Y-79778498D01*
X88214158Y-79908425D01*
X88257783Y-79963002D01*
X88264977Y-80032500D01*
X88233454Y-80094855D01*
X88214158Y-80111575D01*
X88028597Y-80241505D01*
X87861505Y-80408597D01*
X87725965Y-80602169D01*
X87725964Y-80602171D01*
X87626098Y-80816335D01*
X87626094Y-80816344D01*
X87564938Y-81044586D01*
X87564936Y-81044596D01*
X87544341Y-81279999D01*
X87544341Y-81280000D01*
X87564936Y-81515403D01*
X87564938Y-81515413D01*
X87626094Y-81743655D01*
X87626096Y-81743659D01*
X87626097Y-81743663D01*
X87682460Y-81864534D01*
X87725965Y-81957830D01*
X87725967Y-81957834D01*
X87861501Y-82151395D01*
X87861506Y-82151402D01*
X88028597Y-82318493D01*
X88028603Y-82318498D01*
X88214158Y-82448425D01*
X88257783Y-82503002D01*
X88264977Y-82572500D01*
X88233454Y-82634855D01*
X88214158Y-82651575D01*
X88028597Y-82781505D01*
X87861505Y-82948597D01*
X87725965Y-83142169D01*
X87725964Y-83142171D01*
X87626098Y-83356335D01*
X87626094Y-83356344D01*
X87564938Y-83584586D01*
X87564936Y-83584596D01*
X87544341Y-83819999D01*
X87544341Y-83820000D01*
X87564936Y-84055403D01*
X87564938Y-84055413D01*
X87626094Y-84283655D01*
X87626096Y-84283659D01*
X87626097Y-84283663D01*
X87673674Y-84385692D01*
X87725965Y-84497830D01*
X87725967Y-84497834D01*
X87861501Y-84691395D01*
X87861506Y-84691402D01*
X88028597Y-84858493D01*
X88028603Y-84858498D01*
X88214158Y-84988425D01*
X88257783Y-85043002D01*
X88264977Y-85112500D01*
X88233454Y-85174855D01*
X88214158Y-85191575D01*
X88028597Y-85321505D01*
X87861505Y-85488597D01*
X87725965Y-85682169D01*
X87725964Y-85682171D01*
X87626098Y-85896335D01*
X87626094Y-85896344D01*
X87564938Y-86124586D01*
X87564936Y-86124596D01*
X87544341Y-86359999D01*
X87544341Y-86360000D01*
X87564936Y-86595403D01*
X87564938Y-86595413D01*
X87626094Y-86823655D01*
X87626096Y-86823659D01*
X87626097Y-86823663D01*
X87673674Y-86925692D01*
X87725965Y-87037830D01*
X87725967Y-87037834D01*
X87861501Y-87231395D01*
X87861506Y-87231402D01*
X88028597Y-87398493D01*
X88028603Y-87398498D01*
X88214158Y-87528425D01*
X88257783Y-87583002D01*
X88264977Y-87652500D01*
X88233454Y-87714855D01*
X88214158Y-87731575D01*
X88028597Y-87861505D01*
X87861505Y-88028597D01*
X87725965Y-88222169D01*
X87725964Y-88222171D01*
X87626098Y-88436335D01*
X87626094Y-88436344D01*
X87564938Y-88664586D01*
X87564936Y-88664596D01*
X87544341Y-88899999D01*
X87544341Y-88900000D01*
X87564936Y-89135403D01*
X87564938Y-89135413D01*
X87626094Y-89363655D01*
X87626096Y-89363659D01*
X87626097Y-89363663D01*
X87673672Y-89465687D01*
X87725965Y-89577830D01*
X87725967Y-89577834D01*
X87861501Y-89771395D01*
X87861506Y-89771402D01*
X88028597Y-89938493D01*
X88028603Y-89938498D01*
X88214594Y-90068730D01*
X88258219Y-90123307D01*
X88265413Y-90192805D01*
X88233890Y-90255160D01*
X88214595Y-90271880D01*
X88028922Y-90401890D01*
X88028920Y-90401891D01*
X87861891Y-90568920D01*
X87861886Y-90568926D01*
X87726400Y-90762420D01*
X87726399Y-90762422D01*
X87626570Y-90976507D01*
X87626567Y-90976513D01*
X87569364Y-91189999D01*
X87569364Y-91190000D01*
X88466988Y-91190000D01*
X88434075Y-91247007D01*
X88400000Y-91374174D01*
X88400000Y-91505826D01*
X88434075Y-91632993D01*
X88466988Y-91690000D01*
X87569364Y-91690000D01*
X87626567Y-91903486D01*
X87626570Y-91903492D01*
X87726399Y-92117578D01*
X87861894Y-92311082D01*
X88028917Y-92478105D01*
X88215031Y-92608425D01*
X88258656Y-92663003D01*
X88265848Y-92732501D01*
X88234326Y-92794856D01*
X88215031Y-92811575D01*
X88028922Y-92941890D01*
X88028920Y-92941891D01*
X87861891Y-93108920D01*
X87861886Y-93108926D01*
X87726400Y-93302420D01*
X87726399Y-93302422D01*
X87626570Y-93516507D01*
X87626567Y-93516513D01*
X87569364Y-93729999D01*
X87569364Y-93730000D01*
X88466988Y-93730000D01*
X88434075Y-93787007D01*
X88400000Y-93914174D01*
X88400000Y-94045826D01*
X88434075Y-94172993D01*
X88466988Y-94230000D01*
X87569364Y-94230000D01*
X87626567Y-94443486D01*
X87626570Y-94443492D01*
X87726399Y-94657578D01*
X87861894Y-94851082D01*
X88028917Y-95018105D01*
X88222421Y-95153600D01*
X88436507Y-95253429D01*
X88436516Y-95253433D01*
X88650000Y-95310634D01*
X88650000Y-94413012D01*
X88707007Y-94445925D01*
X88834174Y-94480000D01*
X88965826Y-94480000D01*
X89092993Y-94445925D01*
X89150000Y-94413012D01*
X89150000Y-95310633D01*
X89363483Y-95253433D01*
X89363492Y-95253429D01*
X89577578Y-95153600D01*
X89771082Y-95018105D01*
X89938105Y-94851082D01*
X90073600Y-94657578D01*
X90173429Y-94443492D01*
X90173432Y-94443486D01*
X90230636Y-94230000D01*
X89333012Y-94230000D01*
X89365925Y-94172993D01*
X89400000Y-94045826D01*
X89400000Y-93914174D01*
X89365925Y-93787007D01*
X89333012Y-93730000D01*
X90230636Y-93730000D01*
X90230635Y-93729999D01*
X90173432Y-93516513D01*
X90173429Y-93516507D01*
X90073600Y-93302422D01*
X90073599Y-93302420D01*
X89938113Y-93108926D01*
X89938108Y-93108920D01*
X89771082Y-92941894D01*
X89584968Y-92811575D01*
X89541344Y-92756998D01*
X89534151Y-92687499D01*
X89565673Y-92625145D01*
X89584968Y-92608425D01*
X89771082Y-92478105D01*
X89938105Y-92311082D01*
X90073600Y-92117578D01*
X90173429Y-91903492D01*
X90173432Y-91903486D01*
X90230636Y-91690000D01*
X89333012Y-91690000D01*
X89365925Y-91632993D01*
X89400000Y-91505826D01*
X89400000Y-91374174D01*
X89365925Y-91247007D01*
X89333012Y-91190000D01*
X90230636Y-91190000D01*
X90230635Y-91189999D01*
X90173432Y-90976513D01*
X90173429Y-90976507D01*
X90073600Y-90762422D01*
X90073599Y-90762420D01*
X89938113Y-90568926D01*
X89938108Y-90568920D01*
X89771078Y-90401890D01*
X89585405Y-90271879D01*
X89541780Y-90217302D01*
X89534588Y-90147804D01*
X89566110Y-90085449D01*
X89585406Y-90068730D01*
X89634693Y-90034219D01*
X89771401Y-89938495D01*
X89938495Y-89771401D01*
X90018897Y-89656576D01*
X90073474Y-89612951D01*
X90120471Y-89603700D01*
X103162156Y-89603700D01*
X103229195Y-89623385D01*
X103249837Y-89640019D01*
X103399981Y-89790163D01*
X103433466Y-89851486D01*
X103436300Y-89877844D01*
X103436300Y-92000556D01*
X103436299Y-92000582D01*
X103436299Y-92144309D01*
X103453707Y-92231818D01*
X103453707Y-92231820D01*
X103463341Y-92280254D01*
X103463344Y-92280266D01*
X103516386Y-92408323D01*
X103593401Y-92523585D01*
X103695736Y-92625920D01*
X103695758Y-92625940D01*
X106765274Y-95695456D01*
X106765303Y-95695487D01*
X106866414Y-95796598D01*
X106981676Y-95873613D01*
X107109735Y-95926656D01*
X107109736Y-95926656D01*
X107109738Y-95926657D01*
X107109742Y-95926657D01*
X107109743Y-95926658D01*
X107245688Y-95953701D01*
X107245691Y-95953701D01*
X107390422Y-95953701D01*
X107390442Y-95953700D01*
X163899310Y-95953700D01*
X163899311Y-95953699D01*
X164035262Y-95926657D01*
X164099294Y-95900134D01*
X164163323Y-95873613D01*
X164163324Y-95873612D01*
X164163327Y-95873611D01*
X164278583Y-95796600D01*
X164376600Y-95698583D01*
X164453611Y-95583327D01*
X164506657Y-95455262D01*
X164533700Y-95319308D01*
X164533700Y-87822700D01*
X164553385Y-87755661D01*
X164606189Y-87709906D01*
X164657700Y-87698700D01*
X166080581Y-87698700D01*
X166147620Y-87718385D01*
X166180899Y-87749815D01*
X166186639Y-87757715D01*
X166248030Y-87842215D01*
X166392786Y-87986971D01*
X166547749Y-88099556D01*
X166558390Y-88107287D01*
X166629311Y-88143423D01*
X166651080Y-88154515D01*
X166701876Y-88202490D01*
X166718671Y-88270311D01*
X166696134Y-88336446D01*
X166651080Y-88375485D01*
X166558386Y-88422715D01*
X166392786Y-88543028D01*
X166248028Y-88687786D01*
X166127715Y-88853386D01*
X166034781Y-89035776D01*
X165971522Y-89230465D01*
X165950426Y-89363663D01*
X165939500Y-89432648D01*
X165939500Y-89637352D01*
X165942545Y-89656576D01*
X165971522Y-89839534D01*
X166034781Y-90034223D01*
X166127715Y-90216613D01*
X166248028Y-90382213D01*
X166392786Y-90526971D01*
X166547749Y-90639556D01*
X166558390Y-90647287D01*
X166649840Y-90693883D01*
X166651080Y-90694515D01*
X166701876Y-90742490D01*
X166718671Y-90810311D01*
X166696134Y-90876446D01*
X166651080Y-90915485D01*
X166558386Y-90962715D01*
X166392786Y-91083028D01*
X166248028Y-91227786D01*
X166127715Y-91393386D01*
X166034781Y-91575776D01*
X165971522Y-91770465D01*
X165939500Y-91972648D01*
X165939500Y-92177351D01*
X165971522Y-92379534D01*
X166034781Y-92574223D01*
X166127715Y-92756613D01*
X166248028Y-92922213D01*
X166392786Y-93066971D01*
X166547749Y-93179556D01*
X166558390Y-93187287D01*
X166674607Y-93246503D01*
X166740776Y-93280218D01*
X166740778Y-93280218D01*
X166740781Y-93280220D01*
X166809106Y-93302420D01*
X166935465Y-93343477D01*
X167036557Y-93359488D01*
X167137648Y-93375500D01*
X167137649Y-93375500D01*
X168142351Y-93375500D01*
X168142352Y-93375500D01*
X168344534Y-93343477D01*
X168539219Y-93280220D01*
X168721610Y-93187287D01*
X168829474Y-93108920D01*
X168887213Y-93066971D01*
X168887215Y-93066968D01*
X168887219Y-93066966D01*
X169031966Y-92922219D01*
X169031968Y-92922215D01*
X169031971Y-92922213D01*
X169120190Y-92800788D01*
X169152287Y-92756610D01*
X169245220Y-92574219D01*
X169308477Y-92379534D01*
X169340500Y-92177352D01*
X169340500Y-91972648D01*
X169319506Y-91840099D01*
X169308477Y-91770465D01*
X169249960Y-91590369D01*
X169245220Y-91575781D01*
X169245218Y-91575778D01*
X169245218Y-91575776D01*
X169202830Y-91492587D01*
X169152287Y-91393390D01*
X169138326Y-91374174D01*
X169031971Y-91227786D01*
X168887213Y-91083028D01*
X168721614Y-90962715D01*
X168677033Y-90940000D01*
X168628917Y-90915483D01*
X168578123Y-90867511D01*
X168561328Y-90799690D01*
X168583865Y-90733555D01*
X168628917Y-90694516D01*
X168721610Y-90647287D01*
X168829474Y-90568920D01*
X168887213Y-90526971D01*
X168887215Y-90526968D01*
X168887219Y-90526966D01*
X169031966Y-90382219D01*
X169031968Y-90382215D01*
X169031971Y-90382213D01*
X169093361Y-90297715D01*
X169152287Y-90216610D01*
X169245220Y-90034219D01*
X169308477Y-89839534D01*
X169340500Y-89637352D01*
X169340500Y-89432648D01*
X169308477Y-89230466D01*
X169245220Y-89035781D01*
X169245218Y-89035778D01*
X169245218Y-89035776D01*
X169211503Y-88969607D01*
X169152287Y-88853390D01*
X169144556Y-88842749D01*
X169031971Y-88687786D01*
X168887213Y-88543028D01*
X168721614Y-88422715D01*
X168715006Y-88419348D01*
X168628917Y-88375483D01*
X168578123Y-88327511D01*
X168561328Y-88259690D01*
X168583865Y-88193555D01*
X168628917Y-88154516D01*
X168721610Y-88107287D01*
X168829916Y-88028599D01*
X168887213Y-87986971D01*
X168887215Y-87986968D01*
X168887219Y-87986966D01*
X169031966Y-87842219D01*
X169031968Y-87842215D01*
X169031971Y-87842213D01*
X169093361Y-87757715D01*
X169152287Y-87676610D01*
X169245220Y-87494219D01*
X169308477Y-87299534D01*
X169340500Y-87097352D01*
X169340500Y-86892648D01*
X169328320Y-86815745D01*
X169308477Y-86690465D01*
X169264752Y-86555894D01*
X169245220Y-86495781D01*
X169245218Y-86495778D01*
X169245218Y-86495776D01*
X169176698Y-86361300D01*
X169152287Y-86313390D01*
X169121936Y-86271615D01*
X169031971Y-86147786D01*
X168887213Y-86003028D01*
X168721614Y-85882715D01*
X168715006Y-85879348D01*
X168628917Y-85835483D01*
X168578123Y-85787511D01*
X168561328Y-85719690D01*
X168583865Y-85653555D01*
X168628917Y-85614516D01*
X168721610Y-85567287D01*
X168829916Y-85488599D01*
X168887213Y-85446971D01*
X168887215Y-85446968D01*
X168887219Y-85446966D01*
X169031966Y-85302219D01*
X169031968Y-85302215D01*
X169031971Y-85302213D01*
X169093361Y-85217715D01*
X169152287Y-85136610D01*
X169245220Y-84954219D01*
X169308477Y-84759534D01*
X169340500Y-84557352D01*
X169340500Y-84352648D01*
X169308477Y-84150466D01*
X169245220Y-83955781D01*
X169245218Y-83955777D01*
X169245218Y-83955776D01*
X169178677Y-83825184D01*
X169152287Y-83773390D01*
X169121936Y-83731615D01*
X169031971Y-83607786D01*
X168887213Y-83463028D01*
X168721614Y-83342715D01*
X168715006Y-83339348D01*
X168628917Y-83295483D01*
X168578123Y-83247511D01*
X168561328Y-83179690D01*
X168583865Y-83113555D01*
X168628917Y-83074516D01*
X168721610Y-83027287D01*
X168829916Y-82948599D01*
X168887213Y-82906971D01*
X168887215Y-82906968D01*
X168887219Y-82906966D01*
X169031966Y-82762219D01*
X169031968Y-82762215D01*
X169031971Y-82762213D01*
X169093361Y-82677715D01*
X169152287Y-82596610D01*
X169245220Y-82414219D01*
X169308477Y-82219534D01*
X169340500Y-82017352D01*
X169340500Y-81812648D01*
X169325684Y-81719105D01*
X169308477Y-81610465D01*
X169277589Y-81515403D01*
X169245220Y-81415781D01*
X169245218Y-81415778D01*
X169245218Y-81415776D01*
X169211503Y-81349607D01*
X169152287Y-81233390D01*
X169111011Y-81176578D01*
X169031971Y-81067786D01*
X168887213Y-80923028D01*
X168721614Y-80802715D01*
X168715006Y-80799348D01*
X168628917Y-80755483D01*
X168578123Y-80707511D01*
X168561328Y-80639690D01*
X168583865Y-80573555D01*
X168628917Y-80534516D01*
X168721610Y-80487287D01*
X168829916Y-80408599D01*
X168887213Y-80366971D01*
X168887215Y-80366968D01*
X168887219Y-80366966D01*
X169031966Y-80222219D01*
X169031968Y-80222215D01*
X169031971Y-80222213D01*
X169093361Y-80137715D01*
X169152287Y-80056610D01*
X169245220Y-79874219D01*
X169308477Y-79679534D01*
X169340500Y-79477352D01*
X169340500Y-79272648D01*
X169308477Y-79070466D01*
X169245220Y-78875781D01*
X169245218Y-78875778D01*
X169245218Y-78875776D01*
X169180673Y-78749101D01*
X169152287Y-78693390D01*
X169144556Y-78682749D01*
X169031971Y-78527786D01*
X168887213Y-78383028D01*
X168721614Y-78262715D01*
X168715006Y-78259348D01*
X168628917Y-78215483D01*
X168578123Y-78167511D01*
X168561328Y-78099690D01*
X168583865Y-78033555D01*
X168628917Y-77994516D01*
X168721610Y-77947287D01*
X168742770Y-77931913D01*
X168887213Y-77826971D01*
X168887215Y-77826968D01*
X168887219Y-77826966D01*
X169031966Y-77682219D01*
X169031968Y-77682215D01*
X169031971Y-77682213D01*
X169089712Y-77602738D01*
X169152287Y-77516610D01*
X169245220Y-77334219D01*
X169308477Y-77139534D01*
X169340500Y-76937352D01*
X169340500Y-76732648D01*
X169308477Y-76530466D01*
X169245220Y-76335781D01*
X169245218Y-76335778D01*
X169245218Y-76335776D01*
X169192913Y-76233123D01*
X169152287Y-76153390D01*
X169111011Y-76096578D01*
X169031971Y-75987786D01*
X168887213Y-75843028D01*
X168721613Y-75722715D01*
X168721612Y-75722714D01*
X168721610Y-75722713D01*
X168664653Y-75693691D01*
X168539223Y-75629781D01*
X168344534Y-75566522D01*
X168169995Y-75538878D01*
X168142352Y-75534500D01*
X167137648Y-75534500D01*
X167113329Y-75538351D01*
X166935465Y-75566522D01*
X166740776Y-75629781D01*
X166558386Y-75722715D01*
X166392786Y-75843028D01*
X166248030Y-75987784D01*
X166180900Y-76080184D01*
X166125570Y-76122851D01*
X166080581Y-76131300D01*
X164657700Y-76131300D01*
X164590661Y-76111615D01*
X164544906Y-76058811D01*
X164533700Y-76007300D01*
X164533700Y-59247700D01*
X164553385Y-59180661D01*
X164606189Y-59134906D01*
X164657700Y-59123700D01*
X166080581Y-59123700D01*
X166147620Y-59143385D01*
X166180899Y-59174815D01*
X166186639Y-59182715D01*
X166248030Y-59267215D01*
X166392786Y-59411971D01*
X166547749Y-59524556D01*
X166558390Y-59532287D01*
X166647212Y-59577544D01*
X166651080Y-59579515D01*
X166701876Y-59627490D01*
X166718671Y-59695311D01*
X166696134Y-59761446D01*
X166651080Y-59800485D01*
X166558386Y-59847715D01*
X166392786Y-59968028D01*
X166248028Y-60112786D01*
X166127715Y-60278386D01*
X166034781Y-60460776D01*
X165971522Y-60655465D01*
X165939500Y-60857648D01*
X165939500Y-61062351D01*
X165971522Y-61264534D01*
X166034781Y-61459223D01*
X166127715Y-61641613D01*
X166248028Y-61807213D01*
X166392786Y-61951971D01*
X166547749Y-62064556D01*
X166558390Y-62072287D01*
X166649840Y-62118883D01*
X166651080Y-62119515D01*
X166701876Y-62167490D01*
X166718671Y-62235311D01*
X166696134Y-62301446D01*
X166651080Y-62340485D01*
X166558386Y-62387715D01*
X166392786Y-62508028D01*
X166248028Y-62652786D01*
X166127715Y-62818386D01*
X166034781Y-63000776D01*
X165971522Y-63195465D01*
X165939500Y-63397648D01*
X165939500Y-63602351D01*
X165971522Y-63804534D01*
X166034781Y-63999223D01*
X166127715Y-64181613D01*
X166248028Y-64347213D01*
X166392786Y-64491971D01*
X166547749Y-64604556D01*
X166558390Y-64612287D01*
X166651080Y-64659515D01*
X166740776Y-64705218D01*
X166740778Y-64705218D01*
X166740781Y-64705220D01*
X166845137Y-64739127D01*
X166935465Y-64768477D01*
X166954697Y-64771523D01*
X167137648Y-64800500D01*
X167137649Y-64800500D01*
X168142351Y-64800500D01*
X168142352Y-64800500D01*
X168344534Y-64768477D01*
X168539219Y-64705220D01*
X168721610Y-64612287D01*
X168823180Y-64538493D01*
X168887213Y-64491971D01*
X168887215Y-64491968D01*
X168887219Y-64491966D01*
X169031966Y-64347219D01*
X169031968Y-64347215D01*
X169031971Y-64347213D01*
X169120190Y-64225788D01*
X169152287Y-64181610D01*
X169245220Y-63999219D01*
X169308477Y-63804534D01*
X169340500Y-63602352D01*
X169340500Y-63397648D01*
X169318889Y-63261206D01*
X169308477Y-63195465D01*
X169245281Y-63000970D01*
X169245220Y-63000781D01*
X169245218Y-63000778D01*
X169245218Y-63000776D01*
X169154451Y-62822638D01*
X169152287Y-62818390D01*
X169122524Y-62777424D01*
X169031971Y-62652786D01*
X168887213Y-62508028D01*
X168721614Y-62387715D01*
X168715006Y-62384348D01*
X168628917Y-62340483D01*
X168578123Y-62292511D01*
X168561328Y-62224690D01*
X168583865Y-62158555D01*
X168628917Y-62119516D01*
X168721610Y-62072287D01*
X168823180Y-61998493D01*
X168887213Y-61951971D01*
X168887215Y-61951968D01*
X168887219Y-61951966D01*
X169031966Y-61807219D01*
X169031968Y-61807215D01*
X169031971Y-61807213D01*
X169089713Y-61727737D01*
X169152287Y-61641610D01*
X169245220Y-61459219D01*
X169308477Y-61264534D01*
X169340500Y-61062352D01*
X169340500Y-60857648D01*
X169308477Y-60655466D01*
X169245220Y-60460781D01*
X169245218Y-60460778D01*
X169245218Y-60460776D01*
X169211503Y-60394607D01*
X169152287Y-60278390D01*
X169144556Y-60267749D01*
X169031971Y-60112786D01*
X168887213Y-59968028D01*
X168721614Y-59847715D01*
X168715006Y-59844348D01*
X168628917Y-59800483D01*
X168578123Y-59752511D01*
X168561328Y-59684690D01*
X168583865Y-59618555D01*
X168628917Y-59579516D01*
X168721610Y-59532287D01*
X168751260Y-59510745D01*
X168887213Y-59411971D01*
X168887215Y-59411968D01*
X168887219Y-59411966D01*
X169031966Y-59267219D01*
X169031968Y-59267215D01*
X169031971Y-59267213D01*
X169093361Y-59182715D01*
X169152287Y-59101610D01*
X169245220Y-58919219D01*
X169308477Y-58724534D01*
X169340500Y-58522352D01*
X169340500Y-58317648D01*
X169308477Y-58115466D01*
X169245220Y-57920781D01*
X169245218Y-57920778D01*
X169245218Y-57920776D01*
X169181837Y-57796386D01*
X169152287Y-57738390D01*
X169121936Y-57696615D01*
X169031971Y-57572786D01*
X168887213Y-57428028D01*
X168721614Y-57307715D01*
X168715006Y-57304348D01*
X168628917Y-57260483D01*
X168578123Y-57212511D01*
X168561328Y-57144690D01*
X168583865Y-57078555D01*
X168628917Y-57039516D01*
X168721610Y-56992287D01*
X168742770Y-56976913D01*
X168887213Y-56871971D01*
X168887215Y-56871968D01*
X168887219Y-56871966D01*
X169031966Y-56727219D01*
X169031968Y-56727215D01*
X169031971Y-56727213D01*
X169099100Y-56634816D01*
X169152287Y-56561610D01*
X169245220Y-56379219D01*
X169308477Y-56184534D01*
X169340500Y-55982352D01*
X169340500Y-55777648D01*
X169308477Y-55575466D01*
X169245220Y-55380781D01*
X169245218Y-55380778D01*
X169245218Y-55380776D01*
X169178677Y-55250184D01*
X169152287Y-55198390D01*
X169121936Y-55156615D01*
X169031971Y-55032786D01*
X168887213Y-54888028D01*
X168721614Y-54767715D01*
X168715006Y-54764348D01*
X168628917Y-54720483D01*
X168578123Y-54672511D01*
X168561328Y-54604690D01*
X168583865Y-54538555D01*
X168628917Y-54499516D01*
X168721610Y-54452287D01*
X168823180Y-54378493D01*
X168887213Y-54331971D01*
X168887215Y-54331968D01*
X168887219Y-54331966D01*
X169031966Y-54187219D01*
X169031968Y-54187215D01*
X169031971Y-54187213D01*
X169147944Y-54027587D01*
X169152287Y-54021610D01*
X169245220Y-53839219D01*
X169308477Y-53644534D01*
X169340500Y-53442352D01*
X169340500Y-53237648D01*
X169319425Y-53104586D01*
X169308477Y-53035465D01*
X169245218Y-52840776D01*
X169211503Y-52774607D01*
X169152287Y-52658390D01*
X169138768Y-52639783D01*
X169031971Y-52492786D01*
X168887213Y-52348028D01*
X168721614Y-52227715D01*
X168715006Y-52224348D01*
X168628917Y-52180483D01*
X168578123Y-52132511D01*
X168561328Y-52064690D01*
X168583865Y-51998555D01*
X168628917Y-51959516D01*
X168721610Y-51912287D01*
X168823180Y-51838493D01*
X168887213Y-51791971D01*
X168887215Y-51791968D01*
X168887219Y-51791966D01*
X169031966Y-51647219D01*
X169031968Y-51647215D01*
X169031971Y-51647213D01*
X169089713Y-51567737D01*
X169152287Y-51481610D01*
X169245220Y-51299219D01*
X169308477Y-51104534D01*
X169340500Y-50902352D01*
X169340500Y-50697648D01*
X169308477Y-50495466D01*
X169245220Y-50300781D01*
X169245218Y-50300778D01*
X169245218Y-50300776D01*
X169178677Y-50170184D01*
X169152287Y-50118390D01*
X169138768Y-50099783D01*
X169031971Y-49952786D01*
X168887213Y-49808028D01*
X168721614Y-49687715D01*
X168715006Y-49684348D01*
X168628917Y-49640483D01*
X168578123Y-49592511D01*
X168561328Y-49524690D01*
X168583865Y-49458555D01*
X168628917Y-49419516D01*
X168721610Y-49372287D01*
X168751260Y-49350745D01*
X168887213Y-49251971D01*
X168887215Y-49251968D01*
X168887219Y-49251966D01*
X169031966Y-49107219D01*
X169031968Y-49107215D01*
X169031971Y-49107213D01*
X169099100Y-49014816D01*
X169152287Y-48941610D01*
X169245220Y-48759219D01*
X169308477Y-48564534D01*
X169340500Y-48362352D01*
X169340500Y-48157648D01*
X169308477Y-47955466D01*
X169245220Y-47760781D01*
X169245218Y-47760778D01*
X169245218Y-47760776D01*
X169178677Y-47630184D01*
X169152287Y-47578390D01*
X169130099Y-47547851D01*
X169031971Y-47412786D01*
X168887213Y-47268028D01*
X168721613Y-47147715D01*
X168721612Y-47147714D01*
X168721610Y-47147713D01*
X168664653Y-47118691D01*
X168539223Y-47054781D01*
X168344534Y-46991522D01*
X168169995Y-46963878D01*
X168142352Y-46959500D01*
X167137648Y-46959500D01*
X167113329Y-46963351D01*
X166935465Y-46991522D01*
X166740776Y-47054781D01*
X166558386Y-47147715D01*
X166392786Y-47268028D01*
X166248030Y-47412784D01*
X166180900Y-47505184D01*
X166125570Y-47547851D01*
X166080581Y-47556300D01*
X165030689Y-47556300D01*
X164956655Y-47571026D01*
X164919638Y-47578390D01*
X164902998Y-47581699D01*
X164894736Y-47583343D01*
X164894733Y-47583344D01*
X164766676Y-47636386D01*
X164651416Y-47713400D01*
X164607080Y-47757737D01*
X164553400Y-47811417D01*
X164553397Y-47811420D01*
X163381420Y-48983397D01*
X163381417Y-48983400D01*
X163350001Y-49014816D01*
X163283400Y-49081416D01*
X163230559Y-49160500D01*
X163230558Y-49160501D01*
X163206393Y-49196664D01*
X163206385Y-49196679D01*
X163153343Y-49324735D01*
X163153341Y-49324743D01*
X163126299Y-49460689D01*
X163126299Y-49605421D01*
X163126300Y-49605442D01*
X163126300Y-55052300D01*
X163106615Y-55119339D01*
X163053811Y-55165094D01*
X163002300Y-55176300D01*
X161579419Y-55176300D01*
X161512380Y-55156615D01*
X161479100Y-55125184D01*
X161474853Y-55119339D01*
X161453965Y-55090588D01*
X161411969Y-55032784D01*
X161267213Y-54888028D01*
X161101614Y-54767715D01*
X161095006Y-54764348D01*
X161008917Y-54720483D01*
X160958123Y-54672511D01*
X160941328Y-54604690D01*
X160963865Y-54538555D01*
X161008917Y-54499516D01*
X161101610Y-54452287D01*
X161203180Y-54378493D01*
X161267213Y-54331971D01*
X161267215Y-54331968D01*
X161267219Y-54331966D01*
X161411966Y-54187219D01*
X161411968Y-54187215D01*
X161411971Y-54187213D01*
X161527944Y-54027587D01*
X161532287Y-54021610D01*
X161625220Y-53839219D01*
X161688477Y-53644534D01*
X161720500Y-53442352D01*
X161720500Y-53237648D01*
X161699425Y-53104586D01*
X161688477Y-53035465D01*
X161625218Y-52840776D01*
X161591503Y-52774607D01*
X161532287Y-52658390D01*
X161518768Y-52639783D01*
X161411971Y-52492786D01*
X161267213Y-52348028D01*
X161101614Y-52227715D01*
X161095006Y-52224348D01*
X161008917Y-52180483D01*
X160958123Y-52132511D01*
X160941328Y-52064690D01*
X160963865Y-51998555D01*
X161008917Y-51959516D01*
X161101610Y-51912287D01*
X161203180Y-51838493D01*
X161267213Y-51791971D01*
X161267215Y-51791968D01*
X161267219Y-51791966D01*
X161411966Y-51647219D01*
X161411968Y-51647215D01*
X161411971Y-51647213D01*
X161469713Y-51567737D01*
X161532287Y-51481610D01*
X161625220Y-51299219D01*
X161688477Y-51104534D01*
X161720500Y-50902352D01*
X161720500Y-50697648D01*
X161688477Y-50495466D01*
X161625220Y-50300781D01*
X161625218Y-50300778D01*
X161625218Y-50300776D01*
X161558677Y-50170184D01*
X161532287Y-50118390D01*
X161518768Y-50099783D01*
X161411971Y-49952786D01*
X161267219Y-49808034D01*
X161264151Y-49805805D01*
X161230929Y-49781668D01*
X161188264Y-49726339D01*
X161182285Y-49656726D01*
X161214890Y-49594931D01*
X161275728Y-49560573D01*
X161290562Y-49558060D01*
X161327483Y-49554091D01*
X161462328Y-49503797D01*
X161462327Y-49503797D01*
X161462331Y-49503796D01*
X161577546Y-49417546D01*
X161663796Y-49302331D01*
X161714091Y-49167483D01*
X161720500Y-49107873D01*
X161720499Y-47412128D01*
X161714091Y-47352517D01*
X161663796Y-47217669D01*
X161663795Y-47217668D01*
X161663793Y-47217664D01*
X161577547Y-47102455D01*
X161577544Y-47102452D01*
X161462335Y-47016206D01*
X161462328Y-47016202D01*
X161327482Y-46965908D01*
X161327483Y-46965908D01*
X161267883Y-46959501D01*
X161267881Y-46959500D01*
X161267873Y-46959500D01*
X161267864Y-46959500D01*
X158772129Y-46959500D01*
X158772123Y-46959501D01*
X158712516Y-46965908D01*
X158577671Y-47016202D01*
X158577664Y-47016206D01*
X158462455Y-47102452D01*
X158462452Y-47102455D01*
X158376206Y-47217664D01*
X158376202Y-47217671D01*
X158325908Y-47352517D01*
X158319501Y-47412116D01*
X158319501Y-47412123D01*
X158319500Y-47412135D01*
X158319500Y-49107870D01*
X158319501Y-49107876D01*
X158325908Y-49167483D01*
X158376202Y-49302328D01*
X158376206Y-49302335D01*
X158462452Y-49417544D01*
X158462455Y-49417547D01*
X158577664Y-49503793D01*
X158577671Y-49503797D01*
X158622618Y-49520561D01*
X158712517Y-49554091D01*
X158749441Y-49558060D01*
X158813989Y-49584796D01*
X158853838Y-49642188D01*
X158856333Y-49712013D01*
X158820681Y-49772102D01*
X158809071Y-49781666D01*
X158772784Y-49808030D01*
X158628028Y-49952786D01*
X158507715Y-50118386D01*
X158414781Y-50300776D01*
X158351522Y-50495465D01*
X158319500Y-50697648D01*
X158319500Y-50902351D01*
X158351522Y-51104534D01*
X158414781Y-51299223D01*
X158507715Y-51481613D01*
X158628028Y-51647213D01*
X158772786Y-51791971D01*
X158927749Y-51904556D01*
X158938390Y-51912287D01*
X159029840Y-51958883D01*
X159031080Y-51959515D01*
X159081876Y-52007490D01*
X159098671Y-52075311D01*
X159076134Y-52141446D01*
X159031080Y-52180485D01*
X158938386Y-52227715D01*
X158772786Y-52348028D01*
X158628028Y-52492786D01*
X158507715Y-52658386D01*
X158414781Y-52840776D01*
X158351522Y-53035465D01*
X158319500Y-53237648D01*
X158319500Y-53442351D01*
X158351522Y-53644534D01*
X158414781Y-53839223D01*
X158507715Y-54021613D01*
X158628028Y-54187213D01*
X158772786Y-54331971D01*
X158927749Y-54444556D01*
X158938390Y-54452287D01*
X159029840Y-54498883D01*
X159031080Y-54499515D01*
X159081876Y-54547490D01*
X159098671Y-54615311D01*
X159076134Y-54681446D01*
X159031080Y-54720485D01*
X158938386Y-54767715D01*
X158772786Y-54888028D01*
X158628028Y-55032786D01*
X158507715Y-55198386D01*
X158414781Y-55380776D01*
X158351522Y-55575465D01*
X158319500Y-55777648D01*
X158319500Y-55982351D01*
X158351522Y-56184534D01*
X158414781Y-56379223D01*
X158507715Y-56561613D01*
X158628028Y-56727213D01*
X158772786Y-56871971D01*
X158927749Y-56984556D01*
X158938390Y-56992287D01*
X159027732Y-57037809D01*
X159031080Y-57039515D01*
X159081876Y-57087490D01*
X159098671Y-57155311D01*
X159076134Y-57221446D01*
X159031080Y-57260485D01*
X158938386Y-57307715D01*
X158772786Y-57428028D01*
X158628028Y-57572786D01*
X158507715Y-57738386D01*
X158414781Y-57920776D01*
X158351522Y-58115465D01*
X158319500Y-58317648D01*
X158319500Y-58522351D01*
X158351522Y-58724534D01*
X158414781Y-58919223D01*
X158507715Y-59101613D01*
X158628028Y-59267213D01*
X158772786Y-59411971D01*
X158927749Y-59524556D01*
X158938390Y-59532287D01*
X159027212Y-59577544D01*
X159031080Y-59579515D01*
X159081876Y-59627490D01*
X159098671Y-59695311D01*
X159076134Y-59761446D01*
X159031080Y-59800485D01*
X158938386Y-59847715D01*
X158772786Y-59968028D01*
X158628028Y-60112786D01*
X158507715Y-60278386D01*
X158414781Y-60460776D01*
X158351522Y-60655465D01*
X158319500Y-60857648D01*
X158319500Y-61062351D01*
X158351522Y-61264534D01*
X158414781Y-61459223D01*
X158507715Y-61641613D01*
X158628028Y-61807213D01*
X158772786Y-61951971D01*
X158927749Y-62064556D01*
X158938390Y-62072287D01*
X159010424Y-62108990D01*
X159031629Y-62119795D01*
X159082425Y-62167770D01*
X159099220Y-62235591D01*
X159076682Y-62301726D01*
X159031629Y-62340765D01*
X158938650Y-62388140D01*
X158773105Y-62508417D01*
X158773104Y-62508417D01*
X158628417Y-62653104D01*
X158628417Y-62653105D01*
X158508140Y-62818650D01*
X158415244Y-63000970D01*
X158352009Y-63195586D01*
X158343391Y-63250000D01*
X159704314Y-63250000D01*
X159699920Y-63254394D01*
X159647259Y-63345606D01*
X159620000Y-63447339D01*
X159620000Y-63552661D01*
X159647259Y-63654394D01*
X159699920Y-63745606D01*
X159704314Y-63750000D01*
X158343391Y-63750000D01*
X158352009Y-63804413D01*
X158415244Y-63999029D01*
X158508140Y-64181349D01*
X158628417Y-64346894D01*
X158628417Y-64346895D01*
X158773104Y-64491582D01*
X158938650Y-64611859D01*
X159120968Y-64704755D01*
X159315582Y-64767990D01*
X159517683Y-64800000D01*
X159770000Y-64800000D01*
X159770000Y-63815686D01*
X159774394Y-63820080D01*
X159865606Y-63872741D01*
X159967339Y-63900000D01*
X160072661Y-63900000D01*
X160174394Y-63872741D01*
X160265606Y-63820080D01*
X160270000Y-63815686D01*
X160270000Y-64800000D01*
X160522317Y-64800000D01*
X160724417Y-64767990D01*
X160919031Y-64704755D01*
X161101349Y-64611859D01*
X161266894Y-64491582D01*
X161266895Y-64491582D01*
X161411582Y-64346895D01*
X161411582Y-64346894D01*
X161531859Y-64181349D01*
X161624755Y-63999029D01*
X161687990Y-63804413D01*
X161696609Y-63750000D01*
X160335686Y-63750000D01*
X160340080Y-63745606D01*
X160392741Y-63654394D01*
X160420000Y-63552661D01*
X160420000Y-63447339D01*
X160392741Y-63345606D01*
X160340080Y-63254394D01*
X160335686Y-63250000D01*
X161696609Y-63250000D01*
X161687990Y-63195586D01*
X161624755Y-63000970D01*
X161531859Y-62818650D01*
X161411582Y-62653105D01*
X161411582Y-62653104D01*
X161266895Y-62508417D01*
X161101349Y-62388140D01*
X161008370Y-62340765D01*
X160957574Y-62292790D01*
X160940779Y-62224969D01*
X160963316Y-62158835D01*
X161008370Y-62119795D01*
X161008920Y-62119515D01*
X161101610Y-62072287D01*
X161203180Y-61998493D01*
X161267213Y-61951971D01*
X161267215Y-61951968D01*
X161267219Y-61951966D01*
X161411966Y-61807219D01*
X161411968Y-61807215D01*
X161411971Y-61807213D01*
X161469713Y-61727737D01*
X161532287Y-61641610D01*
X161625220Y-61459219D01*
X161688477Y-61264534D01*
X161720500Y-61062352D01*
X161720500Y-60857648D01*
X161688477Y-60655466D01*
X161625220Y-60460781D01*
X161625218Y-60460778D01*
X161625218Y-60460776D01*
X161591503Y-60394607D01*
X161532287Y-60278390D01*
X161524556Y-60267749D01*
X161411971Y-60112786D01*
X161267213Y-59968028D01*
X161101614Y-59847715D01*
X161095006Y-59844348D01*
X161008917Y-59800483D01*
X160958123Y-59752511D01*
X160941328Y-59684690D01*
X160963865Y-59618555D01*
X161008917Y-59579516D01*
X161101610Y-59532287D01*
X161131260Y-59510745D01*
X161267213Y-59411971D01*
X161267215Y-59411968D01*
X161267219Y-59411966D01*
X161411966Y-59267219D01*
X161411968Y-59267215D01*
X161411971Y-59267213D01*
X161473361Y-59182715D01*
X161532287Y-59101610D01*
X161625220Y-58919219D01*
X161688477Y-58724534D01*
X161720500Y-58522352D01*
X161720500Y-58317648D01*
X161688477Y-58115466D01*
X161625220Y-57920781D01*
X161625218Y-57920778D01*
X161625218Y-57920776D01*
X161561837Y-57796386D01*
X161532287Y-57738390D01*
X161501936Y-57696615D01*
X161411971Y-57572786D01*
X161267213Y-57428028D01*
X161101614Y-57307715D01*
X161095006Y-57304348D01*
X161008917Y-57260483D01*
X160958123Y-57212511D01*
X160941328Y-57144690D01*
X160963865Y-57078555D01*
X161008917Y-57039516D01*
X161101610Y-56992287D01*
X161122770Y-56976913D01*
X161267213Y-56871971D01*
X161267215Y-56871968D01*
X161267219Y-56871966D01*
X161411966Y-56727219D01*
X161479100Y-56634815D01*
X161534430Y-56592149D01*
X161579419Y-56583700D01*
X163002300Y-56583700D01*
X163069339Y-56603385D01*
X163115094Y-56656189D01*
X163126300Y-56707700D01*
X163126300Y-83627300D01*
X163106615Y-83694339D01*
X163053811Y-83740094D01*
X163002300Y-83751300D01*
X161579419Y-83751300D01*
X161512380Y-83731615D01*
X161479100Y-83700184D01*
X161474853Y-83694339D01*
X161456902Y-83669630D01*
X161411969Y-83607784D01*
X161267213Y-83463028D01*
X161101614Y-83342715D01*
X161095006Y-83339348D01*
X161008917Y-83295483D01*
X160958123Y-83247511D01*
X160941328Y-83179690D01*
X160963865Y-83113555D01*
X161008917Y-83074516D01*
X161101610Y-83027287D01*
X161209916Y-82948599D01*
X161267213Y-82906971D01*
X161267215Y-82906968D01*
X161267219Y-82906966D01*
X161411966Y-82762219D01*
X161411968Y-82762215D01*
X161411971Y-82762213D01*
X161473361Y-82677715D01*
X161532287Y-82596610D01*
X161625220Y-82414219D01*
X161688477Y-82219534D01*
X161720500Y-82017352D01*
X161720500Y-81812648D01*
X161705684Y-81719105D01*
X161688477Y-81610465D01*
X161657589Y-81515403D01*
X161625220Y-81415781D01*
X161625218Y-81415778D01*
X161625218Y-81415776D01*
X161591503Y-81349607D01*
X161532287Y-81233390D01*
X161491011Y-81176578D01*
X161411971Y-81067786D01*
X161267213Y-80923028D01*
X161101614Y-80802715D01*
X161095006Y-80799348D01*
X161008917Y-80755483D01*
X160958123Y-80707511D01*
X160941328Y-80639690D01*
X160963865Y-80573555D01*
X161008917Y-80534516D01*
X161101610Y-80487287D01*
X161209916Y-80408599D01*
X161267213Y-80366971D01*
X161267215Y-80366968D01*
X161267219Y-80366966D01*
X161411966Y-80222219D01*
X161411968Y-80222215D01*
X161411971Y-80222213D01*
X161473361Y-80137715D01*
X161532287Y-80056610D01*
X161625220Y-79874219D01*
X161688477Y-79679534D01*
X161720500Y-79477352D01*
X161720500Y-79272648D01*
X161688477Y-79070466D01*
X161625220Y-78875781D01*
X161625218Y-78875778D01*
X161625218Y-78875776D01*
X161560673Y-78749101D01*
X161532287Y-78693390D01*
X161524556Y-78682749D01*
X161411971Y-78527786D01*
X161267219Y-78383034D01*
X161230930Y-78356669D01*
X161188264Y-78301339D01*
X161182285Y-78231726D01*
X161214890Y-78169931D01*
X161275728Y-78135573D01*
X161290562Y-78133060D01*
X161327483Y-78129091D01*
X161462328Y-78078797D01*
X161462327Y-78078797D01*
X161462331Y-78078796D01*
X161577546Y-77992546D01*
X161663796Y-77877331D01*
X161714091Y-77742483D01*
X161720500Y-77682873D01*
X161720499Y-75987128D01*
X161714091Y-75927517D01*
X161714090Y-75927515D01*
X161663797Y-75792671D01*
X161663793Y-75792664D01*
X161577547Y-75677455D01*
X161577544Y-75677452D01*
X161462335Y-75591206D01*
X161462328Y-75591202D01*
X161327482Y-75540908D01*
X161327483Y-75540908D01*
X161267883Y-75534501D01*
X161267881Y-75534500D01*
X161267873Y-75534500D01*
X161267864Y-75534500D01*
X158772129Y-75534500D01*
X158772123Y-75534501D01*
X158712516Y-75540908D01*
X158577671Y-75591202D01*
X158577664Y-75591206D01*
X158462455Y-75677452D01*
X158462452Y-75677455D01*
X158376206Y-75792664D01*
X158376202Y-75792671D01*
X158325908Y-75927517D01*
X158319501Y-75987116D01*
X158319501Y-75987123D01*
X158319500Y-75987135D01*
X158319500Y-77682870D01*
X158319501Y-77682876D01*
X158325908Y-77742483D01*
X158376202Y-77877328D01*
X158376206Y-77877335D01*
X158462452Y-77992544D01*
X158462455Y-77992547D01*
X158577664Y-78078793D01*
X158577671Y-78078797D01*
X158622618Y-78095561D01*
X158712517Y-78129091D01*
X158749441Y-78133060D01*
X158813989Y-78159796D01*
X158853838Y-78217188D01*
X158856333Y-78287013D01*
X158820681Y-78347102D01*
X158809071Y-78356666D01*
X158772784Y-78383030D01*
X158628028Y-78527786D01*
X158507715Y-78693386D01*
X158414781Y-78875776D01*
X158351522Y-79070465D01*
X158319500Y-79272648D01*
X158319500Y-79477351D01*
X158351522Y-79679534D01*
X158414781Y-79874223D01*
X158435067Y-79914035D01*
X158495428Y-80032500D01*
X158507715Y-80056613D01*
X158628028Y-80222213D01*
X158772786Y-80366971D01*
X158927749Y-80479556D01*
X158938390Y-80487287D01*
X159029840Y-80533883D01*
X159031080Y-80534515D01*
X159081876Y-80582490D01*
X159098671Y-80650311D01*
X159076134Y-80716446D01*
X159031080Y-80755485D01*
X158938386Y-80802715D01*
X158772786Y-80923028D01*
X158628028Y-81067786D01*
X158507715Y-81233386D01*
X158414781Y-81415776D01*
X158351522Y-81610465D01*
X158319500Y-81812648D01*
X158319500Y-82017351D01*
X158351522Y-82219534D01*
X158414781Y-82414223D01*
X158435067Y-82454035D01*
X158495428Y-82572500D01*
X158507715Y-82596613D01*
X158628028Y-82762213D01*
X158772786Y-82906971D01*
X158927749Y-83019556D01*
X158938390Y-83027287D01*
X159029840Y-83073883D01*
X159031080Y-83074515D01*
X159081876Y-83122490D01*
X159098671Y-83190311D01*
X159076134Y-83256446D01*
X159031080Y-83295485D01*
X158938386Y-83342715D01*
X158772786Y-83463028D01*
X158628028Y-83607786D01*
X158507715Y-83773386D01*
X158414781Y-83955776D01*
X158351522Y-84150465D01*
X158319500Y-84352648D01*
X158319500Y-84557351D01*
X158351522Y-84759534D01*
X158414781Y-84954223D01*
X158435067Y-84994035D01*
X158495428Y-85112500D01*
X158507715Y-85136613D01*
X158628028Y-85302213D01*
X158772786Y-85446971D01*
X158927749Y-85559556D01*
X158938390Y-85567287D01*
X159029840Y-85613883D01*
X159031080Y-85614515D01*
X159081876Y-85662490D01*
X159098671Y-85730311D01*
X159076134Y-85796446D01*
X159031080Y-85835485D01*
X158938386Y-85882715D01*
X158772786Y-86003028D01*
X158628028Y-86147786D01*
X158507715Y-86313386D01*
X158414781Y-86495776D01*
X158351522Y-86690465D01*
X158319500Y-86892648D01*
X158319500Y-87097351D01*
X158351522Y-87299534D01*
X158414781Y-87494223D01*
X158435067Y-87534035D01*
X158495428Y-87652500D01*
X158507715Y-87676613D01*
X158628028Y-87842213D01*
X158772786Y-87986971D01*
X158927749Y-88099556D01*
X158938390Y-88107287D01*
X159009311Y-88143423D01*
X159031080Y-88154515D01*
X159081876Y-88202490D01*
X159098671Y-88270311D01*
X159076134Y-88336446D01*
X159031080Y-88375485D01*
X158938386Y-88422715D01*
X158772786Y-88543028D01*
X158628028Y-88687786D01*
X158507715Y-88853386D01*
X158414781Y-89035776D01*
X158351522Y-89230465D01*
X158330426Y-89363663D01*
X158319500Y-89432648D01*
X158319500Y-89637352D01*
X158322545Y-89656576D01*
X158351522Y-89839534D01*
X158414781Y-90034223D01*
X158507715Y-90216613D01*
X158628028Y-90382213D01*
X158772786Y-90526971D01*
X158927749Y-90639556D01*
X158938390Y-90647287D01*
X159010424Y-90683990D01*
X159031629Y-90694795D01*
X159082425Y-90742770D01*
X159099220Y-90810591D01*
X159076682Y-90876726D01*
X159031629Y-90915765D01*
X158938650Y-90963140D01*
X158773105Y-91083417D01*
X158773104Y-91083417D01*
X158628417Y-91228104D01*
X158628417Y-91228105D01*
X158508140Y-91393650D01*
X158415244Y-91575970D01*
X158352009Y-91770586D01*
X158343391Y-91825000D01*
X159704314Y-91825000D01*
X159699920Y-91829394D01*
X159647259Y-91920606D01*
X159620000Y-92022339D01*
X159620000Y-92127661D01*
X159647259Y-92229394D01*
X159699920Y-92320606D01*
X159704314Y-92325000D01*
X158343391Y-92325000D01*
X158352009Y-92379413D01*
X158415244Y-92574029D01*
X158508140Y-92756349D01*
X158628417Y-92921894D01*
X158628417Y-92921895D01*
X158773104Y-93066582D01*
X158938650Y-93186859D01*
X159120968Y-93279755D01*
X159315582Y-93342990D01*
X159517683Y-93375000D01*
X159770000Y-93375000D01*
X159770000Y-92390686D01*
X159774394Y-92395080D01*
X159865606Y-92447741D01*
X159967339Y-92475000D01*
X160072661Y-92475000D01*
X160174394Y-92447741D01*
X160265606Y-92395080D01*
X160270000Y-92390686D01*
X160270000Y-93375000D01*
X160522317Y-93375000D01*
X160724417Y-93342990D01*
X160919031Y-93279755D01*
X161101349Y-93186859D01*
X161266894Y-93066582D01*
X161266895Y-93066582D01*
X161411582Y-92921895D01*
X161411582Y-92921894D01*
X161531859Y-92756349D01*
X161624755Y-92574029D01*
X161687990Y-92379413D01*
X161696609Y-92325000D01*
X160335686Y-92325000D01*
X160340080Y-92320606D01*
X160392741Y-92229394D01*
X160420000Y-92127661D01*
X160420000Y-92022339D01*
X160392741Y-91920606D01*
X160340080Y-91829394D01*
X160335686Y-91825000D01*
X161696609Y-91825000D01*
X161687990Y-91770586D01*
X161624755Y-91575970D01*
X161531859Y-91393650D01*
X161411582Y-91228105D01*
X161411582Y-91228104D01*
X161266895Y-91083417D01*
X161101349Y-90963140D01*
X161008370Y-90915765D01*
X160957574Y-90867790D01*
X160940779Y-90799969D01*
X160963316Y-90733835D01*
X161008370Y-90694795D01*
X161008920Y-90694515D01*
X161101610Y-90647287D01*
X161209474Y-90568920D01*
X161267213Y-90526971D01*
X161267215Y-90526968D01*
X161267219Y-90526966D01*
X161411966Y-90382219D01*
X161411968Y-90382215D01*
X161411971Y-90382213D01*
X161473361Y-90297715D01*
X161532287Y-90216610D01*
X161625220Y-90034219D01*
X161688477Y-89839534D01*
X161720500Y-89637352D01*
X161720500Y-89432648D01*
X161688477Y-89230466D01*
X161625220Y-89035781D01*
X161625218Y-89035778D01*
X161625218Y-89035776D01*
X161591503Y-88969607D01*
X161532287Y-88853390D01*
X161524556Y-88842749D01*
X161411971Y-88687786D01*
X161267213Y-88543028D01*
X161101614Y-88422715D01*
X161095006Y-88419348D01*
X161008917Y-88375483D01*
X160958123Y-88327511D01*
X160941328Y-88259690D01*
X160963865Y-88193555D01*
X161008917Y-88154516D01*
X161101610Y-88107287D01*
X161209916Y-88028599D01*
X161267213Y-87986971D01*
X161267215Y-87986968D01*
X161267219Y-87986966D01*
X161411966Y-87842219D01*
X161411968Y-87842215D01*
X161411971Y-87842213D01*
X161473361Y-87757715D01*
X161532287Y-87676610D01*
X161625220Y-87494219D01*
X161688477Y-87299534D01*
X161720500Y-87097352D01*
X161720500Y-86892648D01*
X161708320Y-86815745D01*
X161688477Y-86690465D01*
X161644752Y-86555894D01*
X161625220Y-86495781D01*
X161625218Y-86495778D01*
X161625218Y-86495776D01*
X161556698Y-86361300D01*
X161532287Y-86313390D01*
X161501936Y-86271615D01*
X161411971Y-86147786D01*
X161267213Y-86003028D01*
X161101614Y-85882715D01*
X161095006Y-85879348D01*
X161008917Y-85835483D01*
X160958123Y-85787511D01*
X160941328Y-85719690D01*
X160963865Y-85653555D01*
X161008917Y-85614516D01*
X161101610Y-85567287D01*
X161209916Y-85488599D01*
X161267213Y-85446971D01*
X161267215Y-85446968D01*
X161267219Y-85446966D01*
X161411966Y-85302219D01*
X161479100Y-85209815D01*
X161534430Y-85167149D01*
X161579419Y-85158700D01*
X163002300Y-85158700D01*
X163069339Y-85178385D01*
X163115094Y-85231189D01*
X163126300Y-85282700D01*
X163126300Y-94422300D01*
X163106615Y-94489339D01*
X163053811Y-94535094D01*
X163002300Y-94546300D01*
X137987700Y-94546300D01*
X137920661Y-94526615D01*
X137874906Y-94473811D01*
X137863700Y-94422300D01*
X137863700Y-72478839D01*
X137883385Y-72411800D01*
X137936189Y-72366045D01*
X137949378Y-72360909D01*
X138059219Y-72325220D01*
X138241610Y-72232287D01*
X138343180Y-72158493D01*
X138407213Y-72111971D01*
X138407215Y-72111968D01*
X138407219Y-72111966D01*
X138551966Y-71967219D01*
X138551968Y-71967215D01*
X138551971Y-71967213D01*
X138640190Y-71845788D01*
X138672287Y-71801610D01*
X138765220Y-71619219D01*
X138828477Y-71424534D01*
X138860500Y-71222352D01*
X138860500Y-71017648D01*
X138828477Y-70815466D01*
X138765220Y-70620781D01*
X138765218Y-70620778D01*
X138765218Y-70620776D01*
X138698677Y-70490184D01*
X138672287Y-70438390D01*
X138664556Y-70427749D01*
X138551971Y-70272786D01*
X138407213Y-70128028D01*
X138241611Y-70007713D01*
X138148369Y-69960203D01*
X138097574Y-69912229D01*
X138080779Y-69844407D01*
X138103317Y-69778273D01*
X138148371Y-69739234D01*
X138241347Y-69691861D01*
X138406894Y-69571582D01*
X138406895Y-69571582D01*
X138551582Y-69426895D01*
X138551582Y-69426894D01*
X138671859Y-69261349D01*
X138764755Y-69079029D01*
X138827990Y-68884413D01*
X138836609Y-68830000D01*
X137475686Y-68830000D01*
X137480080Y-68825606D01*
X137532741Y-68734394D01*
X137560000Y-68632661D01*
X137560000Y-68527339D01*
X137532741Y-68425606D01*
X137480080Y-68334394D01*
X137475686Y-68330000D01*
X138836609Y-68330000D01*
X138827990Y-68275586D01*
X138764755Y-68080970D01*
X138671859Y-67898650D01*
X138551582Y-67733105D01*
X138551582Y-67733104D01*
X138406895Y-67588417D01*
X138241349Y-67468140D01*
X138147820Y-67420485D01*
X138097024Y-67372511D01*
X138080229Y-67304690D01*
X138102766Y-67238555D01*
X138147820Y-67199515D01*
X138241349Y-67151859D01*
X138406894Y-67031582D01*
X138406895Y-67031582D01*
X138551582Y-66886895D01*
X138551582Y-66886894D01*
X138671859Y-66721349D01*
X138764755Y-66539029D01*
X138827990Y-66344413D01*
X138836609Y-66290000D01*
X137475686Y-66290000D01*
X137480080Y-66285606D01*
X137532741Y-66194394D01*
X137560000Y-66092661D01*
X137560000Y-65987339D01*
X137532741Y-65885606D01*
X137480080Y-65794394D01*
X137475686Y-65790000D01*
X138836609Y-65790000D01*
X138827990Y-65735586D01*
X138764755Y-65540970D01*
X138671859Y-65358650D01*
X138551582Y-65193105D01*
X138551582Y-65193104D01*
X138406895Y-65048417D01*
X138241349Y-64928140D01*
X138147820Y-64880485D01*
X138097024Y-64832511D01*
X138080229Y-64764690D01*
X138102766Y-64698555D01*
X138147820Y-64659515D01*
X138241349Y-64611859D01*
X138406894Y-64491582D01*
X138406895Y-64491582D01*
X138551582Y-64346895D01*
X138551582Y-64346894D01*
X138671859Y-64181349D01*
X138764755Y-63999029D01*
X138827990Y-63804413D01*
X138836609Y-63750000D01*
X137475686Y-63750000D01*
X137480080Y-63745606D01*
X137532741Y-63654394D01*
X137560000Y-63552661D01*
X137560000Y-63447339D01*
X137532741Y-63345606D01*
X137480080Y-63254394D01*
X137475686Y-63250000D01*
X138836609Y-63250000D01*
X138827990Y-63195586D01*
X138764755Y-63000970D01*
X138671859Y-62818650D01*
X138551582Y-62653105D01*
X138551582Y-62653104D01*
X138406895Y-62508417D01*
X138241349Y-62388140D01*
X138148370Y-62340765D01*
X138097574Y-62292790D01*
X138080779Y-62224969D01*
X138103316Y-62158835D01*
X138148370Y-62119795D01*
X138148920Y-62119515D01*
X138241610Y-62072287D01*
X138343180Y-61998493D01*
X138407213Y-61951971D01*
X138407215Y-61951968D01*
X138407219Y-61951966D01*
X138551966Y-61807219D01*
X138551968Y-61807215D01*
X138551971Y-61807213D01*
X138609713Y-61727737D01*
X138672287Y-61641610D01*
X138765220Y-61459219D01*
X138828477Y-61264534D01*
X138860500Y-61062352D01*
X138860500Y-60857648D01*
X138828477Y-60655466D01*
X138765220Y-60460781D01*
X138765218Y-60460778D01*
X138765218Y-60460776D01*
X138731503Y-60394607D01*
X138672287Y-60278390D01*
X138664556Y-60267749D01*
X138551971Y-60112786D01*
X138407213Y-59968028D01*
X138241614Y-59847715D01*
X138235006Y-59844348D01*
X138148917Y-59800483D01*
X138098123Y-59752511D01*
X138081328Y-59684690D01*
X138103865Y-59618555D01*
X138148917Y-59579516D01*
X138241610Y-59532287D01*
X138271260Y-59510745D01*
X138407213Y-59411971D01*
X138407215Y-59411968D01*
X138407219Y-59411966D01*
X138551966Y-59267219D01*
X138551968Y-59267215D01*
X138551971Y-59267213D01*
X138613361Y-59182715D01*
X138672287Y-59101610D01*
X138765220Y-58919219D01*
X138828477Y-58724534D01*
X138860500Y-58522352D01*
X138860500Y-58419996D01*
X139529435Y-58419996D01*
X139529435Y-58420003D01*
X139549630Y-58599249D01*
X139549631Y-58599254D01*
X139609211Y-58769523D01*
X139665500Y-58859105D01*
X139703274Y-58919223D01*
X139705185Y-58922263D01*
X139707445Y-58925097D01*
X139708334Y-58927275D01*
X139708889Y-58928158D01*
X139708734Y-58928255D01*
X139733855Y-58989783D01*
X139734500Y-59002412D01*
X139734500Y-76252587D01*
X139714815Y-76319626D01*
X139707450Y-76329896D01*
X139705186Y-76332734D01*
X139609211Y-76485476D01*
X139549631Y-76655745D01*
X139549630Y-76655750D01*
X139529435Y-76834996D01*
X139529435Y-76835003D01*
X139549630Y-77014249D01*
X139549631Y-77014254D01*
X139609211Y-77184523D01*
X139643126Y-77238498D01*
X139703274Y-77334223D01*
X139705185Y-77337263D01*
X139707445Y-77340097D01*
X139708334Y-77342275D01*
X139708889Y-77343158D01*
X139708734Y-77343255D01*
X139733855Y-77404783D01*
X139734500Y-77417412D01*
X139734500Y-87682587D01*
X139714815Y-87749626D01*
X139707450Y-87759896D01*
X139705186Y-87762734D01*
X139609211Y-87915476D01*
X139549631Y-88085745D01*
X139549630Y-88085750D01*
X139529435Y-88264996D01*
X139529435Y-88265003D01*
X139549630Y-88444249D01*
X139549631Y-88444254D01*
X139609211Y-88614523D01*
X139655246Y-88687786D01*
X139705184Y-88767262D01*
X139832738Y-88894816D01*
X139985478Y-88990789D01*
X140114058Y-89035781D01*
X140155745Y-89050368D01*
X140155750Y-89050369D01*
X140334996Y-89070565D01*
X140335000Y-89070565D01*
X140335004Y-89070565D01*
X140514249Y-89050369D01*
X140514252Y-89050368D01*
X140514255Y-89050368D01*
X140684522Y-88990789D01*
X140837262Y-88894816D01*
X140964816Y-88767262D01*
X141060789Y-88614522D01*
X141120368Y-88444255D01*
X141120369Y-88444249D01*
X141140565Y-88265003D01*
X141140565Y-88264996D01*
X141120369Y-88085750D01*
X141120368Y-88085745D01*
X141060788Y-87915475D01*
X141020682Y-87851648D01*
X141001681Y-87784411D01*
X141022048Y-87717576D01*
X141075316Y-87672361D01*
X141144572Y-87663123D01*
X141191648Y-87680682D01*
X141255475Y-87720788D01*
X141425745Y-87780368D01*
X141425750Y-87780369D01*
X141604996Y-87800565D01*
X141605000Y-87800565D01*
X141605004Y-87800565D01*
X141784249Y-87780369D01*
X141784252Y-87780368D01*
X141784255Y-87780368D01*
X141954522Y-87720789D01*
X142107262Y-87624816D01*
X142234816Y-87497262D01*
X142330789Y-87344522D01*
X142390368Y-87174255D01*
X142391347Y-87165565D01*
X142410565Y-86995003D01*
X142410565Y-86994996D01*
X142390369Y-86815750D01*
X142390368Y-86815745D01*
X142346531Y-86690466D01*
X142330789Y-86645478D01*
X142234816Y-86492738D01*
X142234814Y-86492736D01*
X142234813Y-86492734D01*
X142232550Y-86489896D01*
X142231659Y-86487715D01*
X142231111Y-86486842D01*
X142231264Y-86486745D01*
X142206144Y-86425209D01*
X142205500Y-86412587D01*
X142205500Y-76147412D01*
X142225185Y-76080373D01*
X142232555Y-76070097D01*
X142234810Y-76067267D01*
X142234816Y-76067262D01*
X142330789Y-75914522D01*
X142390368Y-75744255D01*
X142390369Y-75744249D01*
X142410565Y-75565003D01*
X142410565Y-75564996D01*
X142390369Y-75385750D01*
X142390368Y-75385745D01*
X142330788Y-75215476D01*
X142296873Y-75161501D01*
X142234816Y-75062738D01*
X142234814Y-75062736D01*
X142234813Y-75062734D01*
X142232550Y-75059896D01*
X142231659Y-75057715D01*
X142231111Y-75056842D01*
X142231264Y-75056745D01*
X142206144Y-74995209D01*
X142205500Y-74982587D01*
X142205500Y-66622412D01*
X142225185Y-66555373D01*
X142232555Y-66545097D01*
X142234810Y-66542267D01*
X142234816Y-66542262D01*
X142330789Y-66389522D01*
X142390368Y-66219255D01*
X142393169Y-66194394D01*
X142410565Y-66040003D01*
X142410565Y-66039996D01*
X142390369Y-65860750D01*
X142390368Y-65860745D01*
X142346573Y-65735586D01*
X142330789Y-65690478D01*
X142234816Y-65537738D01*
X142107262Y-65410184D01*
X141954523Y-65314211D01*
X141784254Y-65254631D01*
X141784249Y-65254630D01*
X141605004Y-65234435D01*
X141604996Y-65234435D01*
X141425750Y-65254630D01*
X141425745Y-65254631D01*
X141255476Y-65314211D01*
X141125472Y-65395899D01*
X141058235Y-65414899D01*
X140991400Y-65394531D01*
X140946186Y-65341263D01*
X140935500Y-65290905D01*
X140935500Y-59002412D01*
X140955185Y-58935373D01*
X140962555Y-58925097D01*
X140964810Y-58922267D01*
X140964816Y-58922262D01*
X141060789Y-58769522D01*
X141120368Y-58599255D01*
X141120369Y-58599249D01*
X141140565Y-58420003D01*
X141140565Y-58419996D01*
X141120369Y-58240750D01*
X141120368Y-58240745D01*
X141076531Y-58115466D01*
X141060789Y-58070478D01*
X140964816Y-57917738D01*
X140837262Y-57790184D01*
X140814528Y-57775899D01*
X140684523Y-57694211D01*
X140514254Y-57634631D01*
X140514249Y-57634630D01*
X140335004Y-57614435D01*
X140334996Y-57614435D01*
X140155750Y-57634630D01*
X140155745Y-57634631D01*
X139985476Y-57694211D01*
X139832737Y-57790184D01*
X139705184Y-57917737D01*
X139609211Y-58070476D01*
X139549631Y-58240745D01*
X139549630Y-58240750D01*
X139529435Y-58419996D01*
X138860500Y-58419996D01*
X138860500Y-58317648D01*
X138828477Y-58115466D01*
X138765220Y-57920781D01*
X138765218Y-57920778D01*
X138765218Y-57920776D01*
X138701837Y-57796386D01*
X138672287Y-57738390D01*
X138641936Y-57696615D01*
X138551971Y-57572786D01*
X138407213Y-57428028D01*
X138241614Y-57307715D01*
X138235006Y-57304348D01*
X138148917Y-57260483D01*
X138098123Y-57212511D01*
X138081328Y-57144690D01*
X138103865Y-57078555D01*
X138148917Y-57039516D01*
X138241610Y-56992287D01*
X138262770Y-56976913D01*
X138407213Y-56871971D01*
X138407215Y-56871968D01*
X138407219Y-56871966D01*
X138551966Y-56727219D01*
X138551968Y-56727215D01*
X138551971Y-56727213D01*
X138619100Y-56634816D01*
X138672287Y-56561610D01*
X138765220Y-56379219D01*
X138828477Y-56184534D01*
X138860500Y-55982352D01*
X138860500Y-55777648D01*
X143079500Y-55777648D01*
X143079500Y-55982351D01*
X143111522Y-56184534D01*
X143174781Y-56379223D01*
X143267715Y-56561613D01*
X143388028Y-56727213D01*
X143532786Y-56871971D01*
X143687749Y-56984556D01*
X143698390Y-56992287D01*
X143787732Y-57037809D01*
X143791080Y-57039515D01*
X143841876Y-57087490D01*
X143858671Y-57155311D01*
X143836134Y-57221446D01*
X143791080Y-57260485D01*
X143698386Y-57307715D01*
X143532786Y-57428028D01*
X143388028Y-57572786D01*
X143267715Y-57738386D01*
X143174781Y-57920776D01*
X143111522Y-58115465D01*
X143079500Y-58317648D01*
X143079500Y-58522351D01*
X143111522Y-58724534D01*
X143174781Y-58919223D01*
X143267715Y-59101613D01*
X143388028Y-59267213D01*
X143532786Y-59411971D01*
X143687749Y-59524556D01*
X143698390Y-59532287D01*
X143787212Y-59577544D01*
X143791080Y-59579515D01*
X143841876Y-59627490D01*
X143858671Y-59695311D01*
X143836134Y-59761446D01*
X143791080Y-59800485D01*
X143698386Y-59847715D01*
X143532786Y-59968028D01*
X143388028Y-60112786D01*
X143267715Y-60278386D01*
X143174781Y-60460776D01*
X143111522Y-60655465D01*
X143079500Y-60857648D01*
X143079500Y-61062351D01*
X143111522Y-61264534D01*
X143174781Y-61459223D01*
X143267715Y-61641613D01*
X143388028Y-61807213D01*
X143532786Y-61951971D01*
X143687749Y-62064556D01*
X143698390Y-62072287D01*
X143789840Y-62118883D01*
X143791080Y-62119515D01*
X143841876Y-62167490D01*
X143858671Y-62235311D01*
X143836134Y-62301446D01*
X143791080Y-62340485D01*
X143698386Y-62387715D01*
X143532786Y-62508028D01*
X143388028Y-62652786D01*
X143267715Y-62818386D01*
X143174781Y-63000776D01*
X143111522Y-63195465D01*
X143079500Y-63397648D01*
X143079500Y-63602351D01*
X143111522Y-63804534D01*
X143174781Y-63999223D01*
X143267715Y-64181613D01*
X143388028Y-64347213D01*
X143532786Y-64491971D01*
X143687749Y-64604556D01*
X143698390Y-64612287D01*
X143789840Y-64658883D01*
X143791080Y-64659515D01*
X143841876Y-64707490D01*
X143858671Y-64775311D01*
X143836134Y-64841446D01*
X143791080Y-64880485D01*
X143698386Y-64927715D01*
X143532786Y-65048028D01*
X143388028Y-65192786D01*
X143267715Y-65358386D01*
X143174781Y-65540776D01*
X143111522Y-65735465D01*
X143079500Y-65937648D01*
X143079500Y-66142351D01*
X143111522Y-66344534D01*
X143174781Y-66539223D01*
X143267715Y-66721613D01*
X143388028Y-66887213D01*
X143532786Y-67031971D01*
X143680701Y-67139435D01*
X143698390Y-67152287D01*
X143783995Y-67195905D01*
X143791080Y-67199515D01*
X143841876Y-67247490D01*
X143858671Y-67315311D01*
X143836134Y-67381446D01*
X143791080Y-67420485D01*
X143698386Y-67467715D01*
X143532786Y-67588028D01*
X143388028Y-67732786D01*
X143267715Y-67898386D01*
X143174781Y-68080776D01*
X143111522Y-68275465D01*
X143079500Y-68477648D01*
X143079500Y-68682351D01*
X143111522Y-68884534D01*
X143174781Y-69079223D01*
X143267715Y-69261613D01*
X143388028Y-69427213D01*
X143532784Y-69571969D01*
X143569068Y-69598330D01*
X143611735Y-69653659D01*
X143617715Y-69723273D01*
X143585109Y-69785068D01*
X143524271Y-69819426D01*
X143509440Y-69821938D01*
X143472519Y-69825907D01*
X143337671Y-69876202D01*
X143337664Y-69876206D01*
X143222455Y-69962452D01*
X143222452Y-69962455D01*
X143136206Y-70077664D01*
X143136202Y-70077671D01*
X143085908Y-70212517D01*
X143079501Y-70272116D01*
X143079501Y-70272123D01*
X143079500Y-70272135D01*
X143079500Y-71967870D01*
X143079501Y-71967876D01*
X143085908Y-72027483D01*
X143136202Y-72162328D01*
X143136206Y-72162335D01*
X143222452Y-72277544D01*
X143222455Y-72277547D01*
X143337664Y-72363793D01*
X143337671Y-72363797D01*
X143472517Y-72414091D01*
X143472516Y-72414091D01*
X143479444Y-72414835D01*
X143532127Y-72420500D01*
X146027872Y-72420499D01*
X146087483Y-72414091D01*
X146222331Y-72363796D01*
X146337546Y-72277546D01*
X146423796Y-72162331D01*
X146474091Y-72027483D01*
X146480500Y-71967873D01*
X146480499Y-70272128D01*
X146474091Y-70212517D01*
X146423796Y-70077669D01*
X146423795Y-70077668D01*
X146423793Y-70077664D01*
X146337547Y-69962455D01*
X146337544Y-69962452D01*
X146222335Y-69876206D01*
X146222328Y-69876202D01*
X146087482Y-69825908D01*
X146087483Y-69825908D01*
X146050560Y-69821939D01*
X145986009Y-69795201D01*
X145946160Y-69737809D01*
X145943667Y-69667984D01*
X145979319Y-69607895D01*
X145990930Y-69598331D01*
X146027219Y-69571966D01*
X146171966Y-69427219D01*
X146171968Y-69427215D01*
X146171971Y-69427213D01*
X146260190Y-69305788D01*
X146292287Y-69261610D01*
X146385220Y-69079219D01*
X146448477Y-68884534D01*
X146480500Y-68682352D01*
X146480500Y-68477648D01*
X146459425Y-68344586D01*
X146448477Y-68275465D01*
X146404752Y-68140894D01*
X146385220Y-68080781D01*
X146385218Y-68080778D01*
X146385218Y-68080776D01*
X146351503Y-68014607D01*
X146292287Y-67898390D01*
X146284556Y-67887749D01*
X146171971Y-67732786D01*
X146027213Y-67588028D01*
X145861614Y-67467715D01*
X145855006Y-67464348D01*
X145768917Y-67420483D01*
X145718123Y-67372511D01*
X145701328Y-67304690D01*
X145723865Y-67238555D01*
X145768917Y-67199516D01*
X145861610Y-67152287D01*
X145963180Y-67078493D01*
X146027213Y-67031971D01*
X146027215Y-67031968D01*
X146027219Y-67031966D01*
X146171966Y-66887219D01*
X146171968Y-66887215D01*
X146171971Y-66887213D01*
X146233361Y-66802715D01*
X146292287Y-66721610D01*
X146385220Y-66539219D01*
X146448477Y-66344534D01*
X146480500Y-66142352D01*
X146480500Y-65937648D01*
X146459425Y-65804586D01*
X146448477Y-65735465D01*
X146389960Y-65555369D01*
X146385220Y-65540781D01*
X146385218Y-65540778D01*
X146385218Y-65540776D01*
X146321369Y-65415467D01*
X146292287Y-65358390D01*
X146278768Y-65339783D01*
X146171971Y-65192786D01*
X146027213Y-65048028D01*
X145861614Y-64927715D01*
X145855006Y-64924348D01*
X145768917Y-64880483D01*
X145718123Y-64832511D01*
X145701328Y-64764690D01*
X145723865Y-64698555D01*
X145768917Y-64659516D01*
X145861610Y-64612287D01*
X145963180Y-64538493D01*
X146027213Y-64491971D01*
X146027215Y-64491968D01*
X146027219Y-64491966D01*
X146171966Y-64347219D01*
X146171968Y-64347215D01*
X146171971Y-64347213D01*
X146260190Y-64225788D01*
X146292287Y-64181610D01*
X146385220Y-63999219D01*
X146448477Y-63804534D01*
X146480500Y-63602352D01*
X146480500Y-63397648D01*
X146458889Y-63261206D01*
X146448477Y-63195465D01*
X146385281Y-63000970D01*
X146385220Y-63000781D01*
X146385218Y-63000778D01*
X146385218Y-63000776D01*
X146294451Y-62822638D01*
X146292287Y-62818390D01*
X146262524Y-62777424D01*
X146171971Y-62652786D01*
X146027213Y-62508028D01*
X145861614Y-62387715D01*
X145855006Y-62384348D01*
X145768917Y-62340483D01*
X145718123Y-62292511D01*
X145701328Y-62224690D01*
X145723865Y-62158555D01*
X145768917Y-62119516D01*
X145861610Y-62072287D01*
X145963180Y-61998493D01*
X146027213Y-61951971D01*
X146027215Y-61951968D01*
X146027219Y-61951966D01*
X146171966Y-61807219D01*
X146171968Y-61807215D01*
X146171971Y-61807213D01*
X146229713Y-61727737D01*
X146292287Y-61641610D01*
X146385220Y-61459219D01*
X146448477Y-61264534D01*
X146480500Y-61062352D01*
X146480500Y-60857648D01*
X146448477Y-60655466D01*
X146385220Y-60460781D01*
X146385218Y-60460778D01*
X146385218Y-60460776D01*
X146351503Y-60394607D01*
X146292287Y-60278390D01*
X146284556Y-60267749D01*
X146171971Y-60112786D01*
X146027213Y-59968028D01*
X145861614Y-59847715D01*
X145855006Y-59844348D01*
X145768917Y-59800483D01*
X145718123Y-59752511D01*
X145701328Y-59684690D01*
X145723865Y-59618555D01*
X145768917Y-59579516D01*
X145861610Y-59532287D01*
X145891260Y-59510745D01*
X146027213Y-59411971D01*
X146027215Y-59411968D01*
X146027219Y-59411966D01*
X146171966Y-59267219D01*
X146171968Y-59267215D01*
X146171971Y-59267213D01*
X146233361Y-59182715D01*
X146292287Y-59101610D01*
X146385220Y-58919219D01*
X146448477Y-58724534D01*
X146480500Y-58522352D01*
X146480500Y-58317648D01*
X146448477Y-58115466D01*
X146385220Y-57920781D01*
X146385218Y-57920778D01*
X146385218Y-57920776D01*
X146321837Y-57796386D01*
X146292287Y-57738390D01*
X146261936Y-57696615D01*
X146171971Y-57572786D01*
X146027213Y-57428028D01*
X145861614Y-57307715D01*
X145855006Y-57304348D01*
X145768917Y-57260483D01*
X145718123Y-57212511D01*
X145701328Y-57144690D01*
X145723865Y-57078555D01*
X145768917Y-57039516D01*
X145861610Y-56992287D01*
X145882770Y-56976913D01*
X146027213Y-56871971D01*
X146027215Y-56871968D01*
X146027219Y-56871966D01*
X146171966Y-56727219D01*
X146171968Y-56727215D01*
X146171971Y-56727213D01*
X146239100Y-56634816D01*
X146292287Y-56561610D01*
X146385220Y-56379219D01*
X146448477Y-56184534D01*
X146480500Y-55982352D01*
X146480500Y-55777648D01*
X146448477Y-55575466D01*
X146385220Y-55380781D01*
X146385218Y-55380778D01*
X146385218Y-55380776D01*
X146318677Y-55250184D01*
X146292287Y-55198390D01*
X146261936Y-55156615D01*
X146171971Y-55032786D01*
X146027213Y-54888028D01*
X145861611Y-54767713D01*
X145768369Y-54720203D01*
X145717574Y-54672229D01*
X145700779Y-54604407D01*
X145723317Y-54538273D01*
X145768371Y-54499234D01*
X145861347Y-54451861D01*
X146026894Y-54331582D01*
X146026895Y-54331582D01*
X146171582Y-54186895D01*
X146171582Y-54186894D01*
X146291859Y-54021349D01*
X146384755Y-53839029D01*
X146447990Y-53644413D01*
X146456609Y-53590000D01*
X145095686Y-53590000D01*
X145100080Y-53585606D01*
X145152741Y-53494394D01*
X145180000Y-53392661D01*
X145180000Y-53287339D01*
X145152741Y-53185606D01*
X145100080Y-53094394D01*
X145095686Y-53090000D01*
X146456609Y-53090000D01*
X146447990Y-53035586D01*
X146384755Y-52840970D01*
X146291859Y-52658650D01*
X146171582Y-52493105D01*
X146171582Y-52493104D01*
X146026895Y-52348417D01*
X145861349Y-52228140D01*
X145679031Y-52135244D01*
X145484417Y-52072009D01*
X145471707Y-52069996D01*
X148419435Y-52069996D01*
X148419435Y-52070003D01*
X148439630Y-52249249D01*
X148439631Y-52249254D01*
X148499211Y-52419523D01*
X148530047Y-52468597D01*
X148584106Y-52554632D01*
X148595185Y-52572263D01*
X148597445Y-52575097D01*
X148598334Y-52577275D01*
X148598889Y-52578158D01*
X148598734Y-52578255D01*
X148623855Y-52639783D01*
X148624500Y-52652412D01*
X148624500Y-62917587D01*
X148604815Y-62984626D01*
X148597450Y-62994896D01*
X148595186Y-62997734D01*
X148499211Y-63150476D01*
X148439631Y-63320745D01*
X148439630Y-63320750D01*
X148419435Y-63499996D01*
X148419435Y-63500000D01*
X148439630Y-63679249D01*
X148439631Y-63679254D01*
X148499211Y-63849523D01*
X148570931Y-63963664D01*
X148595184Y-64002262D01*
X148722738Y-64129816D01*
X148875478Y-64225789D01*
X149045745Y-64285368D01*
X149045750Y-64285369D01*
X149224996Y-64305565D01*
X149225000Y-64305565D01*
X149225004Y-64305565D01*
X149404249Y-64285369D01*
X149404252Y-64285368D01*
X149404255Y-64285368D01*
X149574522Y-64225789D01*
X149704528Y-64144100D01*
X149771764Y-64125100D01*
X149838599Y-64145467D01*
X149883814Y-64198735D01*
X149894500Y-64249094D01*
X149894500Y-80062587D01*
X149874815Y-80129626D01*
X149867450Y-80139896D01*
X149865186Y-80142734D01*
X149769211Y-80295476D01*
X149709631Y-80465745D01*
X149709630Y-80465750D01*
X149689435Y-80644996D01*
X149689435Y-80645003D01*
X149709630Y-80824249D01*
X149709631Y-80824254D01*
X149769211Y-80994523D01*
X149865184Y-81147262D01*
X149992738Y-81274816D01*
X150145478Y-81370789D01*
X150274058Y-81415781D01*
X150315745Y-81430368D01*
X150315750Y-81430369D01*
X150494996Y-81450565D01*
X150495000Y-81450565D01*
X150495004Y-81450565D01*
X150674249Y-81430369D01*
X150674252Y-81430368D01*
X150674255Y-81430368D01*
X150844522Y-81370789D01*
X150997262Y-81274816D01*
X151124816Y-81147262D01*
X151220789Y-80994522D01*
X151280368Y-80824255D01*
X151280369Y-80824249D01*
X151300565Y-80645003D01*
X151300565Y-80644996D01*
X151280369Y-80465750D01*
X151280368Y-80465745D01*
X151220788Y-80295475D01*
X151180682Y-80231648D01*
X151161681Y-80164411D01*
X151182048Y-80097576D01*
X151235316Y-80052361D01*
X151304572Y-80043123D01*
X151351648Y-80060682D01*
X151415475Y-80100788D01*
X151585745Y-80160368D01*
X151585750Y-80160369D01*
X151764996Y-80180565D01*
X151765000Y-80180565D01*
X151765004Y-80180565D01*
X151944249Y-80160369D01*
X151944252Y-80160368D01*
X151944255Y-80160368D01*
X152114522Y-80100789D01*
X152267262Y-80004816D01*
X152394816Y-79877262D01*
X152490789Y-79724522D01*
X152550368Y-79554255D01*
X152550369Y-79554249D01*
X152570565Y-79375003D01*
X152570565Y-79374996D01*
X152550369Y-79195750D01*
X152550368Y-79195745D01*
X152506531Y-79070466D01*
X152490789Y-79025478D01*
X152394816Y-78872738D01*
X152394814Y-78872736D01*
X152394813Y-78872734D01*
X152392550Y-78869896D01*
X152391659Y-78867715D01*
X152391111Y-78866842D01*
X152391264Y-78866745D01*
X152366144Y-78805209D01*
X152365500Y-78792587D01*
X152365500Y-69329094D01*
X152385185Y-69262055D01*
X152437989Y-69216300D01*
X152507147Y-69206356D01*
X152555471Y-69224100D01*
X152593193Y-69247802D01*
X152685475Y-69305788D01*
X152855745Y-69365368D01*
X152855750Y-69365369D01*
X153034996Y-69385565D01*
X153035000Y-69385565D01*
X153035004Y-69385565D01*
X153214249Y-69365369D01*
X153214252Y-69365368D01*
X153214255Y-69365368D01*
X153384522Y-69305789D01*
X153514528Y-69224100D01*
X153581764Y-69205100D01*
X153648599Y-69225467D01*
X153693814Y-69278735D01*
X153704500Y-69329094D01*
X153704500Y-90222587D01*
X153684815Y-90289626D01*
X153677450Y-90299896D01*
X153675186Y-90302734D01*
X153579211Y-90455476D01*
X153519631Y-90625745D01*
X153519630Y-90625750D01*
X153499435Y-90804996D01*
X153499435Y-90805003D01*
X153519630Y-90984249D01*
X153519631Y-90984254D01*
X153579211Y-91154523D01*
X153625446Y-91228105D01*
X153675184Y-91307262D01*
X153802738Y-91434816D01*
X153955478Y-91530789D01*
X154084058Y-91575781D01*
X154125745Y-91590368D01*
X154125750Y-91590369D01*
X154304996Y-91610565D01*
X154305000Y-91610565D01*
X154305004Y-91610565D01*
X154484249Y-91590369D01*
X154484252Y-91590368D01*
X154484255Y-91590368D01*
X154654522Y-91530789D01*
X154807262Y-91434816D01*
X154934816Y-91307262D01*
X155030789Y-91154522D01*
X155090368Y-90984255D01*
X155090369Y-90984249D01*
X155110565Y-90805003D01*
X155110565Y-90804996D01*
X155090369Y-90625750D01*
X155090368Y-90625745D01*
X155030788Y-90455476D01*
X154984757Y-90382219D01*
X154934816Y-90302738D01*
X154934814Y-90302736D01*
X154934813Y-90302734D01*
X154932550Y-90299896D01*
X154931659Y-90297715D01*
X154931111Y-90296842D01*
X154931264Y-90296745D01*
X154906144Y-90235209D01*
X154905500Y-90222587D01*
X154905500Y-86474094D01*
X154925185Y-86407055D01*
X154977989Y-86361300D01*
X155047147Y-86351356D01*
X155095471Y-86369100D01*
X155133193Y-86392802D01*
X155225475Y-86450788D01*
X155395745Y-86510368D01*
X155395750Y-86510369D01*
X155574996Y-86530565D01*
X155575000Y-86530565D01*
X155575004Y-86530565D01*
X155754249Y-86510369D01*
X155754252Y-86510368D01*
X155754255Y-86510368D01*
X155924522Y-86450789D01*
X156077262Y-86354816D01*
X156204816Y-86227262D01*
X156300789Y-86074522D01*
X156360368Y-85904255D01*
X156360369Y-85904249D01*
X156380565Y-85725003D01*
X156380565Y-85724996D01*
X156360369Y-85545750D01*
X156360368Y-85545745D01*
X156300788Y-85375476D01*
X156254755Y-85302215D01*
X156204816Y-85222738D01*
X156204814Y-85222736D01*
X156204813Y-85222734D01*
X156202550Y-85219896D01*
X156201659Y-85217715D01*
X156201111Y-85216842D01*
X156201264Y-85216745D01*
X156176144Y-85155209D01*
X156175500Y-85142587D01*
X156175500Y-77417412D01*
X156195185Y-77350373D01*
X156202555Y-77340097D01*
X156204810Y-77337267D01*
X156204816Y-77337262D01*
X156300789Y-77184522D01*
X156360368Y-77014255D01*
X156375739Y-76877834D01*
X156380565Y-76835003D01*
X156380565Y-76834996D01*
X156360369Y-76655750D01*
X156360368Y-76655745D01*
X156316531Y-76530466D01*
X156300789Y-76485478D01*
X156204816Y-76332738D01*
X156204814Y-76332736D01*
X156204813Y-76332734D01*
X156202550Y-76329896D01*
X156201659Y-76327715D01*
X156201111Y-76326842D01*
X156201264Y-76326745D01*
X156176144Y-76265209D01*
X156175500Y-76252587D01*
X156175500Y-48842412D01*
X156195185Y-48775373D01*
X156202555Y-48765097D01*
X156204810Y-48762267D01*
X156204816Y-48762262D01*
X156300789Y-48609522D01*
X156360368Y-48439255D01*
X156380565Y-48260000D01*
X156360368Y-48080745D01*
X156300789Y-47910478D01*
X156204816Y-47757738D01*
X156077262Y-47630184D01*
X156002717Y-47583344D01*
X155924523Y-47534211D01*
X155754254Y-47474631D01*
X155754249Y-47474630D01*
X155575004Y-47454435D01*
X155574996Y-47454435D01*
X155395750Y-47474630D01*
X155395745Y-47474631D01*
X155225476Y-47534211D01*
X155072737Y-47630184D01*
X154945184Y-47757737D01*
X154849211Y-47910476D01*
X154789631Y-48080745D01*
X154789630Y-48080750D01*
X154769435Y-48259996D01*
X154769435Y-48260003D01*
X154789630Y-48439249D01*
X154789631Y-48439254D01*
X154849211Y-48609523D01*
X154909515Y-48705496D01*
X154943274Y-48759223D01*
X154945185Y-48762263D01*
X154947445Y-48765097D01*
X154948334Y-48767275D01*
X154948889Y-48768158D01*
X154948734Y-48768255D01*
X154973855Y-48829783D01*
X154974500Y-48842412D01*
X154974500Y-52590905D01*
X154954815Y-52657944D01*
X154902011Y-52703699D01*
X154832853Y-52713643D01*
X154784528Y-52695899D01*
X154654523Y-52614211D01*
X154484254Y-52554631D01*
X154484249Y-52554630D01*
X154305004Y-52534435D01*
X154304996Y-52534435D01*
X154125750Y-52554630D01*
X154125745Y-52554631D01*
X153955476Y-52614211D01*
X153825472Y-52695899D01*
X153758235Y-52714899D01*
X153691400Y-52694531D01*
X153646186Y-52641263D01*
X153635500Y-52590905D01*
X153635500Y-51382412D01*
X153655185Y-51315373D01*
X153662555Y-51305097D01*
X153664810Y-51302267D01*
X153664816Y-51302262D01*
X153760789Y-51149522D01*
X153820368Y-50979255D01*
X153840565Y-50800000D01*
X153820368Y-50620745D01*
X153760789Y-50450478D01*
X153664816Y-50297738D01*
X153537262Y-50170184D01*
X153460847Y-50122169D01*
X153384523Y-50074211D01*
X153214254Y-50014631D01*
X153214249Y-50014630D01*
X153035004Y-49994435D01*
X153034996Y-49994435D01*
X152855750Y-50014630D01*
X152855745Y-50014631D01*
X152685476Y-50074211D01*
X152532737Y-50170184D01*
X152405184Y-50297737D01*
X152309211Y-50450476D01*
X152249631Y-50620745D01*
X152249630Y-50620750D01*
X152229435Y-50799996D01*
X152229435Y-50800003D01*
X152249630Y-50979249D01*
X152249631Y-50979254D01*
X152309211Y-51149523D01*
X152369515Y-51245496D01*
X152403274Y-51299223D01*
X152405185Y-51302263D01*
X152407445Y-51305097D01*
X152408334Y-51307275D01*
X152408889Y-51308158D01*
X152408734Y-51308255D01*
X152433855Y-51369783D01*
X152434500Y-51382412D01*
X152434500Y-54027587D01*
X152414815Y-54094626D01*
X152407450Y-54104896D01*
X152405186Y-54107734D01*
X152309211Y-54260476D01*
X152249631Y-54430745D01*
X152249630Y-54430750D01*
X152229435Y-54609996D01*
X152229435Y-54610003D01*
X152249630Y-54789249D01*
X152249631Y-54789254D01*
X152309211Y-54959523D01*
X152349318Y-55023352D01*
X152368318Y-55090588D01*
X152347950Y-55157424D01*
X152294683Y-55202638D01*
X152225426Y-55211876D01*
X152178352Y-55194318D01*
X152114523Y-55154211D01*
X151944254Y-55094631D01*
X151944249Y-55094630D01*
X151765004Y-55074435D01*
X151764996Y-55074435D01*
X151585750Y-55094630D01*
X151585745Y-55094631D01*
X151415476Y-55154211D01*
X151351647Y-55194318D01*
X151284410Y-55213318D01*
X151217575Y-55192950D01*
X151172361Y-55139682D01*
X151163124Y-55070426D01*
X151180682Y-55023352D01*
X151220789Y-54959522D01*
X151280368Y-54789255D01*
X151282795Y-54767715D01*
X151300565Y-54610003D01*
X151300565Y-54609996D01*
X151280369Y-54430750D01*
X151280368Y-54430745D01*
X151220788Y-54260476D01*
X151174757Y-54187219D01*
X151124816Y-54107738D01*
X150997262Y-53980184D01*
X150974528Y-53965899D01*
X150844523Y-53884211D01*
X150674254Y-53824631D01*
X150674249Y-53824630D01*
X150495004Y-53804435D01*
X150494996Y-53804435D01*
X150315750Y-53824630D01*
X150315745Y-53824631D01*
X150145476Y-53884211D01*
X150015472Y-53965899D01*
X149948235Y-53984899D01*
X149881400Y-53964531D01*
X149836186Y-53911263D01*
X149825500Y-53860905D01*
X149825500Y-52652412D01*
X149845185Y-52585373D01*
X149852555Y-52575097D01*
X149854810Y-52572267D01*
X149854816Y-52572262D01*
X149950789Y-52419522D01*
X150010368Y-52249255D01*
X150012795Y-52227715D01*
X150030565Y-52070003D01*
X150030565Y-52069996D01*
X150010369Y-51890750D01*
X150010368Y-51890745D01*
X149950788Y-51720476D01*
X149904757Y-51647219D01*
X149854816Y-51567738D01*
X149727262Y-51440184D01*
X149704528Y-51425899D01*
X149574523Y-51344211D01*
X149404254Y-51284631D01*
X149404249Y-51284630D01*
X149225004Y-51264435D01*
X149224996Y-51264435D01*
X149045750Y-51284630D01*
X149045745Y-51284631D01*
X148875476Y-51344211D01*
X148722737Y-51440184D01*
X148595184Y-51567737D01*
X148499211Y-51720476D01*
X148439631Y-51890745D01*
X148439630Y-51890750D01*
X148419435Y-52069996D01*
X145471707Y-52069996D01*
X145282317Y-52040000D01*
X145030000Y-52040000D01*
X145030000Y-53024314D01*
X145025606Y-53019920D01*
X144934394Y-52967259D01*
X144832661Y-52940000D01*
X144727339Y-52940000D01*
X144625606Y-52967259D01*
X144534394Y-53019920D01*
X144530000Y-53024314D01*
X144530000Y-52040000D01*
X144277683Y-52040000D01*
X144075582Y-52072009D01*
X143880968Y-52135244D01*
X143698650Y-52228140D01*
X143533105Y-52348417D01*
X143533104Y-52348417D01*
X143388417Y-52493104D01*
X143388417Y-52493105D01*
X143268140Y-52658650D01*
X143175244Y-52840970D01*
X143112009Y-53035586D01*
X143103391Y-53090000D01*
X144464314Y-53090000D01*
X144459920Y-53094394D01*
X144407259Y-53185606D01*
X144380000Y-53287339D01*
X144380000Y-53392661D01*
X144407259Y-53494394D01*
X144459920Y-53585606D01*
X144464314Y-53590000D01*
X143103391Y-53590000D01*
X143112009Y-53644413D01*
X143175244Y-53839029D01*
X143268140Y-54021349D01*
X143388417Y-54186894D01*
X143388417Y-54186895D01*
X143533104Y-54331582D01*
X143698652Y-54451861D01*
X143791628Y-54499234D01*
X143842425Y-54547208D01*
X143859220Y-54615029D01*
X143836683Y-54681164D01*
X143791630Y-54720203D01*
X143698388Y-54767713D01*
X143532786Y-54888028D01*
X143388028Y-55032786D01*
X143267715Y-55198386D01*
X143174781Y-55380776D01*
X143111522Y-55575465D01*
X143079500Y-55777648D01*
X138860500Y-55777648D01*
X138828477Y-55575466D01*
X138765220Y-55380781D01*
X138765218Y-55380778D01*
X138765218Y-55380776D01*
X138698677Y-55250184D01*
X138672287Y-55198390D01*
X138641936Y-55156615D01*
X138551971Y-55032786D01*
X138407213Y-54888028D01*
X138241614Y-54767715D01*
X138235006Y-54764348D01*
X138148917Y-54720483D01*
X138098123Y-54672511D01*
X138081328Y-54604690D01*
X138103865Y-54538555D01*
X138148917Y-54499516D01*
X138241610Y-54452287D01*
X138343180Y-54378493D01*
X138407213Y-54331971D01*
X138407215Y-54331968D01*
X138407219Y-54331966D01*
X138551966Y-54187219D01*
X138551968Y-54187215D01*
X138551971Y-54187213D01*
X138667944Y-54027587D01*
X138672287Y-54021610D01*
X138765220Y-53839219D01*
X138828477Y-53644534D01*
X138860500Y-53442352D01*
X138860500Y-53237648D01*
X138839425Y-53104586D01*
X138828477Y-53035465D01*
X138765218Y-52840776D01*
X138731503Y-52774607D01*
X138672287Y-52658390D01*
X138658768Y-52639783D01*
X138551971Y-52492786D01*
X138407213Y-52348028D01*
X138241613Y-52227715D01*
X138241612Y-52227714D01*
X138241610Y-52227713D01*
X138184653Y-52198691D01*
X138059223Y-52134781D01*
X137864534Y-52071522D01*
X137689995Y-52043878D01*
X137662352Y-52039500D01*
X136657648Y-52039500D01*
X136633329Y-52043351D01*
X136455465Y-52071522D01*
X136260776Y-52134781D01*
X136078386Y-52227715D01*
X135912786Y-52348028D01*
X135768028Y-52492786D01*
X135647715Y-52658386D01*
X135554781Y-52840776D01*
X135491522Y-53035465D01*
X135466973Y-53190466D01*
X135437044Y-53253601D01*
X135377732Y-53290532D01*
X135307870Y-53289534D01*
X135249637Y-53250924D01*
X135221523Y-53186960D01*
X135220500Y-53171068D01*
X135220500Y-52652412D01*
X135240185Y-52585373D01*
X135247555Y-52575097D01*
X135249810Y-52572267D01*
X135249816Y-52572262D01*
X135345789Y-52419522D01*
X135405368Y-52249255D01*
X135407795Y-52227715D01*
X135425565Y-52070003D01*
X135425565Y-52069996D01*
X135405369Y-51890750D01*
X135405368Y-51890745D01*
X135345788Y-51720476D01*
X135299757Y-51647219D01*
X135249816Y-51567738D01*
X135122262Y-51440184D01*
X135099528Y-51425899D01*
X134969523Y-51344211D01*
X134799254Y-51284631D01*
X134799249Y-51284630D01*
X134620004Y-51264435D01*
X134619996Y-51264435D01*
X134440750Y-51284630D01*
X134440745Y-51284631D01*
X134270476Y-51344211D01*
X134117737Y-51440184D01*
X133990184Y-51567737D01*
X133894211Y-51720476D01*
X133834631Y-51890745D01*
X133834630Y-51890750D01*
X133814435Y-52069996D01*
X133814435Y-52070003D01*
X133834630Y-52249249D01*
X133834631Y-52249254D01*
X133894211Y-52419523D01*
X133925047Y-52468597D01*
X133979106Y-52554632D01*
X133990185Y-52572263D01*
X133992445Y-52575097D01*
X133993334Y-52577275D01*
X133993889Y-52578158D01*
X133993734Y-52578255D01*
X134018855Y-52639783D01*
X134019500Y-52652412D01*
X134019500Y-57670905D01*
X133999815Y-57737944D01*
X133947011Y-57783699D01*
X133877853Y-57793643D01*
X133829528Y-57775899D01*
X133699523Y-57694211D01*
X133529254Y-57634631D01*
X133529249Y-57634630D01*
X133350004Y-57614435D01*
X133349996Y-57614435D01*
X133170750Y-57634630D01*
X133170745Y-57634631D01*
X133000476Y-57694211D01*
X132847737Y-57790184D01*
X132720184Y-57917737D01*
X132624211Y-58070476D01*
X132564631Y-58240745D01*
X132564630Y-58240750D01*
X132544435Y-58419996D01*
X132544435Y-58420003D01*
X132564630Y-58599249D01*
X132564631Y-58599254D01*
X132624211Y-58769523D01*
X132680500Y-58859105D01*
X132718274Y-58919223D01*
X132720185Y-58922263D01*
X132722445Y-58925097D01*
X132723334Y-58927275D01*
X132723889Y-58928158D01*
X132723734Y-58928255D01*
X132748855Y-58989783D01*
X132749500Y-59002412D01*
X132749500Y-64187587D01*
X132729815Y-64254626D01*
X132722450Y-64264896D01*
X132720186Y-64267734D01*
X132624211Y-64420476D01*
X132564631Y-64590745D01*
X132564630Y-64590750D01*
X132544435Y-64769996D01*
X132544435Y-64770003D01*
X132564630Y-64949249D01*
X132564631Y-64949254D01*
X132624211Y-65119523D01*
X132670446Y-65193105D01*
X132720184Y-65272262D01*
X132847738Y-65399816D01*
X133000478Y-65495789D01*
X133129058Y-65540781D01*
X133170745Y-65555368D01*
X133170750Y-65555369D01*
X133349996Y-65575565D01*
X133350000Y-65575565D01*
X133350004Y-65575565D01*
X133529249Y-65555369D01*
X133529252Y-65555368D01*
X133529255Y-65555368D01*
X133699522Y-65495789D01*
X133829528Y-65414100D01*
X133896764Y-65395100D01*
X133963599Y-65415467D01*
X134008814Y-65468735D01*
X134019500Y-65519094D01*
X134019500Y-66727587D01*
X133999815Y-66794626D01*
X133992450Y-66804896D01*
X133990186Y-66807734D01*
X133894211Y-66960476D01*
X133834631Y-67130745D01*
X133834630Y-67130750D01*
X133814435Y-67309996D01*
X133814435Y-67310003D01*
X133834630Y-67489249D01*
X133834631Y-67489254D01*
X133894211Y-67659523D01*
X133966416Y-67774435D01*
X133990184Y-67812262D01*
X134117738Y-67939816D01*
X134270478Y-68035789D01*
X134399058Y-68080781D01*
X134440745Y-68095368D01*
X134440750Y-68095369D01*
X134619996Y-68115565D01*
X134620000Y-68115565D01*
X134620004Y-68115565D01*
X134799249Y-68095369D01*
X134799252Y-68095368D01*
X134799255Y-68095368D01*
X134969522Y-68035789D01*
X135122262Y-67939816D01*
X135249816Y-67812262D01*
X135345789Y-67659522D01*
X135405368Y-67489255D01*
X135407795Y-67467715D01*
X135425565Y-67310003D01*
X135425565Y-67309996D01*
X135405369Y-67130750D01*
X135405368Y-67130745D01*
X135345788Y-66960476D01*
X135299757Y-66887219D01*
X135249816Y-66807738D01*
X135249814Y-66807736D01*
X135249813Y-66807734D01*
X135247550Y-66804896D01*
X135246659Y-66802715D01*
X135246111Y-66801842D01*
X135246264Y-66801745D01*
X135221144Y-66740209D01*
X135220500Y-66727587D01*
X135220500Y-66205740D01*
X135240185Y-66138701D01*
X135292989Y-66092946D01*
X135362147Y-66083002D01*
X135425703Y-66112027D01*
X135463477Y-66170805D01*
X135466973Y-66186342D01*
X135492009Y-66344417D01*
X135555244Y-66539031D01*
X135648140Y-66721349D01*
X135768417Y-66886894D01*
X135768417Y-66886895D01*
X135913104Y-67031582D01*
X136078650Y-67151859D01*
X136172179Y-67199515D01*
X136222975Y-67247490D01*
X136239770Y-67315311D01*
X136217232Y-67381446D01*
X136172179Y-67420485D01*
X136078650Y-67468140D01*
X135913105Y-67588417D01*
X135913104Y-67588417D01*
X135768417Y-67733104D01*
X135768417Y-67733105D01*
X135648140Y-67898650D01*
X135555244Y-68080970D01*
X135492009Y-68275586D01*
X135483391Y-68330000D01*
X136844314Y-68330000D01*
X136839920Y-68334394D01*
X136787259Y-68425606D01*
X136760000Y-68527339D01*
X136760000Y-68632661D01*
X136787259Y-68734394D01*
X136839920Y-68825606D01*
X136844314Y-68830000D01*
X135483391Y-68830000D01*
X135492009Y-68884413D01*
X135555244Y-69079029D01*
X135648140Y-69261349D01*
X135768417Y-69426894D01*
X135768417Y-69426895D01*
X135913104Y-69571582D01*
X136078652Y-69691861D01*
X136171628Y-69739234D01*
X136222425Y-69787208D01*
X136239220Y-69855029D01*
X136216683Y-69921164D01*
X136171630Y-69960203D01*
X136078388Y-70007713D01*
X135912786Y-70128028D01*
X135768028Y-70272786D01*
X135647715Y-70438386D01*
X135554781Y-70620776D01*
X135491522Y-70815465D01*
X135459500Y-71017648D01*
X135459500Y-71222351D01*
X135491522Y-71424534D01*
X135554781Y-71619223D01*
X135647715Y-71801613D01*
X135768028Y-71967213D01*
X135912786Y-72111971D01*
X136067749Y-72224556D01*
X136078390Y-72232287D01*
X136260781Y-72325220D01*
X136370618Y-72360908D01*
X136428294Y-72400346D01*
X136455492Y-72464704D01*
X136456300Y-72478839D01*
X136456300Y-94422300D01*
X136436615Y-94489339D01*
X136383811Y-94535094D01*
X136332300Y-94546300D01*
X113857700Y-94546300D01*
X113790661Y-94526615D01*
X113744906Y-94473811D01*
X113733700Y-94422300D01*
X113733700Y-77662700D01*
X113753385Y-77595661D01*
X113806189Y-77549906D01*
X113857700Y-77538700D01*
X115280581Y-77538700D01*
X115347620Y-77558385D01*
X115380899Y-77589815D01*
X115390288Y-77602738D01*
X115448030Y-77682215D01*
X115592786Y-77826971D01*
X115747749Y-77939556D01*
X115758390Y-77947287D01*
X115847212Y-77992544D01*
X115851080Y-77994515D01*
X115901876Y-78042490D01*
X115918671Y-78110311D01*
X115896134Y-78176446D01*
X115851080Y-78215485D01*
X115758386Y-78262715D01*
X115592786Y-78383028D01*
X115448028Y-78527786D01*
X115327715Y-78693386D01*
X115234781Y-78875776D01*
X115171522Y-79070465D01*
X115139500Y-79272648D01*
X115139500Y-79477351D01*
X115171522Y-79679534D01*
X115234781Y-79874223D01*
X115255067Y-79914035D01*
X115315428Y-80032500D01*
X115327715Y-80056613D01*
X115448028Y-80222213D01*
X115592786Y-80366971D01*
X115747749Y-80479556D01*
X115758390Y-80487287D01*
X115849840Y-80533883D01*
X115851080Y-80534515D01*
X115901876Y-80582490D01*
X115918671Y-80650311D01*
X115896134Y-80716446D01*
X115851080Y-80755485D01*
X115758386Y-80802715D01*
X115592786Y-80923028D01*
X115448028Y-81067786D01*
X115327715Y-81233386D01*
X115234781Y-81415776D01*
X115171522Y-81610465D01*
X115139500Y-81812648D01*
X115139500Y-82017351D01*
X115171522Y-82219534D01*
X115234781Y-82414223D01*
X115255067Y-82454035D01*
X115315428Y-82572500D01*
X115327715Y-82596613D01*
X115448028Y-82762213D01*
X115592786Y-82906971D01*
X115747749Y-83019556D01*
X115758390Y-83027287D01*
X115849840Y-83073883D01*
X115851080Y-83074515D01*
X115901876Y-83122490D01*
X115918671Y-83190311D01*
X115896134Y-83256446D01*
X115851080Y-83295485D01*
X115758386Y-83342715D01*
X115592786Y-83463028D01*
X115448028Y-83607786D01*
X115327715Y-83773386D01*
X115234781Y-83955776D01*
X115171522Y-84150465D01*
X115139500Y-84352648D01*
X115139500Y-84557351D01*
X115171522Y-84759534D01*
X115234781Y-84954223D01*
X115255067Y-84994035D01*
X115315428Y-85112500D01*
X115327715Y-85136613D01*
X115448028Y-85302213D01*
X115592786Y-85446971D01*
X115747749Y-85559556D01*
X115758390Y-85567287D01*
X115849840Y-85613883D01*
X115851080Y-85614515D01*
X115901876Y-85662490D01*
X115918671Y-85730311D01*
X115896134Y-85796446D01*
X115851080Y-85835485D01*
X115758386Y-85882715D01*
X115592786Y-86003028D01*
X115448028Y-86147786D01*
X115327715Y-86313386D01*
X115234781Y-86495776D01*
X115171522Y-86690465D01*
X115139500Y-86892648D01*
X115139500Y-87097351D01*
X115171522Y-87299534D01*
X115234781Y-87494223D01*
X115255067Y-87534035D01*
X115315428Y-87652500D01*
X115327715Y-87676613D01*
X115448028Y-87842213D01*
X115592786Y-87986971D01*
X115747749Y-88099556D01*
X115758390Y-88107287D01*
X115829311Y-88143423D01*
X115851080Y-88154515D01*
X115901876Y-88202490D01*
X115918671Y-88270311D01*
X115896134Y-88336446D01*
X115851080Y-88375485D01*
X115758386Y-88422715D01*
X115592786Y-88543028D01*
X115448028Y-88687786D01*
X115327715Y-88853386D01*
X115234781Y-89035776D01*
X115171522Y-89230465D01*
X115150426Y-89363663D01*
X115139500Y-89432648D01*
X115139500Y-89637352D01*
X115142545Y-89656576D01*
X115171522Y-89839534D01*
X115234781Y-90034223D01*
X115327715Y-90216613D01*
X115448028Y-90382213D01*
X115592786Y-90526971D01*
X115747749Y-90639556D01*
X115758390Y-90647287D01*
X115849840Y-90693883D01*
X115851080Y-90694515D01*
X115901876Y-90742490D01*
X115918671Y-90810311D01*
X115896134Y-90876446D01*
X115851080Y-90915485D01*
X115758386Y-90962715D01*
X115592786Y-91083028D01*
X115448028Y-91227786D01*
X115327715Y-91393386D01*
X115234781Y-91575776D01*
X115171522Y-91770465D01*
X115139500Y-91972648D01*
X115139500Y-92177351D01*
X115171522Y-92379534D01*
X115234781Y-92574223D01*
X115327715Y-92756613D01*
X115448028Y-92922213D01*
X115592786Y-93066971D01*
X115747749Y-93179556D01*
X115758390Y-93187287D01*
X115874607Y-93246503D01*
X115940776Y-93280218D01*
X115940778Y-93280218D01*
X115940781Y-93280220D01*
X116009106Y-93302420D01*
X116135465Y-93343477D01*
X116236557Y-93359488D01*
X116337648Y-93375500D01*
X116337649Y-93375500D01*
X117342351Y-93375500D01*
X117342352Y-93375500D01*
X117544534Y-93343477D01*
X117739219Y-93280220D01*
X117921610Y-93187287D01*
X118029474Y-93108920D01*
X118087213Y-93066971D01*
X118087215Y-93066968D01*
X118087219Y-93066966D01*
X118231966Y-92922219D01*
X118231968Y-92922215D01*
X118231971Y-92922213D01*
X118320190Y-92800788D01*
X118352287Y-92756610D01*
X118445220Y-92574219D01*
X118508477Y-92379534D01*
X118540500Y-92177352D01*
X118540500Y-91972648D01*
X118519506Y-91840099D01*
X118508477Y-91770465D01*
X118449960Y-91590369D01*
X118445220Y-91575781D01*
X118445218Y-91575778D01*
X118445218Y-91575776D01*
X118402830Y-91492587D01*
X118352287Y-91393390D01*
X118338326Y-91374174D01*
X118231971Y-91227786D01*
X118087213Y-91083028D01*
X117921614Y-90962715D01*
X117877033Y-90940000D01*
X117828917Y-90915483D01*
X117778123Y-90867511D01*
X117761328Y-90799690D01*
X117783865Y-90733555D01*
X117828917Y-90694516D01*
X117921610Y-90647287D01*
X118029474Y-90568920D01*
X118087213Y-90526971D01*
X118087215Y-90526968D01*
X118087219Y-90526966D01*
X118231966Y-90382219D01*
X118231968Y-90382215D01*
X118231971Y-90382213D01*
X118293361Y-90297715D01*
X118352287Y-90216610D01*
X118445220Y-90034219D01*
X118508477Y-89839534D01*
X118540500Y-89637352D01*
X118540500Y-89432648D01*
X118508477Y-89230466D01*
X118445220Y-89035781D01*
X118445218Y-89035778D01*
X118445218Y-89035776D01*
X118411503Y-88969607D01*
X118352287Y-88853390D01*
X118344556Y-88842749D01*
X118231971Y-88687786D01*
X118087213Y-88543028D01*
X117921614Y-88422715D01*
X117915006Y-88419348D01*
X117828917Y-88375483D01*
X117778123Y-88327511D01*
X117761328Y-88259690D01*
X117783865Y-88193555D01*
X117828917Y-88154516D01*
X117921610Y-88107287D01*
X118029916Y-88028599D01*
X118087213Y-87986971D01*
X118087215Y-87986968D01*
X118087219Y-87986966D01*
X118231966Y-87842219D01*
X118231968Y-87842215D01*
X118231971Y-87842213D01*
X118293361Y-87757715D01*
X118352287Y-87676610D01*
X118445220Y-87494219D01*
X118508477Y-87299534D01*
X118540500Y-87097352D01*
X118540500Y-86892648D01*
X118528320Y-86815745D01*
X118508477Y-86690465D01*
X118464752Y-86555894D01*
X118445220Y-86495781D01*
X118445218Y-86495778D01*
X118445218Y-86495776D01*
X118376698Y-86361300D01*
X118352287Y-86313390D01*
X118321936Y-86271615D01*
X118231971Y-86147786D01*
X118087213Y-86003028D01*
X117921614Y-85882715D01*
X117915006Y-85879348D01*
X117828917Y-85835483D01*
X117778123Y-85787511D01*
X117761328Y-85719690D01*
X117783865Y-85653555D01*
X117828917Y-85614516D01*
X117921610Y-85567287D01*
X118029916Y-85488599D01*
X118087213Y-85446971D01*
X118087215Y-85446968D01*
X118087219Y-85446966D01*
X118231966Y-85302219D01*
X118231968Y-85302215D01*
X118231971Y-85302213D01*
X118293361Y-85217715D01*
X118352287Y-85136610D01*
X118445220Y-84954219D01*
X118508477Y-84759534D01*
X118540500Y-84557352D01*
X118540500Y-84352648D01*
X118508477Y-84150466D01*
X118445220Y-83955781D01*
X118445218Y-83955777D01*
X118445218Y-83955776D01*
X118378677Y-83825184D01*
X118352287Y-83773390D01*
X118321936Y-83731615D01*
X118231971Y-83607786D01*
X118087213Y-83463028D01*
X117921614Y-83342715D01*
X117915006Y-83339348D01*
X117828917Y-83295483D01*
X117778123Y-83247511D01*
X117761328Y-83179690D01*
X117783865Y-83113555D01*
X117828917Y-83074516D01*
X117921610Y-83027287D01*
X118029916Y-82948599D01*
X118087213Y-82906971D01*
X118087215Y-82906968D01*
X118087219Y-82906966D01*
X118231966Y-82762219D01*
X118231968Y-82762215D01*
X118231971Y-82762213D01*
X118293361Y-82677715D01*
X118352287Y-82596610D01*
X118445220Y-82414219D01*
X118508477Y-82219534D01*
X118540500Y-82017352D01*
X118540500Y-81812648D01*
X118525684Y-81719105D01*
X118508477Y-81610465D01*
X118477589Y-81515403D01*
X118445220Y-81415781D01*
X118445218Y-81415778D01*
X118445218Y-81415776D01*
X118411503Y-81349607D01*
X118352287Y-81233390D01*
X118311011Y-81176578D01*
X118231971Y-81067786D01*
X118087213Y-80923028D01*
X117921614Y-80802715D01*
X117915006Y-80799348D01*
X117828917Y-80755483D01*
X117778123Y-80707511D01*
X117761328Y-80639690D01*
X117783865Y-80573555D01*
X117828917Y-80534516D01*
X117921610Y-80487287D01*
X118029916Y-80408599D01*
X118087213Y-80366971D01*
X118087215Y-80366968D01*
X118087219Y-80366966D01*
X118231966Y-80222219D01*
X118231968Y-80222215D01*
X118231971Y-80222213D01*
X118293361Y-80137715D01*
X118352287Y-80056610D01*
X118445220Y-79874219D01*
X118508477Y-79679534D01*
X118540500Y-79477352D01*
X118540500Y-79272648D01*
X118508477Y-79070466D01*
X118445220Y-78875781D01*
X118445218Y-78875778D01*
X118445218Y-78875776D01*
X118380673Y-78749101D01*
X118352287Y-78693390D01*
X118344556Y-78682749D01*
X118231971Y-78527786D01*
X118087213Y-78383028D01*
X117921614Y-78262715D01*
X117915006Y-78259348D01*
X117828917Y-78215483D01*
X117778123Y-78167511D01*
X117761328Y-78099690D01*
X117783865Y-78033555D01*
X117828917Y-77994516D01*
X117921610Y-77947287D01*
X117942770Y-77931913D01*
X118087213Y-77826971D01*
X118087215Y-77826968D01*
X118087219Y-77826966D01*
X118231966Y-77682219D01*
X118231968Y-77682215D01*
X118231971Y-77682213D01*
X118289712Y-77602738D01*
X118352287Y-77516610D01*
X118445220Y-77334219D01*
X118508477Y-77139534D01*
X118540500Y-76937352D01*
X118540500Y-76732648D01*
X118508477Y-76530466D01*
X118445220Y-76335781D01*
X118445218Y-76335778D01*
X118445218Y-76335776D01*
X118392913Y-76233123D01*
X118352287Y-76153390D01*
X118311011Y-76096578D01*
X118231971Y-75987786D01*
X118087213Y-75843028D01*
X117921613Y-75722715D01*
X117921612Y-75722714D01*
X117921610Y-75722713D01*
X117864653Y-75693691D01*
X117739223Y-75629781D01*
X117544534Y-75566522D01*
X117369995Y-75538878D01*
X117342352Y-75534500D01*
X116337648Y-75534500D01*
X116313329Y-75538351D01*
X116135465Y-75566522D01*
X115940776Y-75629781D01*
X115758386Y-75722715D01*
X115592786Y-75843028D01*
X115448030Y-75987784D01*
X115380900Y-76080184D01*
X115325570Y-76122851D01*
X115280581Y-76131300D01*
X113857700Y-76131300D01*
X113790661Y-76111615D01*
X113744906Y-76058811D01*
X113733700Y-76007300D01*
X113733700Y-59620689D01*
X113733699Y-59620687D01*
X113733275Y-59618555D01*
X113706657Y-59484738D01*
X113706655Y-59484733D01*
X113653613Y-59356676D01*
X113576598Y-59241414D01*
X113475487Y-59140303D01*
X113475456Y-59140274D01*
X112310940Y-57975758D01*
X112310920Y-57975736D01*
X112208585Y-57873401D01*
X112093323Y-57796386D01*
X111965266Y-57743344D01*
X111965257Y-57743341D01*
X111959375Y-57742172D01*
X111959369Y-57742169D01*
X111959369Y-57742170D01*
X111854263Y-57721263D01*
X111829309Y-57716299D01*
X111829308Y-57716299D01*
X111690692Y-57716299D01*
X111684578Y-57716299D01*
X111684558Y-57716300D01*
X110779419Y-57716300D01*
X110712380Y-57696615D01*
X110679100Y-57665184D01*
X110611969Y-57572784D01*
X110467213Y-57428028D01*
X110301614Y-57307715D01*
X110295006Y-57304348D01*
X110208917Y-57260483D01*
X110158123Y-57212511D01*
X110141328Y-57144690D01*
X110163865Y-57078555D01*
X110208917Y-57039516D01*
X110301610Y-56992287D01*
X110322770Y-56976913D01*
X110467213Y-56871971D01*
X110467215Y-56871968D01*
X110467219Y-56871966D01*
X110611966Y-56727219D01*
X110611968Y-56727215D01*
X110611971Y-56727213D01*
X110679100Y-56634816D01*
X110732287Y-56561610D01*
X110825220Y-56379219D01*
X110888477Y-56184534D01*
X110920500Y-55982352D01*
X110920500Y-55777648D01*
X110888477Y-55575466D01*
X110825220Y-55380781D01*
X110825218Y-55380778D01*
X110825218Y-55380776D01*
X110758677Y-55250184D01*
X110732287Y-55198390D01*
X110701936Y-55156615D01*
X110611971Y-55032786D01*
X110467213Y-54888028D01*
X110301614Y-54767715D01*
X110295006Y-54764348D01*
X110208917Y-54720483D01*
X110158123Y-54672511D01*
X110141328Y-54604690D01*
X110163865Y-54538555D01*
X110208917Y-54499516D01*
X110301610Y-54452287D01*
X110403180Y-54378493D01*
X110467213Y-54331971D01*
X110467215Y-54331968D01*
X110467219Y-54331966D01*
X110611966Y-54187219D01*
X110611968Y-54187215D01*
X110611971Y-54187213D01*
X110727944Y-54027587D01*
X110732287Y-54021610D01*
X110825220Y-53839219D01*
X110888477Y-53644534D01*
X110920500Y-53442352D01*
X110920500Y-53237648D01*
X110899425Y-53104586D01*
X110888477Y-53035465D01*
X110825218Y-52840776D01*
X110791503Y-52774607D01*
X110732287Y-52658390D01*
X110718768Y-52639783D01*
X110611971Y-52492786D01*
X110467213Y-52348028D01*
X110301614Y-52227715D01*
X110295006Y-52224348D01*
X110208917Y-52180483D01*
X110158123Y-52132511D01*
X110141328Y-52064690D01*
X110163865Y-51998555D01*
X110208917Y-51959516D01*
X110301610Y-51912287D01*
X110403180Y-51838493D01*
X110467213Y-51791971D01*
X110467215Y-51791968D01*
X110467219Y-51791966D01*
X110611966Y-51647219D01*
X110611968Y-51647215D01*
X110611971Y-51647213D01*
X110669713Y-51567737D01*
X110732287Y-51481610D01*
X110825220Y-51299219D01*
X110888477Y-51104534D01*
X110920500Y-50902352D01*
X110920500Y-50697648D01*
X110888477Y-50495466D01*
X110825220Y-50300781D01*
X110825218Y-50300778D01*
X110825218Y-50300776D01*
X110758677Y-50170184D01*
X110732287Y-50118390D01*
X110718768Y-50099783D01*
X110611971Y-49952786D01*
X110467213Y-49808028D01*
X110301614Y-49687715D01*
X110295006Y-49684348D01*
X110208917Y-49640483D01*
X110158123Y-49592511D01*
X110141328Y-49524690D01*
X110163865Y-49458555D01*
X110208917Y-49419516D01*
X110301610Y-49372287D01*
X110331260Y-49350745D01*
X110467213Y-49251971D01*
X110467215Y-49251968D01*
X110467219Y-49251966D01*
X110611966Y-49107219D01*
X110611968Y-49107215D01*
X110611971Y-49107213D01*
X110679100Y-49014816D01*
X110732287Y-48941610D01*
X110825220Y-48759219D01*
X110888477Y-48564534D01*
X110920500Y-48362352D01*
X110920500Y-48157648D01*
X110888477Y-47955466D01*
X110825220Y-47760781D01*
X110825218Y-47760778D01*
X110825218Y-47760776D01*
X110758677Y-47630184D01*
X110732287Y-47578390D01*
X110710099Y-47547851D01*
X110611971Y-47412786D01*
X110467213Y-47268028D01*
X110301614Y-47147715D01*
X110295006Y-47144348D01*
X110208917Y-47100483D01*
X110158123Y-47052511D01*
X110141328Y-46984690D01*
X110163865Y-46918555D01*
X110208917Y-46879516D01*
X110301610Y-46832287D01*
X110403180Y-46758493D01*
X110467213Y-46711971D01*
X110467215Y-46711968D01*
X110467219Y-46711966D01*
X110611966Y-46567219D01*
X110611968Y-46567215D01*
X110611971Y-46567213D01*
X110664732Y-46494590D01*
X110732287Y-46401610D01*
X110825220Y-46219219D01*
X110888477Y-46024534D01*
X110920500Y-45822352D01*
X110920500Y-45617648D01*
X115139500Y-45617648D01*
X115139500Y-45822351D01*
X115171522Y-46024534D01*
X115234781Y-46219223D01*
X115327715Y-46401613D01*
X115448028Y-46567213D01*
X115592786Y-46711971D01*
X115747749Y-46824556D01*
X115758390Y-46832287D01*
X115849840Y-46878883D01*
X115851080Y-46879515D01*
X115901876Y-46927490D01*
X115918671Y-46995311D01*
X115896134Y-47061446D01*
X115851080Y-47100485D01*
X115758386Y-47147715D01*
X115592786Y-47268028D01*
X115448028Y-47412786D01*
X115327715Y-47578386D01*
X115234781Y-47760776D01*
X115171522Y-47955465D01*
X115139500Y-48157648D01*
X115139500Y-48362351D01*
X115171522Y-48564534D01*
X115234781Y-48759223D01*
X115327715Y-48941613D01*
X115448028Y-49107213D01*
X115592786Y-49251971D01*
X115747749Y-49364556D01*
X115758390Y-49372287D01*
X115847212Y-49417544D01*
X115851080Y-49419515D01*
X115901876Y-49467490D01*
X115918671Y-49535311D01*
X115896134Y-49601446D01*
X115851080Y-49640485D01*
X115758386Y-49687715D01*
X115592786Y-49808028D01*
X115448028Y-49952786D01*
X115327715Y-50118386D01*
X115234781Y-50300776D01*
X115171522Y-50495465D01*
X115139500Y-50697648D01*
X115139500Y-50902351D01*
X115171522Y-51104534D01*
X115234781Y-51299223D01*
X115327715Y-51481613D01*
X115448028Y-51647213D01*
X115592786Y-51791971D01*
X115747749Y-51904556D01*
X115758390Y-51912287D01*
X115849840Y-51958883D01*
X115851080Y-51959515D01*
X115901876Y-52007490D01*
X115918671Y-52075311D01*
X115896134Y-52141446D01*
X115851080Y-52180485D01*
X115758386Y-52227715D01*
X115592786Y-52348028D01*
X115448028Y-52492786D01*
X115327715Y-52658386D01*
X115234781Y-52840776D01*
X115171522Y-53035465D01*
X115139500Y-53237648D01*
X115139500Y-53442351D01*
X115171522Y-53644534D01*
X115234781Y-53839223D01*
X115327715Y-54021613D01*
X115448028Y-54187213D01*
X115592786Y-54331971D01*
X115747749Y-54444556D01*
X115758390Y-54452287D01*
X115849840Y-54498883D01*
X115851080Y-54499515D01*
X115901876Y-54547490D01*
X115918671Y-54615311D01*
X115896134Y-54681446D01*
X115851080Y-54720485D01*
X115758386Y-54767715D01*
X115592786Y-54888028D01*
X115448028Y-55032786D01*
X115327715Y-55198386D01*
X115234781Y-55380776D01*
X115171522Y-55575465D01*
X115139500Y-55777648D01*
X115139500Y-55982351D01*
X115171522Y-56184534D01*
X115234781Y-56379223D01*
X115327715Y-56561613D01*
X115448028Y-56727213D01*
X115592784Y-56871969D01*
X115629068Y-56898330D01*
X115671735Y-56953659D01*
X115677715Y-57023273D01*
X115645109Y-57085068D01*
X115584271Y-57119426D01*
X115569440Y-57121938D01*
X115532519Y-57125907D01*
X115397671Y-57176202D01*
X115397664Y-57176206D01*
X115282455Y-57262452D01*
X115282452Y-57262455D01*
X115196206Y-57377664D01*
X115196202Y-57377671D01*
X115145908Y-57512517D01*
X115139501Y-57572116D01*
X115139501Y-57572123D01*
X115139500Y-57572135D01*
X115139500Y-59267870D01*
X115139501Y-59267876D01*
X115145908Y-59327483D01*
X115196202Y-59462328D01*
X115196206Y-59462335D01*
X115282452Y-59577544D01*
X115282455Y-59577547D01*
X115397664Y-59663793D01*
X115397671Y-59663797D01*
X115442618Y-59680561D01*
X115532517Y-59714091D01*
X115592127Y-59720500D01*
X116115500Y-59720499D01*
X116182539Y-59740183D01*
X116228294Y-59792987D01*
X116239500Y-59844499D01*
X116239500Y-67362587D01*
X116219815Y-67429626D01*
X116212450Y-67439896D01*
X116210186Y-67442734D01*
X116114211Y-67595476D01*
X116054631Y-67765745D01*
X116054630Y-67765750D01*
X116034435Y-67944996D01*
X116034435Y-67945003D01*
X116054630Y-68124249D01*
X116054631Y-68124254D01*
X116114211Y-68294523D01*
X116196577Y-68425606D01*
X116210184Y-68447262D01*
X116337738Y-68574816D01*
X116490478Y-68670789D01*
X116660745Y-68730368D01*
X116660750Y-68730369D01*
X116839996Y-68750565D01*
X116840000Y-68750565D01*
X116840004Y-68750565D01*
X117019249Y-68730369D01*
X117019252Y-68730368D01*
X117019255Y-68730368D01*
X117189522Y-68670789D01*
X117342262Y-68574816D01*
X117469816Y-68447262D01*
X117565789Y-68294522D01*
X117625368Y-68124255D01*
X117625369Y-68124249D01*
X117645565Y-67945003D01*
X117645565Y-67944996D01*
X117625369Y-67765750D01*
X117625368Y-67765745D01*
X117565788Y-67595476D01*
X117531873Y-67541501D01*
X117469816Y-67442738D01*
X117469814Y-67442736D01*
X117469813Y-67442734D01*
X117467550Y-67439896D01*
X117466659Y-67437715D01*
X117466111Y-67436842D01*
X117466264Y-67436745D01*
X117441144Y-67375209D01*
X117440500Y-67362587D01*
X117440500Y-59844499D01*
X117460185Y-59777460D01*
X117512989Y-59731705D01*
X117564500Y-59720499D01*
X118087871Y-59720499D01*
X118087872Y-59720499D01*
X118147483Y-59714091D01*
X118282331Y-59663796D01*
X118397546Y-59577546D01*
X118483796Y-59462331D01*
X118534091Y-59327483D01*
X118540500Y-59267873D01*
X118540499Y-57572128D01*
X118534091Y-57512517D01*
X118483796Y-57377669D01*
X118483795Y-57377668D01*
X118483793Y-57377664D01*
X118397547Y-57262455D01*
X118397544Y-57262452D01*
X118282335Y-57176206D01*
X118282328Y-57176202D01*
X118147482Y-57125908D01*
X118147483Y-57125908D01*
X118110560Y-57121939D01*
X118046009Y-57095201D01*
X118006160Y-57037809D01*
X118003667Y-56967984D01*
X118039319Y-56907895D01*
X118050930Y-56898331D01*
X118087219Y-56871966D01*
X118231966Y-56727219D01*
X118231968Y-56727215D01*
X118231971Y-56727213D01*
X118299100Y-56634816D01*
X118352287Y-56561610D01*
X118445220Y-56379219D01*
X118508477Y-56184534D01*
X118540500Y-55982352D01*
X118540500Y-55777648D01*
X118508477Y-55575466D01*
X118445220Y-55380781D01*
X118445218Y-55380778D01*
X118445218Y-55380776D01*
X118378677Y-55250184D01*
X118352287Y-55198390D01*
X118321936Y-55156615D01*
X118231971Y-55032786D01*
X118087213Y-54888028D01*
X117921614Y-54767715D01*
X117915006Y-54764348D01*
X117828917Y-54720483D01*
X117778123Y-54672511D01*
X117761328Y-54604690D01*
X117783865Y-54538555D01*
X117828917Y-54499516D01*
X117921610Y-54452287D01*
X118023180Y-54378493D01*
X118087213Y-54331971D01*
X118087215Y-54331968D01*
X118087219Y-54331966D01*
X118231966Y-54187219D01*
X118231968Y-54187215D01*
X118231971Y-54187213D01*
X118347944Y-54027587D01*
X118352287Y-54021610D01*
X118445220Y-53839219D01*
X118508477Y-53644534D01*
X118540500Y-53442352D01*
X118540500Y-53237648D01*
X118519425Y-53104586D01*
X118508477Y-53035465D01*
X118445218Y-52840776D01*
X118411503Y-52774607D01*
X118352287Y-52658390D01*
X118338768Y-52639783D01*
X118231971Y-52492786D01*
X118087213Y-52348028D01*
X117921614Y-52227715D01*
X117915006Y-52224348D01*
X117828917Y-52180483D01*
X117778123Y-52132511D01*
X117761328Y-52064690D01*
X117783865Y-51998555D01*
X117828917Y-51959516D01*
X117921610Y-51912287D01*
X118023180Y-51838493D01*
X118087213Y-51791971D01*
X118087215Y-51791968D01*
X118087219Y-51791966D01*
X118231966Y-51647219D01*
X118231968Y-51647215D01*
X118231971Y-51647213D01*
X118289713Y-51567737D01*
X118352287Y-51481610D01*
X118445220Y-51299219D01*
X118508477Y-51104534D01*
X118540500Y-50902352D01*
X118540500Y-50799996D01*
X119209435Y-50799996D01*
X119209435Y-50800003D01*
X119229630Y-50979249D01*
X119229631Y-50979254D01*
X119289211Y-51149523D01*
X119349515Y-51245496D01*
X119383274Y-51299223D01*
X119385185Y-51302263D01*
X119387445Y-51305097D01*
X119388334Y-51307275D01*
X119388889Y-51308158D01*
X119388734Y-51308255D01*
X119413855Y-51369783D01*
X119414500Y-51382412D01*
X119414500Y-91492587D01*
X119394815Y-91559626D01*
X119387450Y-91569896D01*
X119385186Y-91572734D01*
X119289211Y-91725476D01*
X119229631Y-91895745D01*
X119229630Y-91895750D01*
X119209435Y-92074996D01*
X119209435Y-92075003D01*
X119229630Y-92254249D01*
X119229631Y-92254254D01*
X119289211Y-92424523D01*
X119303800Y-92447741D01*
X119385184Y-92577262D01*
X119512738Y-92704816D01*
X119594752Y-92756349D01*
X119656035Y-92794856D01*
X119665478Y-92800789D01*
X119696303Y-92811575D01*
X119835745Y-92860368D01*
X119835750Y-92860369D01*
X120014996Y-92880565D01*
X120015000Y-92880565D01*
X120015004Y-92880565D01*
X120194249Y-92860369D01*
X120194252Y-92860368D01*
X120194255Y-92860368D01*
X120364522Y-92800789D01*
X120517262Y-92704816D01*
X120644816Y-92577262D01*
X120740789Y-92424522D01*
X120800368Y-92254255D01*
X120820565Y-92075000D01*
X120812755Y-92005686D01*
X120800369Y-91895750D01*
X120800368Y-91895745D01*
X120756531Y-91770466D01*
X120740789Y-91725478D01*
X120644816Y-91572738D01*
X120644814Y-91572736D01*
X120644813Y-91572734D01*
X120642550Y-91569896D01*
X120641659Y-91567715D01*
X120641111Y-91566842D01*
X120641264Y-91566745D01*
X120616144Y-91505209D01*
X120615500Y-91492587D01*
X120615500Y-77584094D01*
X120635185Y-77517055D01*
X120687989Y-77471300D01*
X120757147Y-77461356D01*
X120805471Y-77479100D01*
X120826797Y-77492500D01*
X120935475Y-77560788D01*
X121105745Y-77620368D01*
X121105750Y-77620369D01*
X121284996Y-77640565D01*
X121285000Y-77640565D01*
X121285004Y-77640565D01*
X121464249Y-77620369D01*
X121464252Y-77620368D01*
X121464255Y-77620368D01*
X121634522Y-77560789D01*
X121787262Y-77464816D01*
X121914816Y-77337262D01*
X122010789Y-77184522D01*
X122070368Y-77014255D01*
X122085739Y-76877834D01*
X122090565Y-76835003D01*
X122090565Y-76834996D01*
X122070369Y-76655750D01*
X122070368Y-76655745D01*
X122010788Y-76485475D01*
X121970682Y-76421648D01*
X121951681Y-76354411D01*
X121972048Y-76287576D01*
X122025316Y-76242361D01*
X122094572Y-76233123D01*
X122141648Y-76250682D01*
X122205475Y-76290788D01*
X122375745Y-76350368D01*
X122375750Y-76350369D01*
X122554996Y-76370565D01*
X122555000Y-76370565D01*
X122555004Y-76370565D01*
X122734249Y-76350369D01*
X122734252Y-76350368D01*
X122734255Y-76350368D01*
X122904522Y-76290789D01*
X123057262Y-76194816D01*
X123184816Y-76067262D01*
X123280789Y-75914522D01*
X123340368Y-75744255D01*
X123340369Y-75744249D01*
X123360565Y-75565003D01*
X123360565Y-75564996D01*
X123340369Y-75385750D01*
X123340368Y-75385745D01*
X123280788Y-75215476D01*
X123246873Y-75161501D01*
X123184816Y-75062738D01*
X123184814Y-75062736D01*
X123184813Y-75062734D01*
X123182550Y-75059896D01*
X123181659Y-75057715D01*
X123181111Y-75056842D01*
X123181264Y-75056745D01*
X123156144Y-74995209D01*
X123155500Y-74982587D01*
X123155500Y-74242412D01*
X123175185Y-74175373D01*
X123182555Y-74165097D01*
X123184810Y-74162267D01*
X123184816Y-74162262D01*
X123280789Y-74009522D01*
X123340368Y-73839255D01*
X123345610Y-73792734D01*
X123360565Y-73660003D01*
X123360565Y-73659996D01*
X123340369Y-73480750D01*
X123340368Y-73480745D01*
X123280788Y-73310476D01*
X123247645Y-73257730D01*
X123184816Y-73157738D01*
X123184814Y-73157736D01*
X123184813Y-73157734D01*
X123182550Y-73154896D01*
X123181659Y-73152715D01*
X123181111Y-73151842D01*
X123181264Y-73151745D01*
X123156144Y-73090209D01*
X123155500Y-73077587D01*
X123155500Y-56462412D01*
X123175185Y-56395373D01*
X123182555Y-56385097D01*
X123184810Y-56382267D01*
X123184816Y-56382262D01*
X123280789Y-56229522D01*
X123340368Y-56059255D01*
X123340369Y-56059249D01*
X123360565Y-55880003D01*
X123360565Y-55879996D01*
X123654435Y-55879996D01*
X123654435Y-55880003D01*
X123674630Y-56059249D01*
X123674631Y-56059254D01*
X123734211Y-56229523D01*
X123790500Y-56319105D01*
X123828274Y-56379223D01*
X123830185Y-56382263D01*
X123832445Y-56385097D01*
X123833334Y-56387275D01*
X123833889Y-56388158D01*
X123833734Y-56388255D01*
X123858855Y-56449783D01*
X123859500Y-56462412D01*
X123859500Y-70537587D01*
X123839815Y-70604626D01*
X123832450Y-70614896D01*
X123830186Y-70617734D01*
X123734211Y-70770476D01*
X123674631Y-70940745D01*
X123674630Y-70940750D01*
X123654435Y-71119996D01*
X123654435Y-71120003D01*
X123674630Y-71299249D01*
X123674631Y-71299254D01*
X123734211Y-71469523D01*
X123805931Y-71583664D01*
X123830184Y-71622262D01*
X123957738Y-71749816D01*
X124110478Y-71845789D01*
X124280745Y-71905368D01*
X124280750Y-71905369D01*
X124459996Y-71925565D01*
X124460000Y-71925565D01*
X124460004Y-71925565D01*
X124639249Y-71905369D01*
X124639252Y-71905368D01*
X124639255Y-71905368D01*
X124809522Y-71845789D01*
X124962262Y-71749816D01*
X125089816Y-71622262D01*
X125185789Y-71469522D01*
X125245368Y-71299255D01*
X125265565Y-71120000D01*
X125245368Y-70940745D01*
X125185789Y-70770478D01*
X125089816Y-70617738D01*
X125089814Y-70617736D01*
X125089813Y-70617734D01*
X125087550Y-70614896D01*
X125086659Y-70612715D01*
X125086111Y-70611842D01*
X125086264Y-70611745D01*
X125061144Y-70550209D01*
X125060500Y-70537587D01*
X125060500Y-56462412D01*
X125080185Y-56395373D01*
X125087555Y-56385097D01*
X125089810Y-56382267D01*
X125089816Y-56382262D01*
X125185789Y-56229522D01*
X125245368Y-56059255D01*
X125245369Y-56059249D01*
X125265565Y-55880003D01*
X125265565Y-55879996D01*
X125245369Y-55700750D01*
X125245368Y-55700745D01*
X125201531Y-55575466D01*
X125185789Y-55530478D01*
X125089816Y-55377738D01*
X124962262Y-55250184D01*
X124809523Y-55154211D01*
X124639254Y-55094631D01*
X124639249Y-55094630D01*
X124460004Y-55074435D01*
X124459996Y-55074435D01*
X124280750Y-55094630D01*
X124280745Y-55094631D01*
X124110476Y-55154211D01*
X123957737Y-55250184D01*
X123830184Y-55377737D01*
X123734211Y-55530476D01*
X123674631Y-55700745D01*
X123674630Y-55700750D01*
X123654435Y-55879996D01*
X123360565Y-55879996D01*
X123340369Y-55700750D01*
X123340368Y-55700745D01*
X123296531Y-55575466D01*
X123280789Y-55530478D01*
X123184816Y-55377738D01*
X123057262Y-55250184D01*
X122904523Y-55154211D01*
X122734254Y-55094631D01*
X122734249Y-55094630D01*
X122555004Y-55074435D01*
X122554996Y-55074435D01*
X122375750Y-55094630D01*
X122375745Y-55094631D01*
X122205476Y-55154211D01*
X122052737Y-55250184D01*
X121925184Y-55377737D01*
X121829211Y-55530476D01*
X121769631Y-55700745D01*
X121769630Y-55700750D01*
X121749435Y-55879996D01*
X121749435Y-55880003D01*
X121769630Y-56059249D01*
X121769631Y-56059254D01*
X121829211Y-56229523D01*
X121885500Y-56319105D01*
X121923274Y-56379223D01*
X121925185Y-56382263D01*
X121927445Y-56385097D01*
X121928334Y-56387275D01*
X121928889Y-56388158D01*
X121928734Y-56388255D01*
X121953855Y-56449783D01*
X121954500Y-56462412D01*
X121954500Y-57670905D01*
X121934815Y-57737944D01*
X121882011Y-57783699D01*
X121812853Y-57793643D01*
X121764528Y-57775899D01*
X121634523Y-57694211D01*
X121464254Y-57634631D01*
X121464249Y-57634630D01*
X121285004Y-57614435D01*
X121284996Y-57614435D01*
X121105750Y-57634630D01*
X121105745Y-57634631D01*
X120935476Y-57694211D01*
X120805472Y-57775899D01*
X120738235Y-57794899D01*
X120671400Y-57774531D01*
X120626186Y-57721263D01*
X120615500Y-57670905D01*
X120615500Y-53339996D01*
X130639435Y-53339996D01*
X130639435Y-53340003D01*
X130659630Y-53519249D01*
X130659631Y-53519254D01*
X130719211Y-53689523D01*
X130733800Y-53712741D01*
X130813274Y-53839223D01*
X130815185Y-53842263D01*
X130817445Y-53845097D01*
X130818334Y-53847275D01*
X130818889Y-53848158D01*
X130818734Y-53848255D01*
X130843855Y-53909783D01*
X130844500Y-53922412D01*
X130844500Y-59107587D01*
X130824815Y-59174626D01*
X130817450Y-59184896D01*
X130815186Y-59187734D01*
X130719211Y-59340476D01*
X130659631Y-59510745D01*
X130659630Y-59510750D01*
X130639435Y-59689996D01*
X130639435Y-59690003D01*
X130659630Y-59869249D01*
X130659631Y-59869254D01*
X130719211Y-60039523D01*
X130765246Y-60112786D01*
X130815184Y-60192262D01*
X130942738Y-60319816D01*
X131095478Y-60415789D01*
X131224058Y-60460781D01*
X131265745Y-60475368D01*
X131265750Y-60475369D01*
X131444996Y-60495565D01*
X131445000Y-60495565D01*
X131445004Y-60495565D01*
X131624249Y-60475369D01*
X131624252Y-60475368D01*
X131624255Y-60475368D01*
X131794522Y-60415789D01*
X131947262Y-60319816D01*
X132074816Y-60192262D01*
X132170789Y-60039522D01*
X132230368Y-59869255D01*
X132232795Y-59847715D01*
X132250565Y-59690003D01*
X132250565Y-59689996D01*
X132230369Y-59510750D01*
X132230368Y-59510745D01*
X132170788Y-59340476D01*
X132125168Y-59267873D01*
X132074816Y-59187738D01*
X132074814Y-59187736D01*
X132074813Y-59187734D01*
X132072550Y-59184896D01*
X132071659Y-59182715D01*
X132071111Y-59181842D01*
X132071264Y-59181745D01*
X132046144Y-59120209D01*
X132045500Y-59107587D01*
X132045500Y-53922412D01*
X132065185Y-53855373D01*
X132072555Y-53845097D01*
X132074810Y-53842267D01*
X132074816Y-53842262D01*
X132170789Y-53689522D01*
X132230368Y-53519255D01*
X132230369Y-53519249D01*
X132250565Y-53340003D01*
X132250565Y-53339996D01*
X132230369Y-53160750D01*
X132230368Y-53160745D01*
X132186531Y-53035466D01*
X132170789Y-52990478D01*
X132074816Y-52837738D01*
X131947262Y-52710184D01*
X131924528Y-52695899D01*
X131794523Y-52614211D01*
X131624254Y-52554631D01*
X131624249Y-52554630D01*
X131445004Y-52534435D01*
X131444996Y-52534435D01*
X131265750Y-52554630D01*
X131265745Y-52554631D01*
X131095476Y-52614211D01*
X130942737Y-52710184D01*
X130815184Y-52837737D01*
X130719211Y-52990476D01*
X130659631Y-53160745D01*
X130659630Y-53160750D01*
X130639435Y-53339996D01*
X120615500Y-53339996D01*
X120615500Y-51382412D01*
X120635185Y-51315373D01*
X120642555Y-51305097D01*
X120644810Y-51302267D01*
X120644816Y-51302262D01*
X120740789Y-51149522D01*
X120800368Y-50979255D01*
X120820565Y-50800000D01*
X120800368Y-50620745D01*
X120740789Y-50450478D01*
X120644816Y-50297738D01*
X120517262Y-50170184D01*
X120440847Y-50122169D01*
X120364523Y-50074211D01*
X120194254Y-50014631D01*
X120194249Y-50014630D01*
X120015004Y-49994435D01*
X120014996Y-49994435D01*
X119835750Y-50014630D01*
X119835745Y-50014631D01*
X119665476Y-50074211D01*
X119512737Y-50170184D01*
X119385184Y-50297737D01*
X119289211Y-50450476D01*
X119229631Y-50620745D01*
X119229630Y-50620750D01*
X119209435Y-50799996D01*
X118540500Y-50799996D01*
X118540500Y-50697648D01*
X118508477Y-50495466D01*
X118445220Y-50300781D01*
X118445218Y-50300778D01*
X118445218Y-50300776D01*
X118378677Y-50170184D01*
X118352287Y-50118390D01*
X118338768Y-50099783D01*
X118231971Y-49952786D01*
X118087213Y-49808028D01*
X117921614Y-49687715D01*
X117915006Y-49684348D01*
X117828917Y-49640483D01*
X117778123Y-49592511D01*
X117761328Y-49524690D01*
X117783865Y-49458555D01*
X117828917Y-49419516D01*
X117921610Y-49372287D01*
X117951260Y-49350745D01*
X118087213Y-49251971D01*
X118087215Y-49251968D01*
X118087219Y-49251966D01*
X118231966Y-49107219D01*
X118231968Y-49107215D01*
X118231971Y-49107213D01*
X118299100Y-49014816D01*
X118352287Y-48941610D01*
X118445220Y-48759219D01*
X118508477Y-48564534D01*
X118540500Y-48362352D01*
X118540500Y-48157648D01*
X118508477Y-47955466D01*
X118445220Y-47760781D01*
X118445218Y-47760778D01*
X118445218Y-47760776D01*
X118378677Y-47630184D01*
X118352287Y-47578390D01*
X118330099Y-47547851D01*
X118231971Y-47412786D01*
X118087213Y-47268028D01*
X117921614Y-47147715D01*
X117915006Y-47144348D01*
X117828917Y-47100483D01*
X117778123Y-47052511D01*
X117761328Y-46984690D01*
X117783865Y-46918555D01*
X117828917Y-46879516D01*
X117921610Y-46832287D01*
X118023180Y-46758493D01*
X118087213Y-46711971D01*
X118087215Y-46711968D01*
X118087219Y-46711966D01*
X118231966Y-46567219D01*
X118231968Y-46567215D01*
X118231971Y-46567213D01*
X118284732Y-46494590D01*
X118352287Y-46401610D01*
X118445220Y-46219219D01*
X118508477Y-46024534D01*
X118540500Y-45822352D01*
X118540500Y-45617648D01*
X118508477Y-45415466D01*
X118445220Y-45220781D01*
X118445218Y-45220778D01*
X118445218Y-45220776D01*
X118411503Y-45154607D01*
X118352287Y-45038390D01*
X118344556Y-45027749D01*
X118231971Y-44872786D01*
X118087213Y-44728028D01*
X117921611Y-44607713D01*
X117828369Y-44560203D01*
X117777574Y-44512229D01*
X117760779Y-44444407D01*
X117783317Y-44378273D01*
X117828371Y-44339234D01*
X117921347Y-44291861D01*
X118086894Y-44171582D01*
X118086895Y-44171582D01*
X118231582Y-44026895D01*
X118231582Y-44026894D01*
X118351859Y-43861349D01*
X118444755Y-43679029D01*
X118507990Y-43484413D01*
X118516609Y-43430000D01*
X117155686Y-43430000D01*
X117160080Y-43425606D01*
X117212741Y-43334394D01*
X117240000Y-43232661D01*
X117240000Y-43127339D01*
X117212741Y-43025606D01*
X117160080Y-42934394D01*
X117155686Y-42930000D01*
X118516609Y-42930000D01*
X118507990Y-42875586D01*
X118444755Y-42680970D01*
X118351859Y-42498650D01*
X118231582Y-42333105D01*
X118231582Y-42333104D01*
X118086895Y-42188417D01*
X117921349Y-42068140D01*
X117827820Y-42020485D01*
X117777024Y-41972511D01*
X117760229Y-41904690D01*
X117782766Y-41838555D01*
X117827820Y-41799515D01*
X117921349Y-41751859D01*
X118086894Y-41631582D01*
X118086895Y-41631582D01*
X118231582Y-41486895D01*
X118231582Y-41486894D01*
X118351859Y-41321349D01*
X118444755Y-41139029D01*
X118507990Y-40944413D01*
X118516609Y-40890000D01*
X117155686Y-40890000D01*
X117160080Y-40885606D01*
X117212741Y-40794394D01*
X117240000Y-40692661D01*
X117240000Y-40587339D01*
X117212741Y-40485606D01*
X117160080Y-40394394D01*
X117155686Y-40390000D01*
X118516609Y-40390000D01*
X118507990Y-40335586D01*
X118444755Y-40140970D01*
X118351859Y-39958650D01*
X118231582Y-39793105D01*
X118231582Y-39793104D01*
X118086895Y-39648417D01*
X117921349Y-39528140D01*
X117739031Y-39435244D01*
X117544417Y-39372009D01*
X117342317Y-39340000D01*
X117090000Y-39340000D01*
X117090000Y-40324314D01*
X117085606Y-40319920D01*
X116994394Y-40267259D01*
X116892661Y-40240000D01*
X116787339Y-40240000D01*
X116685606Y-40267259D01*
X116594394Y-40319920D01*
X116590000Y-40324314D01*
X116590000Y-39340000D01*
X116337683Y-39340000D01*
X116135582Y-39372009D01*
X115940968Y-39435244D01*
X115758650Y-39528140D01*
X115593105Y-39648417D01*
X115593104Y-39648417D01*
X115448417Y-39793104D01*
X115448417Y-39793105D01*
X115328140Y-39958650D01*
X115235244Y-40140970D01*
X115172009Y-40335586D01*
X115163391Y-40390000D01*
X116524314Y-40390000D01*
X116519920Y-40394394D01*
X116467259Y-40485606D01*
X116440000Y-40587339D01*
X116440000Y-40692661D01*
X116467259Y-40794394D01*
X116519920Y-40885606D01*
X116524314Y-40890000D01*
X115163391Y-40890000D01*
X115172009Y-40944413D01*
X115235244Y-41139029D01*
X115328140Y-41321349D01*
X115448417Y-41486894D01*
X115448417Y-41486895D01*
X115593104Y-41631582D01*
X115758650Y-41751859D01*
X115852179Y-41799515D01*
X115902975Y-41847490D01*
X115919770Y-41915311D01*
X115897232Y-41981446D01*
X115852179Y-42020485D01*
X115758650Y-42068140D01*
X115593105Y-42188417D01*
X115593104Y-42188417D01*
X115448417Y-42333104D01*
X115448417Y-42333105D01*
X115328140Y-42498650D01*
X115235244Y-42680970D01*
X115172009Y-42875586D01*
X115163391Y-42930000D01*
X116524314Y-42930000D01*
X116519920Y-42934394D01*
X116467259Y-43025606D01*
X116440000Y-43127339D01*
X116440000Y-43232661D01*
X116467259Y-43334394D01*
X116519920Y-43425606D01*
X116524314Y-43430000D01*
X115163391Y-43430000D01*
X115172009Y-43484413D01*
X115235244Y-43679029D01*
X115328140Y-43861349D01*
X115448417Y-44026894D01*
X115448417Y-44026895D01*
X115593104Y-44171582D01*
X115758652Y-44291861D01*
X115851628Y-44339234D01*
X115902425Y-44387208D01*
X115919220Y-44455029D01*
X115896683Y-44521164D01*
X115851630Y-44560203D01*
X115758388Y-44607713D01*
X115592786Y-44728028D01*
X115448028Y-44872786D01*
X115327715Y-45038386D01*
X115234781Y-45220776D01*
X115171522Y-45415465D01*
X115139500Y-45617648D01*
X110920500Y-45617648D01*
X110888477Y-45415466D01*
X110825220Y-45220781D01*
X110825218Y-45220778D01*
X110825218Y-45220776D01*
X110791503Y-45154607D01*
X110732287Y-45038390D01*
X110724556Y-45027749D01*
X110611971Y-44872786D01*
X110467213Y-44728028D01*
X110301614Y-44607715D01*
X110295006Y-44604348D01*
X110208917Y-44560483D01*
X110158123Y-44512511D01*
X110141328Y-44444690D01*
X110163865Y-44378555D01*
X110208917Y-44339516D01*
X110301610Y-44292287D01*
X110403180Y-44218493D01*
X110467213Y-44171971D01*
X110467215Y-44171968D01*
X110467219Y-44171966D01*
X110611966Y-44027219D01*
X110611968Y-44027215D01*
X110611971Y-44027213D01*
X110664732Y-43954590D01*
X110732287Y-43861610D01*
X110825220Y-43679219D01*
X110888477Y-43484534D01*
X110920500Y-43282352D01*
X110920500Y-43077648D01*
X110899425Y-42944586D01*
X110888477Y-42875465D01*
X110825218Y-42680776D01*
X110791503Y-42614607D01*
X110732287Y-42498390D01*
X110724556Y-42487749D01*
X110611971Y-42332786D01*
X110467213Y-42188028D01*
X110301614Y-42067715D01*
X110277953Y-42055659D01*
X110208917Y-42020483D01*
X110158123Y-41972511D01*
X110141328Y-41904690D01*
X110163865Y-41838555D01*
X110208917Y-41799516D01*
X110301610Y-41752287D01*
X110329081Y-41732328D01*
X110467213Y-41631971D01*
X110467215Y-41631968D01*
X110467219Y-41631966D01*
X110611966Y-41487219D01*
X110611968Y-41487215D01*
X110611971Y-41487213D01*
X110664732Y-41414590D01*
X110732287Y-41321610D01*
X110825220Y-41139219D01*
X110888477Y-40944534D01*
X110920500Y-40742352D01*
X110920500Y-40537648D01*
X110912257Y-40485606D01*
X110888477Y-40335465D01*
X110825218Y-40140776D01*
X110732419Y-39958650D01*
X110732287Y-39958390D01*
X110724556Y-39947749D01*
X110611971Y-39792786D01*
X110467213Y-39648028D01*
X110301613Y-39527715D01*
X110301612Y-39527714D01*
X110301610Y-39527713D01*
X110244653Y-39498691D01*
X110119223Y-39434781D01*
X109924534Y-39371522D01*
X109749995Y-39343878D01*
X109722352Y-39339500D01*
X108717648Y-39339500D01*
X108693329Y-39343351D01*
X108515465Y-39371522D01*
X108320776Y-39434781D01*
X108138386Y-39527715D01*
X107972786Y-39648028D01*
X107828028Y-39792786D01*
X107707715Y-39958386D01*
X107614781Y-40140776D01*
X107551522Y-40335465D01*
X107519500Y-40537648D01*
X107519500Y-40742351D01*
X107551522Y-40944534D01*
X107614781Y-41139223D01*
X107707715Y-41321613D01*
X107828028Y-41487213D01*
X107972786Y-41631971D01*
X108110928Y-41732335D01*
X108138390Y-41752287D01*
X108229840Y-41798883D01*
X108231080Y-41799515D01*
X108281876Y-41847490D01*
X108298671Y-41915311D01*
X108276134Y-41981446D01*
X108231080Y-42020485D01*
X108138386Y-42067715D01*
X107972786Y-42188028D01*
X107828028Y-42332786D01*
X107707715Y-42498386D01*
X107614781Y-42680776D01*
X107551522Y-42875465D01*
X107519500Y-43077648D01*
X107519500Y-43282351D01*
X107551522Y-43484534D01*
X107614781Y-43679223D01*
X107707715Y-43861613D01*
X107828028Y-44027213D01*
X107972786Y-44171971D01*
X108127749Y-44284556D01*
X108138390Y-44292287D01*
X108229840Y-44338883D01*
X108231080Y-44339515D01*
X108281876Y-44387490D01*
X108298671Y-44455311D01*
X108276134Y-44521446D01*
X108231080Y-44560485D01*
X108138386Y-44607715D01*
X107972786Y-44728028D01*
X107828028Y-44872786D01*
X107707715Y-45038386D01*
X107614781Y-45220776D01*
X107551522Y-45415465D01*
X107519500Y-45617648D01*
X107519500Y-45822351D01*
X107551522Y-46024534D01*
X107614781Y-46219223D01*
X107707715Y-46401613D01*
X107828028Y-46567213D01*
X107972786Y-46711971D01*
X108127749Y-46824556D01*
X108138390Y-46832287D01*
X108229840Y-46878883D01*
X108231080Y-46879515D01*
X108281876Y-46927490D01*
X108298671Y-46995311D01*
X108276134Y-47061446D01*
X108231080Y-47100485D01*
X108138386Y-47147715D01*
X107972786Y-47268028D01*
X107828028Y-47412786D01*
X107707715Y-47578386D01*
X107614781Y-47760776D01*
X107551522Y-47955465D01*
X107519500Y-48157648D01*
X107519500Y-48362351D01*
X107551522Y-48564534D01*
X107614781Y-48759223D01*
X107707715Y-48941613D01*
X107828028Y-49107213D01*
X107972786Y-49251971D01*
X108127749Y-49364556D01*
X108138390Y-49372287D01*
X108227212Y-49417544D01*
X108231080Y-49419515D01*
X108281876Y-49467490D01*
X108298671Y-49535311D01*
X108276134Y-49601446D01*
X108231080Y-49640485D01*
X108138386Y-49687715D01*
X107972786Y-49808028D01*
X107828028Y-49952786D01*
X107707715Y-50118386D01*
X107614781Y-50300776D01*
X107551522Y-50495465D01*
X107519500Y-50697648D01*
X107519500Y-50902351D01*
X107551522Y-51104534D01*
X107614781Y-51299223D01*
X107707715Y-51481613D01*
X107828028Y-51647213D01*
X107972786Y-51791971D01*
X108127749Y-51904556D01*
X108138390Y-51912287D01*
X108229840Y-51958883D01*
X108231080Y-51959515D01*
X108281876Y-52007490D01*
X108298671Y-52075311D01*
X108276134Y-52141446D01*
X108231080Y-52180485D01*
X108138386Y-52227715D01*
X107972786Y-52348028D01*
X107828028Y-52492786D01*
X107707715Y-52658386D01*
X107614781Y-52840776D01*
X107551522Y-53035465D01*
X107519500Y-53237648D01*
X107519500Y-53442351D01*
X107551522Y-53644534D01*
X107614781Y-53839223D01*
X107707715Y-54021613D01*
X107828028Y-54187213D01*
X107972786Y-54331971D01*
X108127749Y-54444556D01*
X108138390Y-54452287D01*
X108229840Y-54498883D01*
X108231080Y-54499515D01*
X108281876Y-54547490D01*
X108298671Y-54615311D01*
X108276134Y-54681446D01*
X108231080Y-54720485D01*
X108138386Y-54767715D01*
X107972786Y-54888028D01*
X107828028Y-55032786D01*
X107707715Y-55198386D01*
X107614781Y-55380776D01*
X107551522Y-55575465D01*
X107519500Y-55777648D01*
X107519500Y-55982351D01*
X107551522Y-56184534D01*
X107614781Y-56379223D01*
X107707715Y-56561613D01*
X107828028Y-56727213D01*
X107972786Y-56871971D01*
X108127749Y-56984556D01*
X108138390Y-56992287D01*
X108227732Y-57037809D01*
X108231080Y-57039515D01*
X108281876Y-57087490D01*
X108298671Y-57155311D01*
X108276134Y-57221446D01*
X108231080Y-57260485D01*
X108138386Y-57307715D01*
X107972786Y-57428028D01*
X107828028Y-57572786D01*
X107707715Y-57738386D01*
X107614781Y-57920776D01*
X107551522Y-58115465D01*
X107519500Y-58317648D01*
X107519500Y-58522351D01*
X107551522Y-58724534D01*
X107614781Y-58919223D01*
X107707715Y-59101613D01*
X107828028Y-59267213D01*
X107972786Y-59411971D01*
X108127749Y-59524556D01*
X108138390Y-59532287D01*
X108227212Y-59577544D01*
X108320776Y-59625218D01*
X108320778Y-59625218D01*
X108320781Y-59625220D01*
X108425137Y-59659127D01*
X108515465Y-59688477D01*
X108534697Y-59691523D01*
X108717648Y-59720500D01*
X108717649Y-59720500D01*
X109722351Y-59720500D01*
X109722352Y-59720500D01*
X109924534Y-59688477D01*
X110119219Y-59625220D01*
X110301610Y-59532287D01*
X110403180Y-59458493D01*
X110467213Y-59411971D01*
X110467215Y-59411968D01*
X110467219Y-59411966D01*
X110611966Y-59267219D01*
X110679100Y-59174815D01*
X110734430Y-59132149D01*
X110779419Y-59123700D01*
X111417156Y-59123700D01*
X111484195Y-59143385D01*
X111504837Y-59160019D01*
X112289981Y-59945163D01*
X112323466Y-60006486D01*
X112326300Y-60032844D01*
X112326300Y-94422300D01*
X112306615Y-94489339D01*
X112253811Y-94535094D01*
X112202300Y-94546300D01*
X107657844Y-94546300D01*
X107590805Y-94526615D01*
X107570163Y-94509981D01*
X104880019Y-91819837D01*
X104846534Y-91758514D01*
X104843700Y-91732156D01*
X104843700Y-89610443D01*
X104843701Y-89610422D01*
X104843701Y-89465689D01*
X104843700Y-89465687D01*
X104823406Y-89363663D01*
X104816658Y-89329738D01*
X104765940Y-89207298D01*
X104764293Y-89202695D01*
X104763611Y-89201674D01*
X104763611Y-89201673D01*
X104686600Y-89086417D01*
X104686598Y-89086414D01*
X104585487Y-88985303D01*
X104585456Y-88985274D01*
X104055940Y-88455758D01*
X104055920Y-88455736D01*
X103953585Y-88353401D01*
X103838323Y-88276386D01*
X103710266Y-88223344D01*
X103710257Y-88223341D01*
X103704375Y-88222172D01*
X103704369Y-88222169D01*
X103704369Y-88222170D01*
X103639339Y-88209235D01*
X103574309Y-88196299D01*
X103574308Y-88196299D01*
X103435692Y-88196299D01*
X103429578Y-88196299D01*
X103429558Y-88196300D01*
X90120470Y-88196300D01*
X90053431Y-88176615D01*
X90018895Y-88143423D01*
X89938495Y-88028599D01*
X89771401Y-87861505D01*
X89771399Y-87861504D01*
X89771396Y-87861501D01*
X89585842Y-87731575D01*
X89542217Y-87676998D01*
X89535023Y-87607500D01*
X89566546Y-87545145D01*
X89585842Y-87528425D01*
X89634693Y-87494219D01*
X89771401Y-87398495D01*
X89938495Y-87231401D01*
X90074035Y-87037830D01*
X90173903Y-86823663D01*
X90235063Y-86595408D01*
X90255659Y-86360000D01*
X90255205Y-86354816D01*
X90239976Y-86180745D01*
X90235063Y-86124592D01*
X90173903Y-85896337D01*
X90074035Y-85682171D01*
X90060255Y-85662490D01*
X89938494Y-85488597D01*
X89771402Y-85321506D01*
X89771396Y-85321501D01*
X89585842Y-85191575D01*
X89542217Y-85136998D01*
X89535023Y-85067500D01*
X89566546Y-85005145D01*
X89585842Y-84988425D01*
X89634693Y-84954219D01*
X89771401Y-84858495D01*
X89938495Y-84691401D01*
X90074035Y-84497830D01*
X90094009Y-84454996D01*
X93809435Y-84454996D01*
X93809435Y-84455003D01*
X93829630Y-84634249D01*
X93829631Y-84634254D01*
X93889211Y-84804523D01*
X93923126Y-84858498D01*
X93983274Y-84954223D01*
X93985185Y-84957263D01*
X93987445Y-84960097D01*
X93988334Y-84962275D01*
X93988889Y-84963158D01*
X93988734Y-84963255D01*
X94013855Y-85024783D01*
X94014500Y-85037412D01*
X94014500Y-85777587D01*
X93994815Y-85844626D01*
X93987450Y-85854896D01*
X93985186Y-85857734D01*
X93889211Y-86010476D01*
X93829631Y-86180745D01*
X93829630Y-86180750D01*
X93809435Y-86359996D01*
X93809435Y-86360003D01*
X93829630Y-86539249D01*
X93829631Y-86539254D01*
X93889211Y-86709523D01*
X93960931Y-86823664D01*
X93985184Y-86862262D01*
X94112738Y-86989816D01*
X94265478Y-87085789D01*
X94388957Y-87128996D01*
X94435745Y-87145368D01*
X94435750Y-87145369D01*
X94614996Y-87165565D01*
X94615000Y-87165565D01*
X94615004Y-87165565D01*
X94794249Y-87145369D01*
X94794252Y-87145368D01*
X94794255Y-87145368D01*
X94964522Y-87085789D01*
X95117262Y-86989816D01*
X95244816Y-86862262D01*
X95340789Y-86709522D01*
X95400368Y-86539255D01*
X95401347Y-86530565D01*
X95420565Y-86360003D01*
X95420565Y-86359996D01*
X95400369Y-86180750D01*
X95400368Y-86180745D01*
X95340788Y-86010476D01*
X95307645Y-85957730D01*
X95244816Y-85857738D01*
X95244814Y-85857736D01*
X95244813Y-85857734D01*
X95242550Y-85854896D01*
X95241659Y-85852715D01*
X95241111Y-85851842D01*
X95241264Y-85851745D01*
X95216144Y-85790209D01*
X95215500Y-85777587D01*
X95215500Y-85037412D01*
X95235185Y-84970373D01*
X95242555Y-84960097D01*
X95244810Y-84957267D01*
X95244816Y-84957262D01*
X95340789Y-84804522D01*
X95400368Y-84634255D01*
X95415739Y-84497834D01*
X95420565Y-84455003D01*
X95420565Y-84454996D01*
X95400369Y-84275750D01*
X95400368Y-84275745D01*
X95356531Y-84150466D01*
X95340789Y-84105478D01*
X95244816Y-83952738D01*
X95117262Y-83825184D01*
X95109010Y-83819999D01*
X94964523Y-83729211D01*
X94794254Y-83669631D01*
X94794249Y-83669630D01*
X94615004Y-83649435D01*
X94614996Y-83649435D01*
X94435750Y-83669630D01*
X94435745Y-83669631D01*
X94265476Y-83729211D01*
X94112737Y-83825184D01*
X93985184Y-83952737D01*
X93889211Y-84105476D01*
X93829631Y-84275745D01*
X93829630Y-84275750D01*
X93809435Y-84454996D01*
X90094009Y-84454996D01*
X90173903Y-84283663D01*
X90235063Y-84055408D01*
X90255659Y-83820000D01*
X90255205Y-83814816D01*
X90240736Y-83649435D01*
X90235063Y-83584592D01*
X90173903Y-83356337D01*
X90074035Y-83142171D01*
X90060255Y-83122490D01*
X89938494Y-82948597D01*
X89771402Y-82781506D01*
X89771396Y-82781501D01*
X89585842Y-82651575D01*
X89542217Y-82596998D01*
X89535023Y-82527500D01*
X89566546Y-82465145D01*
X89585842Y-82448425D01*
X89634693Y-82414219D01*
X89771401Y-82318495D01*
X89938495Y-82151401D01*
X90074035Y-81957830D01*
X90173903Y-81743663D01*
X90235063Y-81515408D01*
X90255659Y-81280000D01*
X90255205Y-81274816D01*
X90249953Y-81214783D01*
X90235063Y-81044592D01*
X90173903Y-80816337D01*
X90074035Y-80602171D01*
X90060255Y-80582490D01*
X89938494Y-80408597D01*
X89771402Y-80241506D01*
X89771396Y-80241501D01*
X89585842Y-80111575D01*
X89542217Y-80056998D01*
X89535023Y-79987500D01*
X89566546Y-79925145D01*
X89585842Y-79908425D01*
X89634693Y-79874219D01*
X89771401Y-79778495D01*
X89938495Y-79611401D01*
X90074035Y-79417830D01*
X90173903Y-79203663D01*
X90235063Y-78975408D01*
X90255659Y-78740000D01*
X90255205Y-78734816D01*
X90235063Y-78504596D01*
X90235063Y-78504592D01*
X90173903Y-78276337D01*
X90074035Y-78062171D01*
X90060255Y-78042490D01*
X89938494Y-77868597D01*
X89771402Y-77701506D01*
X89771396Y-77701501D01*
X89585842Y-77571575D01*
X89542217Y-77516998D01*
X89535023Y-77447500D01*
X89566546Y-77385145D01*
X89585842Y-77368425D01*
X89634693Y-77334219D01*
X89771401Y-77238495D01*
X89938495Y-77071401D01*
X90074035Y-76877830D01*
X90173903Y-76663663D01*
X90235063Y-76435408D01*
X90255659Y-76200000D01*
X90255205Y-76194816D01*
X90247926Y-76111615D01*
X90235063Y-75964592D01*
X90173903Y-75736337D01*
X90074035Y-75522171D01*
X89978513Y-75385750D01*
X89938494Y-75328597D01*
X89771402Y-75161506D01*
X89771396Y-75161501D01*
X89585842Y-75031575D01*
X89542217Y-74976998D01*
X89535023Y-74907500D01*
X89566546Y-74845145D01*
X89585842Y-74828425D01*
X89630347Y-74797262D01*
X89771401Y-74698495D01*
X89938495Y-74531401D01*
X90074035Y-74337830D01*
X90173903Y-74123663D01*
X90235063Y-73895408D01*
X90255659Y-73660000D01*
X90235063Y-73424592D01*
X90173903Y-73196337D01*
X90074035Y-72982171D01*
X89938495Y-72788599D01*
X89938494Y-72788597D01*
X89771402Y-72621506D01*
X89771396Y-72621501D01*
X89585842Y-72491575D01*
X89542217Y-72436998D01*
X89535023Y-72367500D01*
X89566546Y-72305145D01*
X89585842Y-72288425D01*
X89666019Y-72232284D01*
X89771401Y-72158495D01*
X89938495Y-71991401D01*
X90074035Y-71797830D01*
X90173903Y-71583663D01*
X90235063Y-71355408D01*
X90255659Y-71120000D01*
X90235063Y-70884592D01*
X90173903Y-70656337D01*
X90074035Y-70442171D01*
X90040454Y-70394211D01*
X89938494Y-70248597D01*
X89771402Y-70081506D01*
X89771396Y-70081501D01*
X89585842Y-69951575D01*
X89542217Y-69896998D01*
X89535023Y-69827500D01*
X89566546Y-69765145D01*
X89585842Y-69748425D01*
X89666015Y-69692287D01*
X89771401Y-69618495D01*
X89938495Y-69451401D01*
X90074035Y-69257830D01*
X90173903Y-69043663D01*
X90235063Y-68815408D01*
X90255659Y-68580000D01*
X90255205Y-68574816D01*
X90246704Y-68477648D01*
X90235063Y-68344592D01*
X90173903Y-68116337D01*
X90074035Y-67902171D01*
X90071076Y-67897944D01*
X89938494Y-67708597D01*
X89771402Y-67541506D01*
X89771396Y-67541501D01*
X89585842Y-67411575D01*
X89542217Y-67356998D01*
X89535023Y-67287500D01*
X89566546Y-67225145D01*
X89585842Y-67208425D01*
X89666626Y-67151859D01*
X89771401Y-67078495D01*
X89938495Y-66911401D01*
X90074035Y-66717830D01*
X90173903Y-66503663D01*
X90235063Y-66275408D01*
X90255659Y-66040000D01*
X90235063Y-65804592D01*
X90173903Y-65576337D01*
X90074035Y-65362171D01*
X90059396Y-65341263D01*
X89938494Y-65168597D01*
X89771402Y-65001506D01*
X89771396Y-65001501D01*
X89585842Y-64871575D01*
X89542217Y-64816998D01*
X89535023Y-64747500D01*
X89566546Y-64685145D01*
X89585842Y-64668425D01*
X89696780Y-64590745D01*
X89771401Y-64538495D01*
X89938495Y-64371401D01*
X90074035Y-64177830D01*
X90173903Y-63963663D01*
X90235063Y-63735408D01*
X90255659Y-63500000D01*
X90235063Y-63264592D01*
X90173903Y-63036337D01*
X90074035Y-62822171D01*
X90068537Y-62814318D01*
X89938494Y-62628597D01*
X89771402Y-62461506D01*
X89771396Y-62461501D01*
X89585842Y-62331575D01*
X89542217Y-62276998D01*
X89535023Y-62207500D01*
X89566546Y-62145145D01*
X89585842Y-62128425D01*
X89696780Y-62050745D01*
X89771401Y-61998495D01*
X89938495Y-61831401D01*
X90074035Y-61637830D01*
X90173903Y-61423663D01*
X90235063Y-61195408D01*
X90255659Y-60960000D01*
X90235063Y-60724592D01*
X90173903Y-60496337D01*
X90074035Y-60282171D01*
X90011081Y-60192262D01*
X89938494Y-60088597D01*
X89771402Y-59921506D01*
X89771396Y-59921501D01*
X89585842Y-59791575D01*
X89542217Y-59736998D01*
X89535023Y-59667500D01*
X89566546Y-59605145D01*
X89585842Y-59588425D01*
X89733929Y-59484733D01*
X89771401Y-59458495D01*
X89938495Y-59291401D01*
X90074035Y-59097830D01*
X90173903Y-58883663D01*
X90235063Y-58655408D01*
X90255659Y-58420000D01*
X90235063Y-58184592D01*
X90179101Y-57975736D01*
X90173905Y-57956344D01*
X90173904Y-57956343D01*
X90173903Y-57956337D01*
X90074035Y-57742171D01*
X90071076Y-57737944D01*
X89938494Y-57548597D01*
X89771402Y-57381506D01*
X89771396Y-57381501D01*
X89585842Y-57251575D01*
X89542217Y-57196998D01*
X89535023Y-57127500D01*
X89566546Y-57065145D01*
X89585842Y-57048425D01*
X89700723Y-56967984D01*
X89771401Y-56918495D01*
X89938495Y-56751401D01*
X90074035Y-56557830D01*
X90173903Y-56343663D01*
X90235063Y-56115408D01*
X90255659Y-55880000D01*
X90235063Y-55644592D01*
X90173903Y-55416337D01*
X90074035Y-55202171D01*
X90068537Y-55194318D01*
X89938494Y-55008597D01*
X89771402Y-54841506D01*
X89771396Y-54841501D01*
X89585842Y-54711575D01*
X89542217Y-54656998D01*
X89535023Y-54587500D01*
X89566546Y-54525145D01*
X89585842Y-54508425D01*
X89666019Y-54452284D01*
X89771401Y-54378495D01*
X89938495Y-54211401D01*
X90074035Y-54017830D01*
X90173903Y-53803663D01*
X90235063Y-53575408D01*
X90255659Y-53340000D01*
X90235063Y-53104592D01*
X90173903Y-52876337D01*
X90074035Y-52662171D01*
X90071076Y-52657944D01*
X89938494Y-52468597D01*
X89771402Y-52301506D01*
X89771396Y-52301501D01*
X89585842Y-52171575D01*
X89542217Y-52116998D01*
X89535023Y-52047500D01*
X89566546Y-51985145D01*
X89585842Y-51968425D01*
X89696780Y-51890745D01*
X89771401Y-51838495D01*
X89938495Y-51671401D01*
X90074035Y-51477830D01*
X90173903Y-51263663D01*
X90235063Y-51035408D01*
X90255659Y-50800000D01*
X90235063Y-50564592D01*
X90173903Y-50336337D01*
X90074035Y-50122171D01*
X90040454Y-50074211D01*
X89938494Y-49928597D01*
X89771402Y-49761506D01*
X89771396Y-49761501D01*
X89585842Y-49631575D01*
X89542217Y-49576998D01*
X89537352Y-49529996D01*
X92539435Y-49529996D01*
X92539435Y-49530003D01*
X92559630Y-49709249D01*
X92559631Y-49709254D01*
X92619211Y-49879523D01*
X92650047Y-49928597D01*
X92704106Y-50014632D01*
X92715185Y-50032263D01*
X92717445Y-50035097D01*
X92718334Y-50037275D01*
X92718889Y-50038158D01*
X92718734Y-50038255D01*
X92743855Y-50099783D01*
X92744500Y-50112412D01*
X92744500Y-73077587D01*
X92724815Y-73144626D01*
X92717450Y-73154896D01*
X92715186Y-73157734D01*
X92619211Y-73310476D01*
X92559631Y-73480745D01*
X92559630Y-73480750D01*
X92539435Y-73659996D01*
X92539435Y-73660003D01*
X92559630Y-73839249D01*
X92559631Y-73839254D01*
X92619211Y-74009523D01*
X92690931Y-74123664D01*
X92715184Y-74162262D01*
X92842738Y-74289816D01*
X92995478Y-74385789D01*
X93019727Y-74394274D01*
X93165745Y-74445368D01*
X93165750Y-74445369D01*
X93344996Y-74465565D01*
X93345000Y-74465565D01*
X93345004Y-74465565D01*
X93524249Y-74445369D01*
X93524251Y-74445368D01*
X93524255Y-74445368D01*
X93524258Y-74445366D01*
X93524262Y-74445366D01*
X93670273Y-74394274D01*
X93740051Y-74390711D01*
X93800679Y-74425440D01*
X93828270Y-74470361D01*
X93829631Y-74474252D01*
X93829632Y-74474255D01*
X93849626Y-74531395D01*
X93889210Y-74644521D01*
X93923126Y-74698498D01*
X93985184Y-74797262D01*
X94112738Y-74924816D01*
X94265478Y-75020789D01*
X94435745Y-75080368D01*
X94435750Y-75080369D01*
X94614996Y-75100565D01*
X94615000Y-75100565D01*
X94615004Y-75100565D01*
X94794249Y-75080369D01*
X94794252Y-75080368D01*
X94794255Y-75080368D01*
X94964522Y-75020789D01*
X95117262Y-74924816D01*
X95244816Y-74797262D01*
X95340789Y-74644522D01*
X95400368Y-74474255D01*
X95415739Y-74337834D01*
X95420565Y-74295003D01*
X95420565Y-74294996D01*
X95400369Y-74115750D01*
X95400368Y-74115745D01*
X95340788Y-73945476D01*
X95307645Y-73892730D01*
X95244816Y-73792738D01*
X95244814Y-73792736D01*
X95244813Y-73792734D01*
X95242550Y-73789896D01*
X95241659Y-73787715D01*
X95241111Y-73786842D01*
X95241264Y-73786745D01*
X95216144Y-73725209D01*
X95215500Y-73712587D01*
X95215500Y-68579996D01*
X96984435Y-68579996D01*
X96984435Y-68580003D01*
X97004630Y-68759249D01*
X97004631Y-68759254D01*
X97064211Y-68929523D01*
X97078800Y-68952741D01*
X97158274Y-69079223D01*
X97160185Y-69082263D01*
X97162445Y-69085097D01*
X97163334Y-69087275D01*
X97163889Y-69088158D01*
X97163734Y-69088255D01*
X97188855Y-69149783D01*
X97189500Y-69162412D01*
X97189500Y-86412587D01*
X97169815Y-86479626D01*
X97162450Y-86489896D01*
X97160186Y-86492734D01*
X97064211Y-86645476D01*
X97004631Y-86815745D01*
X97004630Y-86815750D01*
X96984435Y-86994996D01*
X96984435Y-86995003D01*
X97004630Y-87174249D01*
X97004631Y-87174254D01*
X97064211Y-87344523D01*
X97098126Y-87398498D01*
X97160184Y-87497262D01*
X97287738Y-87624816D01*
X97331797Y-87652500D01*
X97435364Y-87717576D01*
X97440478Y-87720789D01*
X97610745Y-87780368D01*
X97610750Y-87780369D01*
X97789996Y-87800565D01*
X97790000Y-87800565D01*
X97790004Y-87800565D01*
X97969249Y-87780369D01*
X97969252Y-87780368D01*
X97969255Y-87780368D01*
X98139522Y-87720789D01*
X98292262Y-87624816D01*
X98419816Y-87497262D01*
X98515789Y-87344522D01*
X98575368Y-87174255D01*
X98576347Y-87165565D01*
X98595565Y-86995003D01*
X98595565Y-86994996D01*
X98575369Y-86815750D01*
X98575368Y-86815745D01*
X98515788Y-86645475D01*
X98475682Y-86581648D01*
X98456681Y-86514411D01*
X98477048Y-86447576D01*
X98530316Y-86402361D01*
X98599572Y-86393123D01*
X98646648Y-86410682D01*
X98710475Y-86450788D01*
X98880745Y-86510368D01*
X98880750Y-86510369D01*
X99059996Y-86530565D01*
X99060000Y-86530565D01*
X99060004Y-86530565D01*
X99239249Y-86510369D01*
X99239252Y-86510368D01*
X99239255Y-86510368D01*
X99409522Y-86450789D01*
X99562262Y-86354816D01*
X99689816Y-86227262D01*
X99785789Y-86074522D01*
X99845368Y-85904255D01*
X99845369Y-85904249D01*
X99865565Y-85725003D01*
X99865565Y-85724996D01*
X99845369Y-85545750D01*
X99845368Y-85545745D01*
X99785788Y-85375476D01*
X99739755Y-85302215D01*
X99689816Y-85222738D01*
X99689814Y-85222736D01*
X99689813Y-85222734D01*
X99687550Y-85219896D01*
X99686659Y-85217715D01*
X99686111Y-85216842D01*
X99686264Y-85216745D01*
X99661144Y-85155209D01*
X99660500Y-85142587D01*
X99660500Y-82029094D01*
X99680185Y-81962055D01*
X99732989Y-81916300D01*
X99802147Y-81906356D01*
X99850471Y-81924100D01*
X99888193Y-81947802D01*
X99980475Y-82005788D01*
X100150745Y-82065368D01*
X100150750Y-82065369D01*
X100329996Y-82085565D01*
X100330000Y-82085565D01*
X100330004Y-82085565D01*
X100509249Y-82065369D01*
X100509252Y-82065368D01*
X100509255Y-82065368D01*
X100679522Y-82005789D01*
X100832262Y-81909816D01*
X100959816Y-81782262D01*
X101055789Y-81629522D01*
X101115368Y-81459255D01*
X101118623Y-81430368D01*
X101135565Y-81280003D01*
X101135565Y-81279996D01*
X101115369Y-81100750D01*
X101115368Y-81100745D01*
X101055788Y-80930476D01*
X101022645Y-80877730D01*
X100959816Y-80777738D01*
X100959814Y-80777736D01*
X100959813Y-80777734D01*
X100957550Y-80774896D01*
X100956659Y-80772715D01*
X100956111Y-80771842D01*
X100956264Y-80771745D01*
X100931144Y-80710209D01*
X100930500Y-80697587D01*
X100930500Y-71119996D01*
X101429435Y-71119996D01*
X101429435Y-71120003D01*
X101449630Y-71299249D01*
X101449631Y-71299254D01*
X101509211Y-71469523D01*
X101569515Y-71565496D01*
X101603274Y-71619223D01*
X101605185Y-71622263D01*
X101607445Y-71625097D01*
X101608334Y-71627275D01*
X101608889Y-71628158D01*
X101608734Y-71628255D01*
X101633855Y-71689783D01*
X101634500Y-71702412D01*
X101634500Y-82602587D01*
X101614815Y-82669626D01*
X101607450Y-82679896D01*
X101605186Y-82682734D01*
X101509211Y-82835476D01*
X101449631Y-83005745D01*
X101449630Y-83005750D01*
X101429435Y-83184996D01*
X101429435Y-83185003D01*
X101449630Y-83364249D01*
X101449631Y-83364254D01*
X101509211Y-83534523D01*
X101555246Y-83607786D01*
X101605184Y-83687262D01*
X101732738Y-83814816D01*
X101885478Y-83910789D01*
X102014058Y-83955781D01*
X102055745Y-83970368D01*
X102055750Y-83970369D01*
X102234996Y-83990565D01*
X102235000Y-83990565D01*
X102235004Y-83990565D01*
X102414249Y-83970369D01*
X102414252Y-83970368D01*
X102414255Y-83970368D01*
X102584522Y-83910789D01*
X102737262Y-83814816D01*
X102864816Y-83687262D01*
X102960789Y-83534522D01*
X103020368Y-83364255D01*
X103020369Y-83364249D01*
X103040565Y-83185003D01*
X103040565Y-83184996D01*
X103020369Y-83005750D01*
X103020368Y-83005745D01*
X102960788Y-82835476D01*
X102914757Y-82762219D01*
X102864816Y-82682738D01*
X102864814Y-82682736D01*
X102864813Y-82682734D01*
X102862550Y-82679896D01*
X102861659Y-82677715D01*
X102861111Y-82676842D01*
X102861264Y-82676745D01*
X102836144Y-82615209D01*
X102835500Y-82602587D01*
X102835500Y-71702412D01*
X102855185Y-71635373D01*
X102862555Y-71625097D01*
X102864810Y-71622267D01*
X102864816Y-71622262D01*
X102960789Y-71469522D01*
X103020368Y-71299255D01*
X103040565Y-71120000D01*
X103020368Y-70940745D01*
X102960789Y-70770478D01*
X102864816Y-70617738D01*
X102737262Y-70490184D01*
X102660847Y-70442169D01*
X102584523Y-70394211D01*
X102414254Y-70334631D01*
X102414249Y-70334630D01*
X102235004Y-70314435D01*
X102234996Y-70314435D01*
X102055750Y-70334630D01*
X102055745Y-70334631D01*
X101885476Y-70394211D01*
X101732737Y-70490184D01*
X101605184Y-70617737D01*
X101509211Y-70770476D01*
X101449631Y-70940745D01*
X101449630Y-70940750D01*
X101429435Y-71119996D01*
X100930500Y-71119996D01*
X100930500Y-68527412D01*
X100950185Y-68460373D01*
X100957555Y-68450097D01*
X100959810Y-68447267D01*
X100959816Y-68447262D01*
X101055789Y-68294522D01*
X101115368Y-68124255D01*
X101115369Y-68124249D01*
X101135565Y-67945003D01*
X101135565Y-67944996D01*
X101115369Y-67765750D01*
X101115368Y-67765745D01*
X101055788Y-67595476D01*
X101016582Y-67533080D01*
X100959816Y-67442738D01*
X100832262Y-67315184D01*
X100826436Y-67311523D01*
X100679523Y-67219211D01*
X100509254Y-67159631D01*
X100509249Y-67159630D01*
X100330004Y-67139435D01*
X100329996Y-67139435D01*
X100150750Y-67159630D01*
X100150745Y-67159631D01*
X99980476Y-67219211D01*
X99850472Y-67300899D01*
X99783235Y-67319899D01*
X99716400Y-67299531D01*
X99671186Y-67246263D01*
X99660500Y-67195905D01*
X99660500Y-66622412D01*
X99680185Y-66555373D01*
X99687555Y-66545097D01*
X99689810Y-66542267D01*
X99689816Y-66542262D01*
X99785789Y-66389522D01*
X99845368Y-66219255D01*
X99848169Y-66194394D01*
X99865565Y-66040003D01*
X99865565Y-66039996D01*
X99845369Y-65860750D01*
X99845368Y-65860745D01*
X99801573Y-65735586D01*
X99785789Y-65690478D01*
X99689816Y-65537738D01*
X99562262Y-65410184D01*
X99409523Y-65314211D01*
X99239254Y-65254631D01*
X99239249Y-65254630D01*
X99060004Y-65234435D01*
X99059996Y-65234435D01*
X98880750Y-65254630D01*
X98880745Y-65254631D01*
X98710476Y-65314211D01*
X98557737Y-65410184D01*
X98430184Y-65537737D01*
X98334211Y-65690476D01*
X98274631Y-65860745D01*
X98274630Y-65860750D01*
X98254435Y-66039996D01*
X98254435Y-66040003D01*
X98274630Y-66219249D01*
X98274631Y-66219254D01*
X98334211Y-66389523D01*
X98348800Y-66412741D01*
X98428274Y-66539223D01*
X98430185Y-66542263D01*
X98432445Y-66545097D01*
X98433334Y-66547275D01*
X98433889Y-66548158D01*
X98433734Y-66548255D01*
X98458855Y-66609783D01*
X98459500Y-66622412D01*
X98459500Y-67830905D01*
X98439815Y-67897944D01*
X98387011Y-67943699D01*
X98317853Y-67953643D01*
X98269528Y-67935899D01*
X98139523Y-67854211D01*
X97969254Y-67794631D01*
X97969249Y-67794630D01*
X97790004Y-67774435D01*
X97789996Y-67774435D01*
X97610750Y-67794630D01*
X97610745Y-67794631D01*
X97440476Y-67854211D01*
X97287737Y-67950184D01*
X97160184Y-68077737D01*
X97064211Y-68230476D01*
X97004631Y-68400745D01*
X97004630Y-68400750D01*
X96984435Y-68579996D01*
X95215500Y-68579996D01*
X95215500Y-64769996D01*
X103334435Y-64769996D01*
X103334435Y-64770003D01*
X103354630Y-64949249D01*
X103354631Y-64949254D01*
X103414211Y-65119523D01*
X103445047Y-65168597D01*
X103499106Y-65254632D01*
X103510185Y-65272263D01*
X103512445Y-65275097D01*
X103513334Y-65277275D01*
X103513889Y-65278158D01*
X103513734Y-65278255D01*
X103538855Y-65339783D01*
X103539500Y-65352412D01*
X103539500Y-78792587D01*
X103519815Y-78859626D01*
X103512450Y-78869896D01*
X103510186Y-78872734D01*
X103414211Y-79025476D01*
X103354631Y-79195745D01*
X103354630Y-79195750D01*
X103334435Y-79374996D01*
X103334435Y-79375003D01*
X103354630Y-79554249D01*
X103354631Y-79554254D01*
X103414211Y-79724523D01*
X103448126Y-79778498D01*
X103510184Y-79877262D01*
X103637738Y-80004816D01*
X103681797Y-80032500D01*
X103785364Y-80097576D01*
X103790478Y-80100789D01*
X103960745Y-80160368D01*
X103960750Y-80160369D01*
X104139996Y-80180565D01*
X104140000Y-80180565D01*
X104140004Y-80180565D01*
X104319249Y-80160369D01*
X104319252Y-80160368D01*
X104319255Y-80160368D01*
X104489522Y-80100789D01*
X104642262Y-80004816D01*
X104769816Y-79877262D01*
X104865789Y-79724522D01*
X104925368Y-79554255D01*
X104925369Y-79554249D01*
X104945565Y-79375003D01*
X104945565Y-79374996D01*
X104925369Y-79195750D01*
X104925368Y-79195745D01*
X104865788Y-79025475D01*
X104825682Y-78961648D01*
X104806681Y-78894411D01*
X104827048Y-78827576D01*
X104880316Y-78782361D01*
X104949572Y-78773123D01*
X104996648Y-78790682D01*
X105060475Y-78830788D01*
X105230745Y-78890368D01*
X105230750Y-78890369D01*
X105409996Y-78910565D01*
X105410000Y-78910565D01*
X105410004Y-78910565D01*
X105589249Y-78890369D01*
X105589252Y-78890368D01*
X105589255Y-78890368D01*
X105759522Y-78830789D01*
X105764636Y-78827576D01*
X105823352Y-78790682D01*
X105889528Y-78749100D01*
X105956764Y-78730100D01*
X106023599Y-78750467D01*
X106068814Y-78803735D01*
X106079500Y-78854094D01*
X106079500Y-80062587D01*
X106059815Y-80129626D01*
X106052450Y-80139896D01*
X106050186Y-80142734D01*
X105954211Y-80295476D01*
X105894631Y-80465745D01*
X105894630Y-80465750D01*
X105874435Y-80644996D01*
X105874435Y-80645003D01*
X105894630Y-80824249D01*
X105894631Y-80824254D01*
X105954211Y-80994523D01*
X106050185Y-81147263D01*
X106052445Y-81150097D01*
X106053334Y-81152275D01*
X106053889Y-81153158D01*
X106053734Y-81153255D01*
X106078855Y-81214783D01*
X106079500Y-81227412D01*
X106079500Y-83872587D01*
X106059815Y-83939626D01*
X106052450Y-83949896D01*
X106050186Y-83952734D01*
X105954211Y-84105476D01*
X105894631Y-84275745D01*
X105894630Y-84275750D01*
X105874435Y-84454996D01*
X105874435Y-84455003D01*
X105894630Y-84634249D01*
X105894631Y-84634254D01*
X105954211Y-84804523D01*
X105988126Y-84858498D01*
X106048274Y-84954223D01*
X106050185Y-84957263D01*
X106052445Y-84960097D01*
X106053334Y-84962275D01*
X106053889Y-84963158D01*
X106053734Y-84963255D01*
X106078855Y-85024783D01*
X106079500Y-85037412D01*
X106079500Y-87682587D01*
X106059815Y-87749626D01*
X106052450Y-87759896D01*
X106050186Y-87762734D01*
X105954211Y-87915476D01*
X105894631Y-88085745D01*
X105894630Y-88085750D01*
X105874435Y-88264996D01*
X105874435Y-88265003D01*
X105894630Y-88444249D01*
X105894631Y-88444254D01*
X105954211Y-88614523D01*
X106000246Y-88687786D01*
X106050184Y-88767262D01*
X106177738Y-88894816D01*
X106330478Y-88990789D01*
X106459058Y-89035781D01*
X106500745Y-89050368D01*
X106500750Y-89050369D01*
X106679996Y-89070565D01*
X106680000Y-89070565D01*
X106680004Y-89070565D01*
X106859249Y-89050369D01*
X106859252Y-89050368D01*
X106859255Y-89050368D01*
X107029522Y-88990789D01*
X107182262Y-88894816D01*
X107309816Y-88767262D01*
X107405789Y-88614522D01*
X107465368Y-88444255D01*
X107465369Y-88444249D01*
X107485565Y-88265003D01*
X107485565Y-88264996D01*
X107465369Y-88085750D01*
X107465368Y-88085745D01*
X107405788Y-87915476D01*
X107359755Y-87842215D01*
X107309816Y-87762738D01*
X107309814Y-87762736D01*
X107309813Y-87762734D01*
X107307550Y-87759896D01*
X107306659Y-87757715D01*
X107306111Y-87756842D01*
X107306264Y-87756745D01*
X107281144Y-87695209D01*
X107280500Y-87682587D01*
X107280500Y-87163931D01*
X107300185Y-87096892D01*
X107352989Y-87051137D01*
X107422147Y-87041193D01*
X107485703Y-87070218D01*
X107523477Y-87128996D01*
X107526973Y-87144533D01*
X107551522Y-87299534D01*
X107614781Y-87494223D01*
X107635067Y-87534035D01*
X107695428Y-87652500D01*
X107707715Y-87676613D01*
X107828028Y-87842213D01*
X107972786Y-87986971D01*
X108127749Y-88099556D01*
X108138390Y-88107287D01*
X108209311Y-88143423D01*
X108231080Y-88154515D01*
X108281876Y-88202490D01*
X108298671Y-88270311D01*
X108276134Y-88336446D01*
X108231080Y-88375485D01*
X108138386Y-88422715D01*
X107972786Y-88543028D01*
X107828028Y-88687786D01*
X107707715Y-88853386D01*
X107614781Y-89035776D01*
X107551522Y-89230465D01*
X107530426Y-89363663D01*
X107519500Y-89432648D01*
X107519500Y-89637352D01*
X107522545Y-89656576D01*
X107551522Y-89839534D01*
X107614781Y-90034223D01*
X107707715Y-90216613D01*
X107828028Y-90382213D01*
X107972786Y-90526971D01*
X108127749Y-90639556D01*
X108138390Y-90647287D01*
X108210424Y-90683990D01*
X108231629Y-90694795D01*
X108282425Y-90742770D01*
X108299220Y-90810591D01*
X108276682Y-90876726D01*
X108231629Y-90915765D01*
X108138650Y-90963140D01*
X107973105Y-91083417D01*
X107973104Y-91083417D01*
X107828417Y-91228104D01*
X107828417Y-91228105D01*
X107708140Y-91393650D01*
X107615244Y-91575970D01*
X107552009Y-91770586D01*
X107543391Y-91825000D01*
X108904314Y-91825000D01*
X108899920Y-91829394D01*
X108847259Y-91920606D01*
X108820000Y-92022339D01*
X108820000Y-92127661D01*
X108847259Y-92229394D01*
X108899920Y-92320606D01*
X108904314Y-92325000D01*
X107543391Y-92325000D01*
X107552009Y-92379413D01*
X107615244Y-92574029D01*
X107708140Y-92756349D01*
X107828417Y-92921894D01*
X107828417Y-92921895D01*
X107973104Y-93066582D01*
X108138650Y-93186859D01*
X108320968Y-93279755D01*
X108515582Y-93342990D01*
X108717683Y-93375000D01*
X108970000Y-93375000D01*
X108970000Y-92390686D01*
X108974394Y-92395080D01*
X109065606Y-92447741D01*
X109167339Y-92475000D01*
X109272661Y-92475000D01*
X109374394Y-92447741D01*
X109465606Y-92395080D01*
X109470000Y-92390686D01*
X109470000Y-93375000D01*
X109722317Y-93375000D01*
X109924417Y-93342990D01*
X110119031Y-93279755D01*
X110301349Y-93186859D01*
X110466894Y-93066582D01*
X110466895Y-93066582D01*
X110611582Y-92921895D01*
X110611582Y-92921894D01*
X110731859Y-92756349D01*
X110824755Y-92574029D01*
X110887990Y-92379413D01*
X110896609Y-92325000D01*
X109535686Y-92325000D01*
X109540080Y-92320606D01*
X109592741Y-92229394D01*
X109620000Y-92127661D01*
X109620000Y-92022339D01*
X109592741Y-91920606D01*
X109540080Y-91829394D01*
X109535686Y-91825000D01*
X110896609Y-91825000D01*
X110887990Y-91770586D01*
X110824755Y-91575970D01*
X110731859Y-91393650D01*
X110611582Y-91228105D01*
X110611582Y-91228104D01*
X110466895Y-91083417D01*
X110301349Y-90963140D01*
X110208370Y-90915765D01*
X110157574Y-90867790D01*
X110140779Y-90799969D01*
X110163316Y-90733835D01*
X110208370Y-90694795D01*
X110208920Y-90694515D01*
X110301610Y-90647287D01*
X110409474Y-90568920D01*
X110467213Y-90526971D01*
X110467215Y-90526968D01*
X110467219Y-90526966D01*
X110611966Y-90382219D01*
X110611968Y-90382215D01*
X110611971Y-90382213D01*
X110673361Y-90297715D01*
X110732287Y-90216610D01*
X110825220Y-90034219D01*
X110888477Y-89839534D01*
X110920500Y-89637352D01*
X110920500Y-89432648D01*
X110888477Y-89230466D01*
X110825220Y-89035781D01*
X110825218Y-89035778D01*
X110825218Y-89035776D01*
X110791503Y-88969607D01*
X110732287Y-88853390D01*
X110724556Y-88842749D01*
X110611971Y-88687786D01*
X110467213Y-88543028D01*
X110301614Y-88422715D01*
X110295006Y-88419348D01*
X110208917Y-88375483D01*
X110158123Y-88327511D01*
X110141328Y-88259690D01*
X110163865Y-88193555D01*
X110208917Y-88154516D01*
X110301610Y-88107287D01*
X110409916Y-88028599D01*
X110467213Y-87986971D01*
X110467215Y-87986968D01*
X110467219Y-87986966D01*
X110611966Y-87842219D01*
X110611968Y-87842215D01*
X110611971Y-87842213D01*
X110673361Y-87757715D01*
X110732287Y-87676610D01*
X110825220Y-87494219D01*
X110888477Y-87299534D01*
X110920500Y-87097352D01*
X110920500Y-86892648D01*
X110908320Y-86815745D01*
X110888477Y-86690465D01*
X110844752Y-86555894D01*
X110825220Y-86495781D01*
X110825218Y-86495778D01*
X110825218Y-86495776D01*
X110756698Y-86361300D01*
X110732287Y-86313390D01*
X110701936Y-86271615D01*
X110611971Y-86147786D01*
X110467213Y-86003028D01*
X110301614Y-85882715D01*
X110295006Y-85879348D01*
X110208917Y-85835483D01*
X110158123Y-85787511D01*
X110141328Y-85719690D01*
X110163865Y-85653555D01*
X110208917Y-85614516D01*
X110301610Y-85567287D01*
X110409916Y-85488599D01*
X110467213Y-85446971D01*
X110467215Y-85446968D01*
X110467219Y-85446966D01*
X110611966Y-85302219D01*
X110611968Y-85302215D01*
X110611971Y-85302213D01*
X110673361Y-85217715D01*
X110732287Y-85136610D01*
X110825220Y-84954219D01*
X110888477Y-84759534D01*
X110920500Y-84557352D01*
X110920500Y-84352648D01*
X110888477Y-84150466D01*
X110825220Y-83955781D01*
X110825218Y-83955777D01*
X110825218Y-83955776D01*
X110758677Y-83825184D01*
X110732287Y-83773390D01*
X110701936Y-83731615D01*
X110611971Y-83607786D01*
X110467213Y-83463028D01*
X110301614Y-83342715D01*
X110295006Y-83339348D01*
X110208917Y-83295483D01*
X110158123Y-83247511D01*
X110141328Y-83179690D01*
X110163865Y-83113555D01*
X110208917Y-83074516D01*
X110301610Y-83027287D01*
X110409916Y-82948599D01*
X110467213Y-82906971D01*
X110467215Y-82906968D01*
X110467219Y-82906966D01*
X110611966Y-82762219D01*
X110611968Y-82762215D01*
X110611971Y-82762213D01*
X110673361Y-82677715D01*
X110732287Y-82596610D01*
X110825220Y-82414219D01*
X110888477Y-82219534D01*
X110920500Y-82017352D01*
X110920500Y-81812648D01*
X110905684Y-81719105D01*
X110888477Y-81610465D01*
X110857589Y-81515403D01*
X110825220Y-81415781D01*
X110825218Y-81415778D01*
X110825218Y-81415776D01*
X110791503Y-81349607D01*
X110732287Y-81233390D01*
X110691011Y-81176578D01*
X110611971Y-81067786D01*
X110467213Y-80923028D01*
X110301614Y-80802715D01*
X110295006Y-80799348D01*
X110208917Y-80755483D01*
X110158123Y-80707511D01*
X110141328Y-80639690D01*
X110163865Y-80573555D01*
X110208917Y-80534516D01*
X110301610Y-80487287D01*
X110409916Y-80408599D01*
X110467213Y-80366971D01*
X110467215Y-80366968D01*
X110467219Y-80366966D01*
X110611966Y-80222219D01*
X110611968Y-80222215D01*
X110611971Y-80222213D01*
X110673361Y-80137715D01*
X110732287Y-80056610D01*
X110825220Y-79874219D01*
X110888477Y-79679534D01*
X110920500Y-79477352D01*
X110920500Y-79272648D01*
X110888477Y-79070466D01*
X110825220Y-78875781D01*
X110825218Y-78875778D01*
X110825218Y-78875776D01*
X110760673Y-78749101D01*
X110732287Y-78693390D01*
X110724556Y-78682749D01*
X110611971Y-78527786D01*
X110467219Y-78383034D01*
X110430930Y-78356669D01*
X110388264Y-78301339D01*
X110382285Y-78231726D01*
X110414890Y-78169931D01*
X110475728Y-78135573D01*
X110490562Y-78133060D01*
X110527483Y-78129091D01*
X110662328Y-78078797D01*
X110662327Y-78078797D01*
X110662331Y-78078796D01*
X110777546Y-77992546D01*
X110863796Y-77877331D01*
X110914091Y-77742483D01*
X110920500Y-77682873D01*
X110920499Y-75987128D01*
X110914091Y-75927517D01*
X110914090Y-75927515D01*
X110863797Y-75792671D01*
X110863793Y-75792664D01*
X110777547Y-75677455D01*
X110777544Y-75677452D01*
X110662335Y-75591206D01*
X110662328Y-75591202D01*
X110527482Y-75540908D01*
X110527483Y-75540908D01*
X110467883Y-75534501D01*
X110467881Y-75534500D01*
X110467873Y-75534500D01*
X110467864Y-75534500D01*
X107972129Y-75534500D01*
X107972123Y-75534501D01*
X107912516Y-75540908D01*
X107777671Y-75591202D01*
X107777664Y-75591206D01*
X107662455Y-75677452D01*
X107662452Y-75677455D01*
X107576206Y-75792664D01*
X107576202Y-75792671D01*
X107525909Y-75927515D01*
X107525177Y-75930615D01*
X107523948Y-75932771D01*
X107523198Y-75934785D01*
X107522871Y-75934663D01*
X107490604Y-75991331D01*
X107428693Y-76023717D01*
X107359102Y-76017491D01*
X107303924Y-75974628D01*
X107280678Y-75908739D01*
X107280500Y-75902100D01*
X107280500Y-62812412D01*
X107300185Y-62745373D01*
X107307555Y-62735097D01*
X107309810Y-62732267D01*
X107309816Y-62732262D01*
X107405789Y-62579522D01*
X107465368Y-62409255D01*
X107467795Y-62387715D01*
X107485565Y-62230003D01*
X107485565Y-62229996D01*
X107465369Y-62050750D01*
X107465368Y-62050745D01*
X107405788Y-61880476D01*
X107359757Y-61807219D01*
X107309816Y-61727738D01*
X107182262Y-61600184D01*
X107029523Y-61504211D01*
X106859254Y-61444631D01*
X106859249Y-61444630D01*
X106680004Y-61424435D01*
X106679996Y-61424435D01*
X106500750Y-61444630D01*
X106500745Y-61444631D01*
X106330476Y-61504211D01*
X106177737Y-61600184D01*
X106050184Y-61727737D01*
X105954211Y-61880476D01*
X105894631Y-62050745D01*
X105894630Y-62050750D01*
X105874435Y-62229996D01*
X105874435Y-62230003D01*
X105894630Y-62409249D01*
X105894631Y-62409254D01*
X105954211Y-62579523D01*
X105994318Y-62643352D01*
X106013318Y-62710588D01*
X105992950Y-62777424D01*
X105939683Y-62822638D01*
X105870426Y-62831876D01*
X105823352Y-62814318D01*
X105759523Y-62774211D01*
X105589254Y-62714631D01*
X105589249Y-62714630D01*
X105410004Y-62694435D01*
X105409996Y-62694435D01*
X105230750Y-62714630D01*
X105230745Y-62714631D01*
X105060476Y-62774211D01*
X104907737Y-62870184D01*
X104780184Y-62997737D01*
X104684211Y-63150476D01*
X104624631Y-63320745D01*
X104624630Y-63320750D01*
X104604435Y-63499996D01*
X104604435Y-63500000D01*
X104624630Y-63679249D01*
X104624631Y-63679254D01*
X104684211Y-63849523D01*
X104724318Y-63913352D01*
X104743318Y-63980588D01*
X104722950Y-64047424D01*
X104669683Y-64092638D01*
X104600426Y-64101876D01*
X104553352Y-64084318D01*
X104489523Y-64044211D01*
X104319254Y-63984631D01*
X104319249Y-63984630D01*
X104140004Y-63964435D01*
X104139996Y-63964435D01*
X103960750Y-63984630D01*
X103960745Y-63984631D01*
X103790476Y-64044211D01*
X103637737Y-64140184D01*
X103510184Y-64267737D01*
X103414211Y-64420476D01*
X103354631Y-64590745D01*
X103354630Y-64590750D01*
X103334435Y-64769996D01*
X95215500Y-64769996D01*
X95215500Y-52652412D01*
X95235185Y-52585373D01*
X95242555Y-52575097D01*
X95244810Y-52572267D01*
X95244816Y-52572262D01*
X95340789Y-52419522D01*
X95400368Y-52249255D01*
X95402795Y-52227715D01*
X95420565Y-52070003D01*
X95420565Y-52069996D01*
X95400369Y-51890750D01*
X95400368Y-51890745D01*
X95340788Y-51720476D01*
X95294757Y-51647219D01*
X95244816Y-51567738D01*
X95117262Y-51440184D01*
X95094528Y-51425899D01*
X94964523Y-51344211D01*
X94794254Y-51284631D01*
X94794249Y-51284630D01*
X94615004Y-51264435D01*
X94614996Y-51264435D01*
X94435750Y-51284630D01*
X94435745Y-51284631D01*
X94265476Y-51344211D01*
X94135472Y-51425899D01*
X94068235Y-51444899D01*
X94001400Y-51424531D01*
X93956186Y-51371263D01*
X93945500Y-51320905D01*
X93945500Y-50112412D01*
X93965185Y-50045373D01*
X93972555Y-50035097D01*
X93974810Y-50032267D01*
X93974816Y-50032262D01*
X94070789Y-49879522D01*
X94130368Y-49709255D01*
X94132795Y-49687715D01*
X94150565Y-49530003D01*
X94150565Y-49529996D01*
X94130369Y-49350750D01*
X94130368Y-49350745D01*
X94070789Y-49180478D01*
X94039952Y-49131402D01*
X94024755Y-49107215D01*
X93974816Y-49027738D01*
X93847262Y-48900184D01*
X93694523Y-48804211D01*
X93524254Y-48744631D01*
X93524249Y-48744630D01*
X93345004Y-48724435D01*
X93344996Y-48724435D01*
X93165750Y-48744630D01*
X93165745Y-48744631D01*
X92995476Y-48804211D01*
X92842737Y-48900184D01*
X92715184Y-49027737D01*
X92619211Y-49180476D01*
X92559631Y-49350745D01*
X92559630Y-49350750D01*
X92539435Y-49529996D01*
X89537352Y-49529996D01*
X89535023Y-49507500D01*
X89566546Y-49445145D01*
X89585842Y-49428425D01*
X89696780Y-49350745D01*
X89771401Y-49298495D01*
X89938495Y-49131401D01*
X90074035Y-48937830D01*
X90173903Y-48723663D01*
X90235063Y-48495408D01*
X90255659Y-48260000D01*
X90235063Y-48024592D01*
X90188626Y-47851285D01*
X90173905Y-47796344D01*
X90173904Y-47796343D01*
X90173903Y-47796337D01*
X90074035Y-47582171D01*
X90071389Y-47578391D01*
X89938494Y-47388597D01*
X89771402Y-47221506D01*
X89771396Y-47221501D01*
X89585842Y-47091575D01*
X89542217Y-47036998D01*
X89535023Y-46967500D01*
X89566546Y-46905145D01*
X89585842Y-46888425D01*
X89666019Y-46832284D01*
X89771401Y-46758495D01*
X89938495Y-46591401D01*
X90074035Y-46397830D01*
X90173903Y-46183663D01*
X90235063Y-45955408D01*
X90255659Y-45720000D01*
X90235063Y-45484592D01*
X90173903Y-45256337D01*
X90074035Y-45042171D01*
X89955428Y-44872781D01*
X89938494Y-44848597D01*
X89771402Y-44681506D01*
X89771396Y-44681501D01*
X89585842Y-44551575D01*
X89542217Y-44496998D01*
X89535023Y-44427500D01*
X89566546Y-44365145D01*
X89585842Y-44348425D01*
X89666019Y-44292284D01*
X89771401Y-44218495D01*
X89938495Y-44051401D01*
X90074035Y-43857830D01*
X90173903Y-43643663D01*
X90235063Y-43415408D01*
X90255659Y-43180000D01*
X90235063Y-42944592D01*
X90173903Y-42716337D01*
X90074035Y-42502171D01*
X89955654Y-42333105D01*
X89938496Y-42308600D01*
X89938495Y-42308599D01*
X89816567Y-42186671D01*
X89783084Y-42125351D01*
X89788068Y-42055659D01*
X89829939Y-41999725D01*
X89860915Y-41982810D01*
X89992331Y-41933796D01*
X90107546Y-41847546D01*
X90193796Y-41732331D01*
X90244091Y-41597483D01*
X90250500Y-41537873D01*
X90250499Y-39742128D01*
X90244091Y-39682517D01*
X90231227Y-39648028D01*
X90193797Y-39547671D01*
X90193793Y-39547664D01*
X90107547Y-39432455D01*
X90107544Y-39432452D01*
X89992335Y-39346206D01*
X89992328Y-39346202D01*
X89857482Y-39295908D01*
X89857483Y-39295908D01*
X89797883Y-39289501D01*
X89797881Y-39289500D01*
X89797873Y-39289500D01*
X89797864Y-39289500D01*
X88002129Y-39289500D01*
X88002123Y-39289501D01*
X87942516Y-39295908D01*
X87807671Y-39346202D01*
X87807664Y-39346206D01*
X87692455Y-39432452D01*
X87692452Y-39432455D01*
X87606206Y-39547664D01*
X87606202Y-39547671D01*
X87555908Y-39682517D01*
X87549501Y-39742116D01*
X87549501Y-39742123D01*
X87549500Y-39742135D01*
X87549500Y-41537870D01*
X87549501Y-41537876D01*
X87555908Y-41597483D01*
X87606202Y-41732328D01*
X87606206Y-41732335D01*
X87692452Y-41847544D01*
X87692455Y-41847547D01*
X87807664Y-41933793D01*
X87807671Y-41933797D01*
X87939081Y-41982810D01*
X87995015Y-42024681D01*
X88019432Y-42090145D01*
X88004580Y-42158418D01*
X87983430Y-42186673D01*
X87861503Y-42308600D01*
X87725965Y-42502169D01*
X87725964Y-42502171D01*
X87626098Y-42716335D01*
X87626094Y-42716344D01*
X87564938Y-42944586D01*
X87564936Y-42944596D01*
X87544341Y-43179999D01*
X85090000Y-43179999D01*
X85090000Y-36319000D01*
X85109685Y-36251961D01*
X85162489Y-36206206D01*
X85214000Y-36195000D01*
X173048000Y-36195000D01*
X173115039Y-36214685D01*
G37*
%TD.AperFunction*%
%TD*%
M02*
